<?xml version="1.0" encoding="UTF-8"?><svg id="uuid-a699cda5-c82e-4db9-847f-a6949d43fcb3" xmlns="http://www.w3.org/2000/svg" viewBox="0 0 300 171.72896"><defs><style>@font-face {
	font-family: "National2-Regular";
	src: url("https://pudding.cool/assets/fonts/national/National2Web-Regular.woff2") format("woff2");
	font-weight: 400;
	font-style: normal;
	font-stretch: normal;
	font-display: swap;
}

@font-face {
	font-family: "National2-Bold";
	src: url("https://pudding.cool/assets/fonts/national/National2Web-Bold.woff2") format("woff2");
	font-weight: 700;
	font-style: normal;
	font-stretch: normal;
	font-display: swap;
}.uuid-dbec3b9d-fa23-4797-910f-7e569eee6563{fill:none;stroke:#5d395c;stroke-miterlimit:10;stroke-width:.5px;}.uuid-620ca225-050f-4088-89d7-668f20de9f67{fill:#cf78b1;stroke-width:0px;}.uuid-8e35c4ec-1334-4c52-b5a4-8f805198865c{fill:#947594;font-family:National2-Regular, 'National 2';font-size:16px;}</style></defs><line class="uuid-dbec3b9d-fa23-4797-910f-7e569eee6563" x1="0" y1="155.22942" x2="300" y2="155.22942"/><line class="uuid-dbec3b9d-fa23-4797-910f-7e569eee6563" x1="0" y1="120.1426" x2="300" y2="120.1426"/><line class="uuid-dbec3b9d-fa23-4797-910f-7e569eee6563" x1="0" y1="85.64056" x2="300" y2="85.64056"/><line class="uuid-dbec3b9d-fa23-4797-910f-7e569eee6563" x1="0" y1="50.55374" x2="300" y2="50.55374"/><line class="uuid-dbec3b9d-fa23-4797-910f-7e569eee6563" x1="0" y1="15.46692" x2="300" y2="15.46692"/><polygon class="uuid-620ca225-050f-4088-89d7-668f20de9f67" points="32.08763 154.93703 32.08763 154.93703 90.07732 154.93703 90.07732 154.93703 90.07732 117.51109 90.07732 117.51109 32.08763 117.51109 32.08763 117.51109 32.08763 154.93703"/><polygon class="uuid-620ca225-050f-4088-89d7-668f20de9f67" points="121.77835 154.93703 121.77835 154.93703 179.76804 154.93703 179.76804 154.93703 179.76804 64.88086 179.76804 64.88086 121.77835 64.88086 121.77835 64.88086 121.77835 154.93703"/><polygon class="uuid-620ca225-050f-4088-89d7-668f20de9f67" points="210.69588 154.93703 210.69588 154.93703 268.68557 154.93703 268.68557 154.93703 268.68557 63.12652 268.68557 63.12652 210.69588 63.12652 210.69588 63.12652 210.69588 154.93703"/><text class="uuid-8e35c4ec-1334-4c52-b5a4-8f805198865c" transform="translate(-.00099 152.76031)"><tspan x="0" y="0">0</tspan></text><text class="uuid-8e35c4ec-1334-4c52-b5a4-8f805198865c" transform="translate(-.00002 117.88824)"><tspan x="0" y="0">25</tspan></text><text class="uuid-8e35c4ec-1334-4c52-b5a4-8f805198865c" transform="translate(-.00002 83.01715)"><tspan x="0" y="0">50</tspan></text><text class="uuid-8e35c4ec-1334-4c52-b5a4-8f805198865c" transform="translate(-.00002 48.1441)"><tspan x="0" y="0">75</tspan></text><text class="uuid-8e35c4ec-1334-4c52-b5a4-8f805198865c" transform="translate(-.00002 13.27154)"><tspan x="0" y="0">100% excluded</tspan></text><text class="uuid-8e35c4ec-1334-4c52-b5a4-8f805198865c" transform="translate(39.5244 169.14117)"><tspan x="0" y="0">White</tspan></text><text class="uuid-8e35c4ec-1334-4c52-b5a4-8f805198865c" transform="translate(130.68846 169.14117)"><tspan x="0" y="0">Black</tspan></text><text class="uuid-8e35c4ec-1334-4c52-b5a4-8f805198865c" transform="translate(219.4824 169.14117)"><tspan x="0" y="0">Other</tspan></text><polygon class="uuid-620ca225-050f-4088-89d7-668f20de9f67" points="32.08763 154.93703 32.08763 154.93703 90.07732 154.93703 90.07732 154.93703 90.07732 117.51109 90.07732 117.51109 32.08763 117.51109 32.08763 117.51109 32.08763 154.93703"/><polygon class="uuid-620ca225-050f-4088-89d7-668f20de9f67" points="121.77835 154.93703 121.77835 154.93703 179.76804 154.93703 179.76804 154.93703 179.76804 64.88086 179.76804 64.88086 121.77835 64.88086 121.77835 64.88086 121.77835 154.93703"/><polygon class="uuid-620ca225-050f-4088-89d7-668f20de9f67" points="210.69588 154.93703 210.69588 154.93703 268.68557 154.93703 268.68557 154.93703 268.68557 63.12652 268.68557 63.12652 210.69588 63.12652 210.69588 63.12652 210.69588 154.93703"/></svg>