<?xml version="1.0" encoding="UTF-8"?><svg id="uuid-f25087cd-91af-4487-9a30-1852bc461e7d" xmlns="http://www.w3.org/2000/svg" viewBox="0 0 300 185.85385"><defs><style>.uuid-c4b3419d-6d88-4efa-8b40-996a1fe063db{fill:#947594;}.uuid-c4b3419d-6d88-4efa-8b40-996a1fe063db,.uuid-5c7aa5a6-c582-4b36-ac0d-28c2ef1d7523{stroke-width:0px;}.uuid-5c7aa5a6-c582-4b36-ac0d-28c2ef1d7523{fill:#cf78b1;}.uuid-6d446bd3-69db-477d-ab5c-6b8e799a34c5{stroke:#cf78b1;stroke-linecap:round;stroke-linejoin:round;stroke-width:2px;}.uuid-6d446bd3-69db-477d-ab5c-6b8e799a34c5,.uuid-9f6a5591-d53b-4716-9e6e-9b18e19c85a4{fill:none;}.uuid-9f6a5591-d53b-4716-9e6e-9b18e19c85a4{stroke:#967e96;stroke-miterlimit:10;stroke-width:.5px;}</style></defs><line class="uuid-9f6a5591-d53b-4716-9e6e-9b18e19c85a4" y1="169.04036" x2="139.04737" y2="169.04036"/><polyline class="uuid-6d446bd3-69db-477d-ab5c-6b8e799a34c5" points="13.5317 48.74287 26.11018 68.40214 38.68866 77.65355 51.26714 67.24571 63.84562 75.3407 76.4241 98.46924 89.00257 115.81564 101.58106 128.53633 114.15954 134.31847 126.73801 137.78775 131.76941 137.78775"/><path class="uuid-c4b3419d-6d88-4efa-8b40-996a1fe063db" d="M5.35205,172.91644v10.87988h-1.32812v-9.2002l-2.67188.73633v-1.24805l4-1.16797Z"/><path class="uuid-c4b3419d-6d88-4efa-8b40-996a1fe063db" d="M11.11182,183.98871c-.78955,0-1.45605-.18164-2-.54395-.54395-.36328-.94922-.90137-1.21582-1.61621l1.12012-.52832c.17041.50195.43701.89062.7998,1.16797.3623.27734.79443.41602,1.2959.41602.93848,0,1.68018-.43164,2.22412-1.2959s.81592-2.01074.81592-3.44043v-.35156h-.04785c-.19189.63965-.54932,1.14941-1.07227,1.52832-.52246.37891-1.13574.56738-1.83984.56738-1.00244,0-1.80811-.31934-2.41602-.95996-.60791-.63965-.91211-1.47168-.91211-2.49609,0-1.02344.32568-1.86621.97607-2.52734s1.50391-.99219,2.56006-.99219c.69336,0,1.30908.14941,1.84814.44824.53857.29883.97852.73535,1.31982,1.31152.2666.44824.4668.96289.6001,1.54395.1333.58203.2002,1.22461.2002,1.92773,0,1.76074-.38672,3.17383-1.16016,4.24023-.77344,1.06738-1.80566,1.60059-3.09619,1.60059ZM11.47998,174.01996c-.69336,0-1.25879.21875-1.6958.65625-.4375.4375-.65625,1.01367-.65625,1.72852,0,.71387.21875,1.28809.65625,1.71973.43701.43164,1.00244.64746,1.6958.64746.67188,0,1.22119-.21777,1.64795-.65527s.64014-1.00879.64014-1.71191c0-.7041-.21338-1.27734-.64014-1.7207-.42676-.44238-.97607-.66406-1.64795-.66406Z"/><path class="uuid-c4b3419d-6d88-4efa-8b40-996a1fe063db" d="M18.72803,183.79633l3.85596-9.50391h-4.65625v1.85547h-1.16797v-3.04004h7.21582v.92871l-3.8877,9.75977h-1.35986Z"/><path class="uuid-c4b3419d-6d88-4efa-8b40-996a1fe063db" d="M25.3999,178.45258c0-1.6748.35449-3.0166,1.06396-4.02441.70898-1.00781,1.67188-1.51172,2.8877-1.51172,1.21631,0,2.17871.50391,2.88818,1.51172s1.06396,2.34961,1.06396,4.02441-.35449,3.01562-1.06396,4.02344c-.70947,1.00879-1.67188,1.5127-2.88818,1.5127-1.21582,0-2.17871-.50391-2.8877-1.5127-.70947-1.00781-1.06396-2.34863-1.06396-4.02344ZM26.75977,178.45258c0,1.4082.22412,2.49316.67188,3.25586.44824.7627,1.08789,1.14355,1.91992,1.14355s1.47217-.38086,1.92041-1.14355c.44775-.7627.67188-1.84766.67188-3.25586s-.22412-2.49316-.67188-3.25586c-.44824-.7627-1.08838-1.14453-1.92041-1.14453s-1.47168.38184-1.91992,1.14453c-.44775.7627-.67188,1.84766-.67188,3.25586Z"/><path class="uuid-c4b3419d-6d88-4efa-8b40-996a1fe063db" d="M109.98242,182.61273h5.27979v1.18359h-7.08789v-1.04004c.10645-.08496.4375-.34375.99219-.77637.5542-.43164.98633-.77539,1.2959-1.03125.47998-.40527.8877-.77051,1.22412-1.09668.33594-.3252.62109-.63184.85596-.91992.3623-.44727.62891-.8877.7998-1.31934.17041-.43262.25586-.87207.25586-1.32031,0-.72559-.18652-1.29102-.56006-1.69629-.37305-.40527-.896-.60742-1.56787-.60742-.59717,0-1.08545.19141-1.46387.5752-.37891.38477-.56787.88086-.56787,1.48828,0,.21387.02637.41113.08008.5918.05322.18164.13818.37402.25586.57617l-1.13623.46387c-.14941-.23438-.26123-.49023-.33594-.76758s-.11182-.5918-.11182-.94434c0-.8418.30908-1.5625.92773-2.16016.61865-.59668,1.4082-.89551,2.36816-.89551,1.04541,0,1.87744.29883,2.49609.89551.61816.59766.92773,1.41406.92773,2.44824,0,.95996-.37354,1.93848-1.11963,2.93652-.74707.99707-2.01611,2.13574-3.80811,3.41602Z"/><path class="uuid-c4b3419d-6d88-4efa-8b40-996a1fe063db" d="M116.62256,178.45258c0-1.6748.35449-3.0166,1.06396-4.02441.70898-1.00781,1.67188-1.51172,2.8877-1.51172,1.21631,0,2.17871.50391,2.88818,1.51172s1.06396,2.34961,1.06396,4.02441-.35449,3.01562-1.06396,4.02344c-.70947,1.00879-1.67188,1.5127-2.88818,1.5127-1.21582,0-2.17871-.50391-2.8877-1.5127-.70947-1.00781-1.06396-2.34863-1.06396-4.02344ZM117.98242,178.45258c0,1.4082.22412,2.49316.67188,3.25586.44824.7627,1.08789,1.14355,1.91992,1.14355s1.47217-.38086,1.92041-1.14355c.44775-.7627.67188-1.84766.67188-3.25586s-.22412-2.49316-.67188-3.25586c-.44824-.7627-1.08838-1.14453-1.92041-1.14453s-1.47168.38184-1.91992,1.14453c-.44775.7627-.67188,1.84766-.67188,3.25586Z"/><path class="uuid-c4b3419d-6d88-4efa-8b40-996a1fe063db" d="M127.87012,182.61273h5.27979v1.18359h-7.08789v-1.04004c.10645-.08496.4375-.34375.99219-.77637.5542-.43164.98633-.77539,1.2959-1.03125.47998-.40527.8877-.77051,1.22412-1.09668.33594-.3252.62109-.63184.85596-.91992.3623-.44727.62891-.8877.7998-1.31934.17041-.43262.25586-.87207.25586-1.32031,0-.72559-.18652-1.29102-.56006-1.69629-.37305-.40527-.896-.60742-1.56787-.60742-.59717,0-1.08545.19141-1.46387.5752-.37891.38477-.56787.88086-.56787,1.48828,0,.21387.02637.41113.08008.5918.05322.18164.13818.37402.25586.57617l-1.13623.46387c-.14941-.23438-.26123-.49023-.33594-.76758s-.11182-.5918-.11182-.94434c0-.8418.30908-1.5625.92773-2.16016.61865-.59668,1.4082-.89551,2.36816-.89551,1.04541,0,1.87744.29883,2.49609.89551.61816.59766.92773,1.41406.92773,2.44824,0,.95996-.37354,1.93848-1.11963,2.93652-.74707.99707-2.01611,2.13574-3.80811,3.41602Z"/><path class="uuid-c4b3419d-6d88-4efa-8b40-996a1fe063db" d="M136.1582,182.61273h5.28027v1.18359h-7.08838v-1.04004c.10645-.08496.4375-.34375.9917-.77637.55469-.43164.98633-.77539,1.2959-1.03125.48047-.40527.88867-.77051,1.22461-1.09668.33594-.3252.62109-.63184.85547-.91992.36328-.44727.62988-.8877.80078-1.31934.16992-.43262.25586-.87207.25586-1.32031,0-.72559-.1875-1.29102-.56055-1.69629s-.89551-.60742-1.56738-.60742c-.59766,0-1.08594.19141-1.46484.5752-.37793.38477-.56738.88086-.56738,1.48828,0,.21387.02637.41113.08008.5918.05273.18164.13867.37402.25586.57617l-1.13623.46387c-.14941-.23438-.26123-.49023-.33594-.76758s-.11182-.5918-.11182-.94434c0-.8418.30908-1.5625.92773-2.16016.61914-.59668,1.4082-.89551,2.36816-.89551,1.04492,0,1.87695.29883,2.49609.89551.61816.59766.92773,1.41406.92773,2.44824,0,.95996-.37305,1.93848-1.12012,2.93652-.74609.99707-2.01562,2.13574-3.80762,3.41602Z"/><path class="uuid-5c7aa5a6-c582-4b36-ac0d-28c2ef1d7523" d="M25.17676,42.53949v10.87988h-1.32812v-9.2002l-2.67188.73633v-1.24805l4-1.16797Z"/><path class="uuid-5c7aa5a6-c582-4b36-ac0d-28c2ef1d7523" d="M35.22461,50.60346c0,.91748-.34375,1.64795-1.03174,2.19189s-1.59766.81592-2.72803.81592c-1.13086,0-2.04004-.27197-2.72803-.81592s-1.03223-1.27441-1.03223-2.19189c0-.61865.20264-1.17041.60791-1.65625.40527-.48486.93848-.81836,1.6001-1v-.03174c-.58691-.18115-1.0376-.49072-1.35205-.92822-.31445-.43701-.47168-.97021-.47168-1.6001,0-.85303.30908-1.54102.92773-2.06396.61865-.52246,1.43457-.78369,2.44824-.78369,1.01318,0,1.8291.26123,2.44775.78369.61865.52295.92822,1.21094.92822,2.06396,0,.62988-.15771,1.16309-.47217,1.6001-.31494.4375-.76562.74707-1.35205.92822v.03174c.66113.18164,1.19434.51514,1.6001,1,.40527.48584.60791,1.0376.60791,1.65625ZM33.89648,50.53949c0-.64014-.21875-1.1416-.65576-1.50391-.4375-.36279-1.02979-.54443-1.77588-.54443-.74707,0-1.33887.18164-1.77637.54443-.4375.3623-.65576.86377-.65576,1.50391,0,.63965.21582,1.13867.64795,1.49609s1.02637.53564,1.78418.53564c.75684,0,1.35205-.17822,1.78369-.53564.43213-.35742.64795-.85645.64795-1.49609ZM29.36865,45.46723c0,.60791.18652,1.08008.56006,1.41602.37305.33594.88525.50391,1.53613.50391.65039,0,1.16211-.16797,1.53564-.50391s.56006-.80811.56006-1.41602-.18408-1.07715-.55176-1.40771c-.36816-.33057-.88281-.49609-1.54395-.49609-.66162,0-1.17627.16553-1.54395.49609-.36816.33057-.55225.7998-.55225,1.40771Z"/><path class="uuid-5c7aa5a6-c582-4b36-ac0d-28c2ef1d7523" d="M128.45947,147.08441c0,.68359-.19189,1.25098-.57617,1.7041-.38379.4541-.90674.72852-1.56787.82422v.03223c.7251.04297,1.31982.30176,1.78418.77637.46387.47461.6958,1.05273.6958,1.73535,0,.93848-.33887,1.7041-1.01611,2.2959-.67725.59277-1.53857.88867-2.58398.88867-1.00244,0-1.8374-.25684-2.50391-.76855-.66699-.51172-1.05859-1.18359-1.17578-2.01562l1.15186-.41602c.13818.68262.42627,1.20801.86377,1.57617.4375.36719.99756.55176,1.68018.55176.7041,0,1.2666-.18945,1.68799-.56836.42139-.37793.63184-.89258.63184-1.54395,0-.60742-.20801-1.08496-.62402-1.43164s-.98145-.52051-1.6958-.52051h-1.05615v-1.12012h.97607c.67188,0,1.18115-.16992,1.52783-.51172.34668-.34082.52002-.83691.52002-1.48828,0-.51172-.18359-.92969-.55176-1.25586-.36816-.3252-.83496-.4873-1.3999-.4873-.58691,0-1.08008.17285-1.47998.51953-.40039.34668-.66943.83496-.80811,1.46387l-1.12012-.49609c.21338-.7998.62109-1.42578,1.22412-1.87988.60254-.45312,1.33057-.67969,2.18408-.67969.9917,0,1.77832.25293,2.35986.75977.58105.50684.87207,1.19238.87207,2.05566Z"/><path class="uuid-5c7aa5a6-c582-4b36-ac0d-28c2ef1d7523" d="M131.81982,153.19672c.2876,0,.53027.09863.72754.2959s.29639.44043.29639.72852-.09912.53027-.29639.72754-.43994.2959-.72754.2959c-.28809,0-.53076-.09863-.72803-.2959-.19775-.19727-.29639-.43945-.29639-.72754s.09863-.53125.29639-.72852c.19727-.19727.43994-.2959.72803-.2959Z"/><path class="uuid-5c7aa5a6-c582-4b36-ac0d-28c2ef1d7523" d="M136.57129,155.14887l3.85596-9.50391h-4.65625v1.85547h-1.16797v-3.04004h7.21582v.92871l-3.8877,9.75977h-1.35986Z"/><line class="uuid-9f6a5591-d53b-4716-9e6e-9b18e19c85a4" x1="155.06055" y1="168.69766" x2="299.01746" y2="168.69766"/><polyline class="uuid-6d446bd3-69db-477d-ab5c-6b8e799a34c5" points="168.96197 92.41365 192.0944 110.21081 215.22682 124.44853 238.35924 141.17785 261.49166 143.66946 289.25057 143.31352"/><path class="uuid-c4b3419d-6d88-4efa-8b40-996a1fe063db" d="M159.41211,172.91644v10.87988h-1.32715v-9.2002l-2.67285.73633v-1.24805l4-1.16797Z"/><path class="uuid-c4b3419d-6d88-4efa-8b40-996a1fe063db" d="M165.17285,183.98871c-.78906,0-1.45605-.18164-2-.54395-.54395-.36328-.94922-.90137-1.21582-1.61621l1.12012-.52832c.16992.50195.4375.89062.7998,1.16797s.79492.41602,1.2959.41602c.93848,0,1.67969-.43164,2.22461-1.2959.54395-.86426.81543-2.01074.81543-3.44043v-.35156h-.04785c-.19238.63965-.5498,1.14941-1.07227,1.52832s-1.13574.56738-1.83984.56738c-1.00293,0-1.80762-.31934-2.41602-.95996-.6084-.63965-.91211-1.47168-.91211-2.49609,0-1.02344.3252-1.86621.97656-2.52734.65039-.66113,1.50391-.99219,2.55957-.99219.69336,0,1.30957.14941,1.84766.44824.53906.29883.97852.73535,1.32031,1.31152.2666.44824.4668.96289.59961,1.54395.13379.58203.2002,1.22461.2002,1.92773,0,1.76074-.38672,3.17383-1.16016,4.24023-.77344,1.06738-1.80469,1.60059-3.0957,1.60059ZM165.54102,174.01996c-.69336,0-1.25879.21875-1.69629.65625s-.65527,1.01367-.65527,1.72852c0,.71387.21777,1.28809.65527,1.71973s1.00293.64746,1.69629.64746c.67188,0,1.22168-.21777,1.64844-.65527.42578-.4375.63965-1.00879.63965-1.71191,0-.7041-.21387-1.27734-.63965-1.7207-.42676-.44238-.97656-.66406-1.64844-.66406Z"/><path class="uuid-c4b3419d-6d88-4efa-8b40-996a1fe063db" d="M172.78809,183.79633l3.85645-9.50391h-4.65625v1.85547h-1.16797v-3.04004h7.21582v.92871l-3.8877,9.75977h-1.36035Z"/><path class="uuid-c4b3419d-6d88-4efa-8b40-996a1fe063db" d="M179.45996,178.45258c0-1.6748.35449-3.0166,1.06445-4.02441.70898-1.00781,1.67188-1.51172,2.8877-1.51172s2.17871.50391,2.88867,1.51172c.70898,1.00781,1.06348,2.34961,1.06348,4.02441s-.35449,3.01562-1.06348,4.02344c-.70996,1.00879-1.67285,1.5127-2.88867,1.5127s-2.17871-.50391-2.8877-1.5127c-.70996-1.00781-1.06445-2.34863-1.06445-4.02344ZM180.82031,178.45258c0,1.4082.22363,2.49316.67188,3.25586s1.08789,1.14355,1.91992,1.14355,1.47266-.38086,1.91992-1.14355c.44824-.7627.67188-1.84766.67188-3.25586s-.22363-2.49316-.67188-3.25586c-.44727-.7627-1.08789-1.14453-1.91992-1.14453s-1.47168.38184-1.91992,1.14453-.67188,1.84766-.67188,3.25586Z"/><path class="uuid-c4b3419d-6d88-4efa-8b40-996a1fe063db" d="M266.91113,182.61273h5.28027v1.18359h-7.08789v-1.04004c.10645-.08496.43652-.34375.99121-.77637.55469-.43164.98633-.77539,1.2959-1.03125.48047-.40527.88867-.77051,1.22461-1.09668.33594-.3252.62109-.63184.85547-.91992.36328-.44727.62988-.8877.80078-1.31934.16992-.43262.25586-.87207.25586-1.32031,0-.72559-.1875-1.29102-.56055-1.69629s-.89551-.60742-1.56738-.60742c-.59766,0-1.08594.19141-1.46484.5752-.37793.38477-.56738.88086-.56738,1.48828,0,.21387.02637.41113.08008.5918.05273.18164.13867.37402.25586.57617l-1.13574.46387c-.14941-.23438-.26172-.49023-.33594-.76758-.0752-.27734-.1123-.5918-.1123-.94434,0-.8418.30957-1.5625.92773-2.16016.61914-.59668,1.4082-.89551,2.36816-.89551,1.04492,0,1.87695.29883,2.49609.89551.61816.59766.92773,1.41406.92773,2.44824,0,.95996-.37305,1.93848-1.12012,2.93652-.74609.99707-2.01562,2.13574-3.80762,3.41602Z"/><path class="uuid-c4b3419d-6d88-4efa-8b40-996a1fe063db" d="M273.55078,178.45258c0-1.6748.35449-3.0166,1.06445-4.02441.70898-1.00781,1.67188-1.51172,2.8877-1.51172s2.17871.50391,2.88867,1.51172c.70898,1.00781,1.06348,2.34961,1.06348,4.02441s-.35449,3.01562-1.06348,4.02344c-.70996,1.00879-1.67285,1.5127-2.88867,1.5127s-2.17871-.50391-2.8877-1.5127c-.70996-1.00781-1.06445-2.34863-1.06445-4.02344ZM274.91113,178.45258c0,1.4082.22363,2.49316.67188,3.25586s1.08789,1.14355,1.91992,1.14355,1.47266-.38086,1.91992-1.14355c.44824-.7627.67188-1.84766.67188-3.25586s-.22363-2.49316-.67188-3.25586c-.44727-.7627-1.08789-1.14453-1.91992-1.14453s-1.47168.38184-1.91992,1.14453-.67188,1.84766-.67188,3.25586Z"/><path class="uuid-c4b3419d-6d88-4efa-8b40-996a1fe063db" d="M284.79883,182.61273h5.28027v1.18359h-7.08789v-1.04004c.10645-.08496.43652-.34375.99121-.77637.55469-.43164.98633-.77539,1.2959-1.03125.48047-.40527.88867-.77051,1.22461-1.09668.33594-.3252.62109-.63184.85547-.91992.36328-.44727.62988-.8877.80078-1.31934.16992-.43262.25586-.87207.25586-1.32031,0-.72559-.1875-1.29102-.56055-1.69629s-.89551-.60742-1.56738-.60742c-.59766,0-1.08594.19141-1.46484.5752-.37793.38477-.56738.88086-.56738,1.48828,0,.21387.02637.41113.08008.5918.05273.18164.13867.37402.25586.57617l-1.13574.46387c-.14941-.23438-.26172-.49023-.33594-.76758-.0752-.27734-.1123-.5918-.1123-.94434,0-.8418.30957-1.5625.92773-2.16016.61914-.59668,1.4082-.89551,2.36816-.89551,1.04492,0,1.87695.29883,2.49609.89551.61816.59766.92773,1.41406.92773,2.44824,0,.95996-.37305,1.93848-1.12012,2.93652-.74609.99707-2.01562,2.13574-3.80762,3.41602Z"/><path class="uuid-c4b3419d-6d88-4efa-8b40-996a1fe063db" d="M293.08691,182.61273h5.28027v1.18359h-7.08789v-1.04004c.10645-.08496.43652-.34375.99121-.77637.55469-.43164.98633-.77539,1.2959-1.03125.48047-.40527.88867-.77051,1.22461-1.09668.33594-.3252.62109-.63184.85547-.91992.36328-.44727.62988-.8877.80078-1.31934.16992-.43262.25586-.87207.25586-1.32031,0-.72559-.1875-1.29102-.56055-1.69629s-.89551-.60742-1.56738-.60742c-.59766,0-1.08594.19141-1.46484.5752-.37793.38477-.56738.88086-.56738,1.48828,0,.21387.02637.41113.08008.5918.05273.18164.13867.37402.25586.57617l-1.13574.46387c-.14941-.23438-.26172-.49023-.33594-.76758-.0752-.27734-.1123-.5918-.1123-.94434,0-.8418.30957-1.5625.92773-2.16016.61914-.59668,1.4082-.89551,2.36816-.89551,1.04492,0,1.87695.29883,2.49609.89551.61816.59766.92773,1.41406.92773,2.44824,0,.95996-.37305,1.93848-1.12012,2.93652-.74609.99707-2.01562,2.13574-3.80762,3.41602Z"/><path class="uuid-5c7aa5a6-c582-4b36-ac0d-28c2ef1d7523" d="M179.77246,84.73969v9.6665h-1.17969v-8.17383l-2.37402.65381v-1.1084l3.55371-1.03809Z"/><path class="uuid-5c7aa5a6-c582-4b36-ac0d-28c2ef1d7523" d="M182.04688,89.65814c0-1.4873.31543-2.6792.94531-3.57471.63086-.89551,1.48633-1.34375,2.56641-1.34375s1.93555.44824,2.56543,1.34375c.63086.89551.94531,2.0874.94531,3.57471,0,1.48828-.31445,2.67969-.94531,3.5752-.62988.89551-1.48535,1.34326-2.56543,1.34326s-1.93555-.44775-2.56641-1.34326c-.62988-.89551-.94531-2.08691-.94531-3.5752ZM183.25586,89.65814c0,1.25098.19922,2.21533.59668,2.89307.39844.67773.9668,1.01611,1.70605,1.01611s1.30762-.33838,1.70605-1.01611c.39746-.67773.59668-1.64209.59668-2.89307,0-1.25049-.19922-2.21484-.59668-2.89258-.39844-.67725-.9668-1.0166-1.70605-1.0166s-1.30762.33936-1.70605,1.0166c-.39746.67773-.59668,1.64209-.59668,2.89258Z"/><path class="uuid-5c7aa5a6-c582-4b36-ac0d-28c2ef1d7523" d="M191.8125,92.67182c.25586,0,.47168.08789.64648.26318.17578.17529.2627.39062.2627.64648s-.08691.47168-.2627.64697c-.1748.17529-.39062.26318-.64648.26318s-.47168-.08789-.64648-.26318c-.17578-.17529-.26367-.39111-.26367-.64697s.08789-.47119.26367-.64648c.1748-.17529.39062-.26318.64648-.26318Z"/><path class="uuid-5c7aa5a6-c582-4b36-ac0d-28c2ef1d7523" d="M199.63086,94.40619h-1.13672v-2.87158h-4.29297v-.96631l4.25-5.65771h1.17969v5.7002h2.00391v.92383h-2.00391v2.87158ZM198.49414,86.40326h-.05762l-3.05566,4.15088v.05664h3.11328v-4.20752Z"/><path class="uuid-5c7aa5a6-c582-4b36-ac0d-28c2ef1d7523" d="M282.08789,158.4682h4.69043v1.05176h-6.29688v-.92383c.09473-.07617.38867-.30566.88086-.68945.49316-.38379.87695-.68945,1.15137-.91699.42676-.36035.78906-.68457,1.08789-.97363s.55176-.56152.76074-.81738c.32227-.39844.55859-.78906.71094-1.17285.15137-.38379.22656-.77441.22656-1.17285,0-.64453-.16504-1.14648-.49707-1.50684s-.7959-.54004-1.39258-.54004c-.53125,0-.96484.1709-1.30078.51172-.33691.34082-.50488.78223-.50488,1.32227,0,.18945.02344.36426.07129.52539.04688.16113.12305.33203.22754.51172l-1.00977.41309c-.13281-.20898-.23242-.43652-.29883-.68262s-.09961-.52637-.09961-.83887c0-.74805.27539-1.38867.8252-1.91895.54883-.53027,1.25098-.7959,2.10352-.7959.92871,0,1.66797.26562,2.21777.7959s.82422,1.25586.82422,2.1748c0,.85254-.33203,1.72266-.99512,2.6084-.66309.88672-1.79102,1.89746-3.38281,3.03516Z"/><path class="uuid-5c7aa5a6-c582-4b36-ac0d-28c2ef1d7523" d="M289.22363,157.78559c.25586,0,.47168.08789.64648.2627.17578.17578.2627.3916.2627.64746s-.08691.47168-.2627.64648c-.1748.17578-.39062.2627-.64648.2627s-.47168-.08691-.64648-.2627c-.17578-.1748-.26367-.39062-.26367-.64648s.08789-.47168.26367-.64746c.1748-.1748.39062-.2627.64648-.2627Z"/><path class="uuid-5c7aa5a6-c582-4b36-ac0d-28c2ef1d7523" d="M293.44531,159.51996l3.42578-8.44336h-4.13574v1.64844h-1.03809v-2.70117h6.41113v.8252l-3.4541,8.6709h-1.20898Z"/><circle class="uuid-5c7aa5a6-c582-4b36-ac0d-28c2ef1d7523" cx="168.96197" cy="92.41365" r="2.58529"/><circle class="uuid-5c7aa5a6-c582-4b36-ac0d-28c2ef1d7523" cx="289.25057" cy="142.76203" r="2.58529"/><circle class="uuid-5c7aa5a6-c582-4b36-ac0d-28c2ef1d7523" cx="13.5317" cy="48.74287" r="2.58529"/><circle class="uuid-5c7aa5a6-c582-4b36-ac0d-28c2ef1d7523" cx="131.76941" cy="137.28879" r="2.58529"/><path class="uuid-c4b3419d-6d88-4efa-8b40-996a1fe063db" d="M24.51172,6.79975v4.75195h-1.34424V.86371h6.44824v1.18408h-5.104v3.56787h4.54395v1.18408h-4.54395Z"/><path class="uuid-c4b3419d-6d88-4efa-8b40-996a1fe063db" d="M34.43164,3.3598c.88525,0,1.5625.21045,2.03174.63184s.7041,1.03223.7041,1.83203v4.16016c0,.23486.04785.41064.14404.52783.09619.11768.24512.17627.44824.17627.08496,0,.17578-.01611.27197-.04834.0957-.03174.17041-.07422.22363-.12793l.08008.97607c-.0957.06396-.22656.11719-.39209.16016-.16553.04248-.32764.06396-.48779.06396-.29883,0-.55762-.06152-.77588-.18408-.21875-.12256-.38672-.30127-.50439-.53613-.04248-.08496-.08252-.17822-.11963-.27979-.0376-.10156-.06689-.21631-.08838-.34424-.14941.41602-.4375.74707-.86377.99219-.42676.24512-.91211.36768-1.45605.36768-.74658,0-1.34668-.20508-1.7998-.61572-.45361-.41064-.68018-.95752-.68018-1.64014,0-.83203.34424-1.47168,1.03223-1.91992s1.68213-.67188,2.98389-.67188c.06396,0,.14648.00244.24805.00781.10107.00537.26904.01367.50391.02393v-.94385c0-.49072-.13623-.86914-.4082-1.13623-.27197-.26611-.66357-.3999-1.17578-.3999-.49072,0-.86963.12305-1.13623.36816-.2666.24561-.41064.60254-.43164,1.07178l-1.28027-.22363c.08545-.7041.39209-1.26123.91992-1.67236.52832-.41016,1.19727-.61572,2.0083-.61572ZM33.95166,10.71967c.59717,0,1.07715-.19189,1.43994-.57617.3623-.38379.54395-.91162.54395-1.58398v-.67188c-.13867-.01025-.27197-.01855-.3999-.02393s-.24561-.00781-.35205-.00781c-.91748,0-1.6001.13037-2.04785.3916-.44824.26172-.67236.65381-.67236,1.17627,0,.40527.1333.72266.40039.95215.26611.22949.62891.34375,1.08789.34375Z"/><path class="uuid-c4b3419d-6d88-4efa-8b40-996a1fe063db" d="M42.7832,10.63959c.24561,0,.46436-.0293.65625-.08789s.41016-.16797.65576-.32812l.24023,1.04004c-.23486.14941-.49902.2666-.79199.35205-.29346.08545-.57861.12793-.85596.12793-.76807,0-1.35742-.18945-1.76807-.56787s-.61621-.92529-.61621-1.64014v-4.97607h-1.15186v-1.00781h1.15186v-1.6958l1.31201-.20801v1.90381h2.3999v1.00781h-2.3999v4.84814c0,.40576.09863.71191.2959.91992s.48828.31201.87207.31201Z"/><path class="uuid-c4b3419d-6d88-4efa-8b40-996a1fe063db" d="M48.87939,3.3598c.88525,0,1.5625.21045,2.03174.63184s.7041,1.03223.7041,1.83203v4.16016c0,.23486.04785.41064.14404.52783.09619.11768.24512.17627.44824.17627.08496,0,.17578-.01611.27197-.04834.0957-.03174.17041-.07422.22363-.12793l.08008.97607c-.0957.06396-.22656.11719-.39209.16016-.16553.04248-.32764.06396-.48779.06396-.29883,0-.55762-.06152-.77588-.18408-.21875-.12256-.38672-.30127-.50439-.53613-.04248-.08496-.08252-.17822-.11963-.27979-.0376-.10156-.06689-.21631-.08838-.34424-.14941.41602-.4375.74707-.86377.99219-.42676.24512-.91211.36768-1.45605.36768-.74658,0-1.34668-.20508-1.7998-.61572-.45361-.41064-.68018-.95752-.68018-1.64014,0-.83203.34424-1.47168,1.03223-1.91992s1.68213-.67188,2.98389-.67188c.06396,0,.14648.00244.24805.00781.10107.00537.26904.01367.50391.02393v-.94385c0-.49072-.13623-.86914-.4082-1.13623-.27197-.26611-.66357-.3999-1.17578-.3999-.49072,0-.86963.12305-1.13623.36816-.2666.24561-.41064.60254-.43164,1.07178l-1.28027-.22363c.08545-.7041.39209-1.26123.91992-1.67236.52832-.41016,1.19727-.61572,2.0083-.61572ZM48.39941,10.71967c.59717,0,1.07715-.19189,1.43994-.57617.3623-.38379.54395-.91162.54395-1.58398v-.67188c-.13867-.01025-.27197-.01855-.3999-.02393s-.24561-.00781-.35205-.00781c-.91748,0-1.6001.13037-2.04785.3916-.44824.26172-.67236.65381-.67236,1.17627,0,.40527.1333.72266.40039.95215.26611.22949.62891.34375,1.08789.34375Z"/><path class="uuid-c4b3419d-6d88-4efa-8b40-996a1fe063db" d="M56.49512,10.63959c.12793,0,.25342-.01855.37598-.05566.12256-.0376.2373-.09326.34424-.16846l.14355,1.0083c-.14941.08545-.33594.1543-.55957.20801-.22412.05322-.44287.08008-.65625.08008-.55469,0-.97363-.1416-1.25586-.42432-.28271-.28223-.42432-.6958-.42432-1.23975V-.00006h1.31201v9.90381c0,.25586.05859.44287.17627.56006.11719.11719.29834.17578.54395.17578Z"/><path class="uuid-c4b3419d-6d88-4efa-8b40-996a1fe063db" d="M59.91895.15961c.2666,0,.49072.09082.67188.27197.18164.18164.27197.41064.27197.68799,0,.27783-.09033.50684-.27197.68799-.18115.18164-.40527.27197-.67188.27197s-.49072-.09033-.67188-.27197c-.18164-.18115-.27197-.41016-.27197-.68799,0-.27734.09033-.50635.27197-.68799.18115-.18115.40527-.27197.67188-.27197ZM59.26318,11.5517V3.5517h1.31201v8h-1.31201Z"/><path class="uuid-c4b3419d-6d88-4efa-8b40-996a1fe063db" d="M66.03076,10.63959c.24561,0,.46436-.0293.65625-.08789s.41016-.16797.65576-.32812l.24023,1.04004c-.23486.14941-.49902.2666-.79199.35205-.29346.08545-.57861.12793-.85596.12793-.76807,0-1.35742-.18945-1.76807-.56787s-.61621-.92529-.61621-1.64014v-4.97607h-1.15186v-1.00781h1.15186v-1.6958l1.31201-.20801v1.90381h2.3999v1.00781h-2.3999v4.84814c0,.40576.09863.71191.2959.91992s.48828.31201.87207.31201Z"/><path class="uuid-c4b3419d-6d88-4efa-8b40-996a1fe063db" d="M70.1748.15961c.2666,0,.49072.09082.67188.27197.18164.18164.27197.41064.27197.68799,0,.27783-.09033.50684-.27197.68799-.18115.18164-.40527.27197-.67188.27197s-.49072-.09033-.67188-.27197c-.18164-.18115-.27197-.41016-.27197-.68799,0-.27734.09033-.50635.27197-.68799.18115-.18115.40527-.27197.67188-.27197ZM69.51904,11.5517V3.5517h1.31201v8h-1.31201Z"/><path class="uuid-c4b3419d-6d88-4efa-8b40-996a1fe063db" d="M76.63867,10.70355c.50146,0,.91211-.12256,1.23193-.36768.32031-.24561.53857-.6084.65625-1.08838l1.13574.32031c-.17041.7041-.51709,1.24268-1.04004,1.61572-.52246.37354-1.18359.56006-1.98389.56006-1.12012,0-1.99463-.3623-2.62402-1.08789-.62939-.7251-.94385-1.74902-.94385-3.07178,0-1.29053.32227-2.31738.96777-3.08008s1.51221-1.14404,2.6001-1.14404c.94922,0,1.7041.30664,2.26416.91992s.83984,1.42676.83984,2.43994c0,.20264-.01611.3999-.04785.5918-.03223.19238-.06934.35205-.11182.48047h-5.24805c.03174.92773.24805,1.64551.64795,2.15186.3999.50684.95166.75977,1.65576.75977ZM76.60693,4.36762c-.62988,0-1.13867.21338-1.52832.64014-.38916.42676-.62646,1.03467-.71191,1.82373h4.06396c.01074-.05322.01611-.10889.01611-.16797v-.24805c0-.60791-.16797-1.10107-.50391-1.47998-.33594-.37842-.78174-.56787-1.33594-.56787Z"/><path class="uuid-c4b3419d-6d88-4efa-8b40-996a1fe063db" d="M84.33447,11.74359c-.85352,0-1.56543-.19727-2.13574-.5918-.5708-.39453-.91504-.93311-1.03223-1.61621l1.2002-.33594c.06396.44824.27979.81592.64795,1.104s.80811.43213,1.31982.43213c.55469,0,.98389-.10938,1.28809-.32812.3042-.21826.45605-.53027.45605-.93604,0-.34131-.12012-.61328-.35986-.81592-.24023-.20264-.76562-.39453-1.57617-.57617-.53369-.11719-.92529-.22363-1.17578-.31982-.25098-.09619-.4668-.20264-.64844-.31982-.2666-.19238-.46631-.42676-.59961-.7041-.13379-.27734-.2002-.60254-.2002-.97607,0-.7251.2583-1.30664.77588-1.74414.51758-.43701,1.19238-.65576,2.02393-.65576.87451,0,1.55469.18945,2.04004.56787.48535.37891.77051.93066.85596,1.65625l-1.23193.17578c-.04248-.44824-.20557-.79199-.48779-1.03223-.28271-.23975-.6748-.35986-1.17627-.35986-.49072,0-.87451.11475-1.15186.34424s-.41602.54639-.41602.95166c0,.33105.11719.59473.35205.79199.23438.19775.75195.38184,1.55225.55225.54395.11768.94385.22168,1.19971.31201.25586.09082.47461.19971.65625.32812.26611.19189.46631.4292.59961.71191s.2002.62158.2002,1.01611c0,.7251-.27197,1.30127-.81592,1.72754-.54395.42676-1.26416.64014-2.16016.64014Z"/><path class="uuid-c4b3419d-6d88-4efa-8b40-996a1fe063db" d="M93.48633,3.5517h.97559l.16016,1.53613c.14941-.49072.46143-.90137.93604-1.23193s1.00537-.49609,1.5918-.49609c1.05615,0,1.88037.37354,2.47217,1.12012.59229.74658.88818,1.77051.88818,3.07178,0,1.2373-.31494,2.24561-.94434,3.02393-.62939.77881-1.46143,1.16797-2.49561,1.16797-.53369,0-1.00586-.11475-1.41602-.34375-.41113-.22949-.69629-.53613-.85596-.91992v4.23975h-1.31201V3.5517ZM96.87793,4.41547c-.60791,0-1.10645.23242-1.49561.69629-.38965.46387-.58398,1.09082-.58398,1.87988v1.42383c0,.7041.19434,1.26172.58398,1.67236.38916.41064.8877.61572,1.49561.61572.71484,0,1.27734-.27734,1.68799-.83203.41064-.5542.61621-1.32764.61621-2.31982,0-1.02393-.19727-1.80273-.5918-2.33594-.39502-.5332-.96582-.80029-1.7124-.80029Z"/><path class="uuid-c4b3419d-6d88-4efa-8b40-996a1fe063db" d="M105.7417,10.70355c.50146,0,.91211-.12256,1.23193-.36768.32031-.24561.53857-.6084.65625-1.08838l1.13574.32031c-.17041.7041-.51709,1.24268-1.04004,1.61572-.52246.37354-1.18359.56006-1.98389.56006-1.12012,0-1.99463-.3623-2.62402-1.08789-.62939-.7251-.94385-1.74902-.94385-3.07178,0-1.29053.32227-2.31738.96777-3.08008s1.51221-1.14404,2.6001-1.14404c.94922,0,1.7041.30664,2.26416.91992s.83984,1.42676.83984,2.43994c0,.20264-.01611.3999-.04785.5918-.03223.19238-.06934.35205-.11182.48047h-5.24805c.03174.92773.24805,1.64551.64795,2.15186.3999.50684.95166.75977,1.65576.75977ZM105.70996,4.36762c-.62988,0-1.13867.21338-1.52832.64014-.38916.42676-.62646,1.03467-.71191,1.82373h4.06396c.01074-.05322.01611-.10889.01611-.16797v-.24805c0-.60791-.16797-1.10107-.50391-1.47998-.33594-.37842-.78174-.56787-1.33594-.56787Z"/><path class="uuid-c4b3419d-6d88-4efa-8b40-996a1fe063db" d="M111.06982,11.5517V3.5517h1.04004l.17578,2.04785c.14941-.67188.4585-1.21289.92773-1.62402.46973-.41016,1.0083-.61572,1.61621-.61572.07471,0,.15186.00537.23193.01611s.15723.02148.23193.03174l-.08008,1.37598c-.06396-.01025-.1543-.021-.27197-.03174-.11719-.01074-.23975-.01611-.36768-.01611-.66162,0-1.19189.25049-1.59229.75195-.3999.50146-.59961,1.17334-.59961,2.01611v4.04785h-1.31201Z"/><path class="uuid-c4b3419d-6d88-4efa-8b40-996a1fe063db" d="M13.59961,18.67182v10.87988h-1.32812v-9.2002l-2.67188.73633v-1.24805l4-1.16797Z"/><path class="uuid-c4b3419d-6d88-4efa-8b40-996a1fe063db" d="M16.15967,24.20746c0-1.67432.35449-3.01562,1.06396-4.02393.70898-1.00781,1.67188-1.51172,2.8877-1.51172,1.21631,0,2.17871.50391,2.88818,1.51172.70947,1.0083,1.06396,2.34961,1.06396,4.02393,0,1.6748-.35449,3.01611-1.06396,4.02441-.70947,1.00781-1.67188,1.51172-2.88818,1.51172-1.21582,0-2.17871-.50391-2.8877-1.51172-.70947-1.0083-1.06396-2.34961-1.06396-4.02441ZM17.51953,24.20746c0,1.4082.22412,2.49365.67188,3.25635.44824.7627,1.08789,1.14404,1.91992,1.14404s1.47217-.38135,1.92041-1.14404c.44775-.7627.67188-1.84814.67188-3.25635,0-1.40771-.22412-2.49316-.67188-3.25586-.44824-.76221-1.08838-1.14404-1.92041-1.14404s-1.47168.38184-1.91992,1.14404c-.44775.7627-.67188,1.84814-.67188,3.25586Z"/><path class="uuid-c4b3419d-6d88-4efa-8b40-996a1fe063db" d="M25.75928,24.20746c0-1.67432.35449-3.01562,1.06396-4.02393.70898-1.00781,1.67188-1.51172,2.8877-1.51172,1.21631,0,2.17871.50391,2.88818,1.51172.70947,1.0083,1.06396,2.34961,1.06396,4.02393,0,1.6748-.35449,3.01611-1.06396,4.02441-.70947,1.00781-1.67188,1.51172-2.88818,1.51172-1.21582,0-2.17871-.50391-2.8877-1.51172-.70947-1.0083-1.06396-2.34961-1.06396-4.02441ZM27.11914,24.20746c0,1.4082.22412,2.49365.67188,3.25635.44824.7627,1.08789,1.14404,1.91992,1.14404s1.47217-.38135,1.92041-1.14404c.44775-.7627.67188-1.84814.67188-3.25635,0-1.40771-.22412-2.49316-.67188-3.25586-.44824-.76221-1.08838-1.14404-1.92041-1.14404s-1.47168.38184-1.91992,1.14404c-.44775.7627-.67188,1.84814-.67188,3.25586Z"/><path class="uuid-c4b3419d-6d88-4efa-8b40-996a1fe063db" d="M36.63867,27.59955c.37354,0,.68018.14404.91992.43213.24023.28809.36035.66162.36035,1.12012,0,.81055-.24023,1.48535-.72021,2.02393s-1.10938.80811-1.88818.80811v-.7041c.47998-.03223.88037-.21582,1.2002-.55225.31982-.33594.47998-.72266.47998-1.15967,0-.07471-.00537-.13867-.01611-.19189-.01074-.05371-.02686-.09082-.04785-.1123-.05371.03223-.11475.05859-.18408.08008s-.13574.03223-.19971.03223c-.24561,0-.4458-.07764-.6001-.23242-.15479-.1543-.23193-.36523-.23193-.63184s.08496-.48535.25586-.65576c.17041-.1709.39453-.25635.67188-.25635Z"/><path class="uuid-c4b3419d-6d88-4efa-8b40-996a1fe063db" d="M39.83887,24.20746c0-1.67432.35449-3.01562,1.06396-4.02393.70898-1.00781,1.67188-1.51172,2.8877-1.51172,1.21631,0,2.17871.50391,2.88818,1.51172.70947,1.0083,1.06396,2.34961,1.06396,4.02393,0,1.6748-.35449,3.01611-1.06396,4.02441-.70947,1.00781-1.67188,1.51172-2.88818,1.51172-1.21582,0-2.17871-.50391-2.8877-1.51172-.70947-1.0083-1.06396-2.34961-1.06396-4.02441ZM41.19873,24.20746c0,1.4082.22412,2.49365.67188,3.25635.44824.7627,1.08789,1.14404,1.91992,1.14404s1.47217-.38135,1.92041-1.14404c.44775-.7627.67188-1.84814.67188-3.25635,0-1.40771-.22412-2.49316-.67188-3.25586-.44824-.76221-1.08838-1.14404-1.92041-1.14404s-1.47168.38184-1.91992,1.14404c-.44775.7627-.67188,1.84814-.67188,3.25586Z"/><path class="uuid-c4b3419d-6d88-4efa-8b40-996a1fe063db" d="M49.43896,24.20746c0-1.67432.35449-3.01562,1.06396-4.02393.70898-1.00781,1.67188-1.51172,2.8877-1.51172,1.21631,0,2.17871.50391,2.88818,1.51172.70947,1.0083,1.06396,2.34961,1.06396,4.02393,0,1.6748-.35449,3.01611-1.06396,4.02441-.70947,1.00781-1.67188,1.51172-2.88818,1.51172-1.21582,0-2.17871-.50391-2.8877-1.51172-.70947-1.0083-1.06396-2.34961-1.06396-4.02441ZM50.79883,24.20746c0,1.4082.22412,2.49365.67188,3.25635.44824.7627,1.08789,1.14404,1.91992,1.14404s1.47217-.38135,1.92041-1.14404c.44775-.7627.67188-1.84814.67188-3.25635,0-1.40771-.22412-2.49316-.67188-3.25586-.44824-.76221-1.08838-1.14404-1.92041-1.14404s-1.47168.38184-1.91992,1.14404c-.44775.7627-.67188,1.84814-.67188,3.25586Z"/><path class="uuid-c4b3419d-6d88-4efa-8b40-996a1fe063db" d="M59.03857,24.20746c0-1.67432.35449-3.01562,1.06396-4.02393.70898-1.00781,1.67188-1.51172,2.8877-1.51172,1.21631,0,2.17871.50391,2.88818,1.51172.70947,1.0083,1.06396,2.34961,1.06396,4.02393,0,1.6748-.35449,3.01611-1.06396,4.02441-.70947,1.00781-1.67188,1.51172-2.88818,1.51172-1.21582,0-2.17871-.50391-2.8877-1.51172-.70947-1.0083-1.06396-2.34961-1.06396-4.02441ZM60.39844,24.20746c0,1.4082.22412,2.49365.67188,3.25635.44824.7627,1.08789,1.14404,1.91992,1.14404s1.47217-.38135,1.92041-1.14404c.44775-.7627.67188-1.84814.67188-3.25635,0-1.40771-.22412-2.49316-.67188-3.25586-.44824-.76221-1.08838-1.14404-1.92041-1.14404s-1.47168.38184-1.91992,1.14404c-.44775.7627-.67188,1.84814-.67188,3.25586Z"/><path class="uuid-c4b3419d-6d88-4efa-8b40-996a1fe063db" d="M75.21387,27.98383l1.66406-6.43213h1.18408l1.66406,6.43213h.03174l1.66406-6.43213h1.26416l-2.27197,8h-1.27979l-1.66406-6.3042h-.03223l-1.66406,6.3042h-1.27979l-2.27197-8h1.2959l1.66406,6.43213h.03174Z"/><path class="uuid-c4b3419d-6d88-4efa-8b40-996a1fe063db" d="M87.53418,21.3598c1.09863,0,1.9707.37354,2.61621,1.12012.64502.74658.96777,1.77051.96777,3.07178s-.32275,2.32568-.96777,3.07178c-.64551.74707-1.51758,1.12012-2.61621,1.12012s-1.9707-.37305-2.61621-1.12012c-.64551-.74609-.96777-1.77051-.96777-3.07178s.32227-2.3252.96777-3.07178,1.51758-1.12012,2.61621-1.12012ZM87.53418,28.71967c.73584,0,1.2959-.26904,1.68018-.80811.38379-.53857.57568-1.3252.57568-2.35986s-.19189-1.82129-.57568-2.35986c-.38428-.53857-.94434-.80811-1.68018-.80811s-1.2959.26953-1.68018.80811c-.38379.53857-.57568,1.3252-.57568,2.35986s.19189,1.82129.57568,2.35986c.38428.53906.94434.80811,1.68018.80811Z"/><path class="uuid-c4b3419d-6d88-4efa-8b40-996a1fe063db" d="M93.3584,29.5517v-8h1.04004l.17578,2.04785c.14941-.67188.4585-1.21289.92773-1.62402.46973-.41016,1.0083-.61572,1.61621-.61572.07471,0,.15186.00537.23193.01611s.15723.02148.23193.03174l-.08008,1.37598c-.06396-.01025-.1543-.021-.27197-.03174-.11719-.01074-.23975-.01611-.36768-.01611-.66162,0-1.19189.25049-1.59229.75195-.3999.50146-.59961,1.17334-.59961,2.01611v4.04785h-1.31201Z"/><path class="uuid-c4b3419d-6d88-4efa-8b40-996a1fe063db" d="M105.80615,21.5517l-3.34375,3.64795,3.66357,4.35205h-1.64795l-3.13574-3.74414h-.67188v3.74414h-1.31201v-11.55176h1.31201v6.76758h.70361l2.88037-3.21582h1.55176Z"/><path class="uuid-c4b3419d-6d88-4efa-8b40-996a1fe063db" d="M110.65381,28.70355c.50146,0,.91211-.12256,1.23193-.36768.32031-.24561.53857-.6084.65625-1.08838l1.13574.32031c-.17041.7041-.51709,1.24268-1.04004,1.61572-.52246.37354-1.18359.56006-1.98389.56006-1.12012,0-1.99463-.3623-2.62402-1.08789-.62939-.7251-.94385-1.74902-.94385-3.07178,0-1.29053.32227-2.31738.96777-3.08008s1.51221-1.14404,2.6001-1.14404c.94922,0,1.7041.30664,2.26416.91992s.83984,1.42676.83984,2.43994c0,.20264-.01611.3999-.04785.5918-.03223.19238-.06934.35205-.11182.48047h-5.24805c.03174.92773.24805,1.64551.64795,2.15186.3999.50684.95166.75977,1.65576.75977ZM110.62207,22.36762c-.62988,0-1.13867.21338-1.52832.64014-.38916.42676-.62646,1.03467-.71191,1.82373h4.06396c.01074-.05322.01611-.10889.01611-.16797v-.24805c0-.60791-.16797-1.10107-.50391-1.47998-.33594-.37842-.78174-.56787-1.33594-.56787Z"/><path class="uuid-c4b3419d-6d88-4efa-8b40-996a1fe063db" d="M115.98193,29.5517v-8h1.04004l.17578,2.04785c.14941-.67188.4585-1.21289.92773-1.62402.46973-.41016,1.0083-.61572,1.61621-.61572.07471,0,.15186.00537.23193.01611s.15723.02148.23193.03174l-.08008,1.37598c-.06396-.01025-.1543-.021-.27197-.03174-.11719-.01074-.23975-.01611-.36768-.01611-.66162,0-1.19189.25049-1.59229.75195-.3999.50146-.59961,1.17334-.59961,2.01611v4.04785h-1.31201Z"/><path class="uuid-c4b3419d-6d88-4efa-8b40-996a1fe063db" d="M124.34961,29.74359c-.85352,0-1.56543-.19727-2.13574-.5918-.5708-.39453-.91504-.93311-1.03223-1.61621l1.2002-.33594c.06396.44824.27979.81592.64795,1.104s.80811.43213,1.31982.43213c.55469,0,.98389-.10938,1.28809-.32812.3042-.21826.45605-.53027.45605-.93604,0-.34131-.12012-.61328-.35986-.81592-.24023-.20264-.76562-.39453-1.57617-.57617-.53369-.11719-.92529-.22363-1.17578-.31982-.25098-.09619-.4668-.20264-.64844-.31982-.2666-.19238-.46631-.42676-.59961-.7041-.13379-.27734-.2002-.60254-.2002-.97607,0-.7251.2583-1.30664.77588-1.74414.51758-.43701,1.19238-.65576,2.02393-.65576.87451,0,1.55469.18945,2.04004.56787.48535.37891.77051.93066.85596,1.65625l-1.23193.17578c-.04248-.44824-.20557-.79199-.48779-1.03223-.28271-.23975-.6748-.35986-1.17627-.35986-.49072,0-.87451.11475-1.15186.34424s-.41602.54639-.41602.95166c0,.33105.11719.59473.35205.79199.23438.19775.75195.38184,1.55225.55225.54395.11768.94385.22168,1.19971.31201.25586.09082.47461.19971.65625.32812.26611.19189.46631.4292.59961.71191s.2002.62158.2002,1.01611c0,.7251-.27197,1.30127-.81592,1.72754-.54395.42676-1.26416.64014-2.16016.64014Z"/><path class="uuid-c4b3419d-6d88-4efa-8b40-996a1fe063db" d="M188.55176,11.5517V.86371h1.34375v10.68799h-1.34375Z"/><path class="uuid-c4b3419d-6d88-4efa-8b40-996a1fe063db" d="M192.79199,3.5517h.97559l.16016,1.55176c.22363-.5542.57031-.98389,1.04004-1.2876.46875-.3042,1.01855-.45605,1.64746-.45605.74707,0,1.34473.23193,1.79199.6958.44824.46387.67188,1.09082.67188,1.87988v5.61621h-1.31152v-5.34424c0-.54395-.13574-.9624-.4082-1.25586-.27148-.29297-.6582-.43994-1.16016-.43994-.66113,0-1.17578.20801-1.54395.62402s-.55176,1.00781-.55176,1.77588v4.64014h-1.31152V3.5517Z"/><path class="uuid-c4b3419d-6d88-4efa-8b40-996a1fe063db" d="M201.81543,11.80756V3.5517h1.3125v8.35205c0,1.14111-.32031,1.96777-.96094,2.47998-.4375.35205-.96484.52246-1.58398.51221-.29785,0-.62402-.04297-.97559-.12842l.17578-1.11963c.28809.08496.54395.12793.76855.12793.31934,0,.57617-.08545.76758-.25635.33105-.29834.49609-.86914.49609-1.71191ZM202.47168.15961c.2666,0,.49023.09082.67188.27197.18164.18164.27148.41064.27148.68799,0,.27783-.08984.50684-.27148.68799-.18164.18164-.40527.27197-.67188.27197s-.49121-.09033-.67188-.27197c-.18164-.18115-.27246-.41016-.27246-.68799,0-.27734.09082-.50635.27246-.68799.18066-.18115.40527-.27197.67188-.27197Z"/><path class="uuid-c4b3419d-6d88-4efa-8b40-996a1fe063db" d="M212.05566,11.5517h-1.04004l-.16016-1.52002c-.18164.55469-.49121.979-.92773,1.27197-.4375.29346-.9707.43994-1.60059.43994-.73535,0-1.33008-.229-1.78418-.68799-.45312-.4585-.67969-1.08252-.67969-1.87207V3.5517h1.3125v5.48779c0,.51221.13281.91504.39941,1.20801.2666.29346.64062.44043,1.12012.44043.62891,0,1.125-.21875,1.48828-.65625.3623-.43701.54395-1.05029.54395-1.83984V3.5517h1.32812v8Z"/><path class="uuid-c4b3419d-6d88-4efa-8b40-996a1fe063db" d="M214.87109,11.5517V3.5517h1.04004l.17578,2.04785c.14941-.67188.45898-1.21289.92773-1.62402.46973-.41016,1.00879-.61572,1.61621-.61572.0752,0,.15234.00537.23242.01611s.15723.02148.23145.03174l-.08008,1.37598c-.06348-.01025-.1543-.021-.27148-.03174s-.24023-.01611-.36816-.01611c-.66113,0-1.19141.25049-1.5918.75195s-.59961,1.17334-.59961,2.01611v4.04785h-1.3125Z"/><path class="uuid-c4b3419d-6d88-4efa-8b40-996a1fe063db" d="M221.52734.15961c.2666,0,.49023.09082.67188.27197.18164.18164.27148.41064.27148.68799,0,.27783-.08984.50684-.27148.68799-.18164.18164-.40527.27197-.67188.27197s-.49121-.09033-.67188-.27197c-.18164-.18115-.27246-.41016-.27246-.68799,0-.27734.09082-.50635.27246-.68799.18066-.18115.40527-.27197.67188-.27197ZM220.87109,11.5517V3.5517h1.3125v8h-1.3125Z"/><path class="uuid-c4b3419d-6d88-4efa-8b40-996a1fe063db" d="M227.99121,10.70355c.50098,0,.91211-.12256,1.23145-.36768.32031-.24561.53906-.6084.65625-1.08838l1.13574.32031c-.16992.7041-.5166,1.24268-1.04004,1.61572-.52246.37354-1.18359.56006-1.9834.56006-1.12012,0-1.99512-.3623-2.62402-1.08789-.62988-.7251-.94434-1.74902-.94434-3.07178,0-1.29053.32227-2.31738.96777-3.08008s1.5127-1.14404,2.60059-1.14404c.94922,0,1.7041.30664,2.26367.91992.56055.61328.83984,1.42676.83984,2.43994,0,.20264-.01562.3999-.04785.5918-.03223.19238-.06934.35205-.11133.48047h-5.24805c.03125.92773.24805,1.64551.64746,2.15186.40039.50684.95215.75977,1.65625.75977ZM227.95898,4.36762c-.62988,0-1.13867.21338-1.52832.64014-.38867.42676-.62598,1.03467-.71191,1.82373h4.06445c.01074-.05322.01562-.10889.01562-.16797v-.24805c0-.60791-.16797-1.10107-.50391-1.47998-.33594-.37842-.78125-.56787-1.33594-.56787Z"/><path class="uuid-c4b3419d-6d88-4efa-8b40-996a1fe063db" d="M235.68652,11.74359c-.85352,0-1.56543-.19727-2.13574-.5918s-.91504-.93311-1.03223-1.61621l1.2002-.33594c.06445.44824.28027.81592.64844,1.104s.80762.43213,1.31934.43213c.55469,0,.98438-.10938,1.28809-.32812.30469-.21826.45605-.53027.45605-.93604,0-.34131-.12012-.61328-.35938-.81592-.24023-.20264-.76562-.39453-1.57617-.57617-.53418-.11719-.92578-.22363-1.17578-.31982-.25098-.09619-.4668-.20264-.64844-.31982-.2666-.19238-.4668-.42676-.59961-.7041-.13379-.27734-.2002-.60254-.2002-.97607,0-.7251.25781-1.30664.77539-1.74414.51758-.43701,1.19238-.65576,2.02441-.65576.87402,0,1.55469.18945,2.04004.56787.48535.37891.77051.93066.85547,1.65625l-1.23145.17578c-.04297-.44824-.20605-.79199-.48828-1.03223-.28223-.23975-.6748-.35986-1.17578-.35986-.49121,0-.875.11475-1.15234.34424s-.41602.54639-.41602.95166c0,.33105.11719.59473.35254.79199.23438.19775.75195.38184,1.55176.55225.54395.11768.94434.22168,1.2002.31201.25586.09082.47461.19971.65625.32812.26562.19189.46582.4292.59961.71191.13281.28271.2002.62158.2002,1.01611,0,.7251-.27246,1.30127-.81641,1.72754-.54395.42676-1.26367.64014-2.16016.64014Z"/><path class="uuid-c4b3419d-6d88-4efa-8b40-996a1fe063db" d="M244.83887,3.5517h.97559l.16016,1.53613c.14941-.49072.46191-.90137.93652-1.23193s1.00488-.49609,1.5918-.49609c1.05566,0,1.87988.37354,2.47168,1.12012.59277.74658.88867,1.77051.88867,3.07178,0,1.2373-.31543,2.24561-.94434,3.02393-.62988.77881-1.46191,1.16797-2.49609,1.16797-.5332,0-1.00586-.11475-1.41602-.34375-.41113-.22949-.69629-.53613-.85547-.91992v4.23975h-1.3125V3.5517ZM248.23047,4.41547c-.60742,0-1.10645.23242-1.49512.69629-.38965.46387-.58398,1.09082-.58398,1.87988v1.42383c0,.7041.19434,1.26172.58398,1.67236.38867.41064.8877.61572,1.49512.61572.71484,0,1.27734-.27734,1.68848-.83203.41016-.5542.61621-1.32764.61621-2.31982,0-1.02393-.19727-1.80273-.5918-2.33594-.39551-.5332-.96582-.80029-1.71289-.80029Z"/><path class="uuid-c4b3419d-6d88-4efa-8b40-996a1fe063db" d="M257.09473,10.70355c.50098,0,.91211-.12256,1.23145-.36768.32031-.24561.53906-.6084.65625-1.08838l1.13574.32031c-.16992.7041-.5166,1.24268-1.04004,1.61572-.52246.37354-1.18359.56006-1.9834.56006-1.12012,0-1.99512-.3623-2.62402-1.08789-.62988-.7251-.94434-1.74902-.94434-3.07178,0-1.29053.32227-2.31738.96777-3.08008s1.5127-1.14404,2.60059-1.14404c.94922,0,1.7041.30664,2.26367.91992.56055.61328.83984,1.42676.83984,2.43994,0,.20264-.01562.3999-.04785.5918-.03223.19238-.06934.35205-.11133.48047h-5.24805c.03125.92773.24805,1.64551.64746,2.15186.40039.50684.95215.75977,1.65625.75977ZM257.0625,4.36762c-.62988,0-1.13867.21338-1.52832.64014-.38867.42676-.62598,1.03467-.71191,1.82373h4.06445c.01074-.05322.01562-.10889.01562-.16797v-.24805c0-.60791-.16797-1.10107-.50391-1.47998-.33594-.37842-.78125-.56787-1.33594-.56787Z"/><path class="uuid-c4b3419d-6d88-4efa-8b40-996a1fe063db" d="M262.42285,11.5517V3.5517h1.04004l.17578,2.04785c.14941-.67188.45801-1.21289.92773-1.62402.46973-.41016,1.00781-.61572,1.61621-.61572.07422,0,.15137.00537.23145.01611s.15723.02148.23242.03174l-.08008,1.37598c-.06445-.01025-.1543-.021-.27246-.03174-.11719-.01074-.23926-.01611-.36719-.01611-.66211,0-1.19238.25049-1.59277.75195-.39941.50146-.59961,1.17334-.59961,2.01611v4.04785h-1.31152Z"/><path class="uuid-c4b3419d-6d88-4efa-8b40-996a1fe063db" d="M188.60742,18.67182v10.87988h-1.32812v-9.2002l-2.67188.73633v-1.24805l4-1.16797Z"/><path class="uuid-c4b3419d-6d88-4efa-8b40-996a1fe063db" d="M191.16797,24.20746c0-1.67432.35449-3.01562,1.06348-4.02393.70898-1.00781,1.67188-1.51172,2.8877-1.51172,1.2168,0,2.17871.50391,2.88867,1.51172.70898,1.0083,1.06348,2.34961,1.06348,4.02393,0,1.6748-.35449,3.01611-1.06348,4.02441-.70996,1.00781-1.67188,1.51172-2.88867,1.51172-1.21582,0-2.17871-.50391-2.8877-1.51172-.70898-1.0083-1.06348-2.34961-1.06348-4.02441ZM192.52734,24.20746c0,1.4082.22461,2.49365.67188,3.25635.44824.7627,1.08789,1.14404,1.91992,1.14404s1.47266-.38135,1.9209-1.14404c.44727-.7627.67188-1.84814.67188-3.25635,0-1.40771-.22461-2.49316-.67188-3.25586-.44824-.76221-1.08887-1.14404-1.9209-1.14404s-1.47168.38184-1.91992,1.14404c-.44727.7627-.67188,1.84814-.67188,3.25586Z"/><path class="uuid-c4b3419d-6d88-4efa-8b40-996a1fe063db" d="M200.76758,24.20746c0-1.67432.35449-3.01562,1.06348-4.02393.70898-1.00781,1.67188-1.51172,2.8877-1.51172,1.2168,0,2.17871.50391,2.88867,1.51172.70898,1.0083,1.06348,2.34961,1.06348,4.02393,0,1.6748-.35449,3.01611-1.06348,4.02441-.70996,1.00781-1.67188,1.51172-2.88867,1.51172-1.21582,0-2.17871-.50391-2.8877-1.51172-.70898-1.0083-1.06348-2.34961-1.06348-4.02441ZM202.12695,24.20746c0,1.4082.22461,2.49365.67188,3.25635.44824.7627,1.08789,1.14404,1.91992,1.14404s1.47266-.38135,1.9209-1.14404c.44727-.7627.67188-1.84814.67188-3.25635,0-1.40771-.22461-2.49316-.67188-3.25586-.44824-.76221-1.08887-1.14404-1.9209-1.14404s-1.47168.38184-1.91992,1.14404c-.44727.7627-.67188,1.84814-.67188,3.25586Z"/><path class="uuid-c4b3419d-6d88-4efa-8b40-996a1fe063db" d="M216.94238,27.98383l1.66406-6.43213h1.18457l1.66406,6.43213h.03125l1.66406-6.43213h1.26465l-2.27246,8h-1.2793l-1.66406-6.3042h-.03223l-1.66406,6.3042h-1.28027l-2.27148-8h1.2959l1.66406,6.43213h.03125Z"/><path class="uuid-c4b3419d-6d88-4efa-8b40-996a1fe063db" d="M229.2627,21.3598c1.09863,0,1.9707.37354,2.61621,1.12012s.96777,1.77051.96777,3.07178-.32227,2.32568-.96777,3.07178c-.64551.74707-1.51758,1.12012-2.61621,1.12012s-1.9707-.37305-2.61621-1.12012c-.64551-.74609-.96777-1.77051-.96777-3.07178s.32227-2.3252.96777-3.07178,1.51758-1.12012,2.61621-1.12012ZM229.2627,28.71967c.73633,0,1.2959-.26904,1.68066-.80811.38379-.53857.5752-1.3252.5752-2.35986s-.19141-1.82129-.5752-2.35986c-.38477-.53857-.94434-.80811-1.68066-.80811-.73535,0-1.2959.26953-1.67969.80811s-.57617,1.3252-.57617,2.35986.19238,1.82129.57617,2.35986c.38379.53906.94434.80811,1.67969.80811Z"/><path class="uuid-c4b3419d-6d88-4efa-8b40-996a1fe063db" d="M235.08691,29.5517v-8h1.04004l.17578,2.04785c.14941-.67188.45898-1.21289.92773-1.62402.46973-.41016,1.00879-.61572,1.61621-.61572.0752,0,.15234.00537.23242.01611s.15723.02148.23145.03174l-.08008,1.37598c-.06348-.01025-.1543-.021-.27148-.03174s-.24023-.01611-.36816-.01611c-.66113,0-1.19141.25049-1.5918.75195s-.59961,1.17334-.59961,2.01611v4.04785h-1.3125Z"/><path class="uuid-c4b3419d-6d88-4efa-8b40-996a1fe063db" d="M247.53516,21.5517l-3.34375,3.64795,3.66309,4.35205h-1.64746l-3.13574-3.74414h-.67188v3.74414h-1.3125v-11.55176h1.3125v6.76758h.70312l2.88086-3.21582h1.55176Z"/><path class="uuid-c4b3419d-6d88-4efa-8b40-996a1fe063db" d="M252.38281,28.70355c.50098,0,.91211-.12256,1.23145-.36768.32031-.24561.53906-.6084.65625-1.08838l1.13574.32031c-.16992.7041-.5166,1.24268-1.04004,1.61572-.52246.37354-1.18359.56006-1.9834.56006-1.12012,0-1.99512-.3623-2.62402-1.08789-.62988-.7251-.94434-1.74902-.94434-3.07178,0-1.29053.32227-2.31738.96777-3.08008s1.5127-1.14404,2.60059-1.14404c.94922,0,1.7041.30664,2.26367.91992.56055.61328.83984,1.42676.83984,2.43994,0,.20264-.01562.3999-.04785.5918-.03223.19238-.06934.35205-.11133.48047h-5.24805c.03125.92773.24805,1.64551.64746,2.15186.40039.50684.95215.75977,1.65625.75977ZM252.35059,22.36762c-.62988,0-1.13867.21338-1.52832.64014-.38867.42676-.62598,1.03467-.71191,1.82373h4.06445c.01074-.05322.01562-.10889.01562-.16797v-.24805c0-.60791-.16797-1.10107-.50391-1.47998-.33594-.37842-.78125-.56787-1.33594-.56787Z"/><path class="uuid-c4b3419d-6d88-4efa-8b40-996a1fe063db" d="M257.71094,29.5517v-8h1.04004l.17578,2.04785c.14941-.67188.45801-1.21289.92773-1.62402.46973-.41016,1.00781-.61572,1.61621-.61572.07422,0,.15137.00537.23145.01611s.15723.02148.23242.03174l-.08008,1.37598c-.06445-.01025-.1543-.021-.27246-.03174-.11719-.01074-.23926-.01611-.36719-.01611-.66211,0-1.19238.25049-1.59277.75195-.39941.50146-.59961,1.17334-.59961,2.01611v4.04785h-1.31152Z"/><path class="uuid-c4b3419d-6d88-4efa-8b40-996a1fe063db" d="M266.07812,29.74359c-.85352,0-1.56543-.19727-2.13574-.5918s-.91504-.93311-1.03223-1.61621l1.2002-.33594c.06445.44824.28027.81592.64844,1.104s.80762.43213,1.31934.43213c.55469,0,.98438-.10938,1.28809-.32812.30469-.21826.45605-.53027.45605-.93604,0-.34131-.12012-.61328-.35938-.81592-.24023-.20264-.76562-.39453-1.57617-.57617-.53418-.11719-.92578-.22363-1.17578-.31982-.25098-.09619-.4668-.20264-.64844-.31982-.2666-.19238-.4668-.42676-.59961-.7041-.13379-.27734-.2002-.60254-.2002-.97607,0-.7251.25781-1.30664.77539-1.74414.51758-.43701,1.19238-.65576,2.02441-.65576.87402,0,1.55469.18945,2.04004.56787.48535.37891.77051.93066.85547,1.65625l-1.23145.17578c-.04297-.44824-.20605-.79199-.48828-1.03223-.28223-.23975-.6748-.35986-1.17578-.35986-.49121,0-.875.11475-1.15234.34424s-.41602.54639-.41602.95166c0,.33105.11719.59473.35254.79199.23438.19775.75195.38184,1.55176.55225.54395.11768.94434.22168,1.2002.31201.25586.09082.47461.19971.65625.32812.26562.19189.46582.4292.59961.71191.13281.28271.2002.62158.2002,1.01611,0,.7251-.27246,1.30127-.81641,1.72754-.54395.42676-1.26367.64014-2.16016.64014Z"/></svg>