<?xml version="1.0" encoding="UTF-8"?><svg id="uuid-b0ba4990-c965-4258-8968-bb6a60faa113" xmlns="http://www.w3.org/2000/svg" viewBox="0 0 300 168.50749"><defs><style>.uuid-287003d1-3980-4711-a354-f33e18868cfe{fill:#947594;}.uuid-287003d1-3980-4711-a354-f33e18868cfe,.uuid-0b6be572-c943-4bbf-89a1-8ea977fa6e52,.uuid-5c042244-aa48-42dd-a086-31fc9d0a1b91{stroke-width:0px;}.uuid-0b6be572-c943-4bbf-89a1-8ea977fa6e52{fill:#e03995;}.uuid-5c042244-aa48-42dd-a086-31fc9d0a1b91{fill:#bc82a9;}.uuid-074a23bc-11f4-48f4-947a-354877d30cb7{stroke:#e03995;}.uuid-074a23bc-11f4-48f4-947a-354877d30cb7,.uuid-97b250d8-4a6d-40d4-8cf3-40a77004842f{stroke-linecap:round;stroke-linejoin:round;stroke-width:2px;}.uuid-074a23bc-11f4-48f4-947a-354877d30cb7,.uuid-97b250d8-4a6d-40d4-8cf3-40a77004842f,.uuid-0b6a713d-c03c-4cde-beb2-b46fc516a4ad{fill:none;}.uuid-97b250d8-4a6d-40d4-8cf3-40a77004842f{stroke:#bc82a9;}.uuid-0b6a713d-c03c-4cde-beb2-b46fc516a4ad{stroke:#967e96;stroke-miterlimit:10;stroke-width:.5px;}</style></defs><line class="uuid-0b6a713d-c03c-4cde-beb2-b46fc516a4ad" x1="181.17424" y1="151.82936" x2="181.17424" y2="20.30545"/><line class="uuid-0b6a713d-c03c-4cde-beb2-b46fc516a4ad" y1="151.82936" x2="308.66998" y2="151.82936"/><polyline class="uuid-97b250d8-4a6d-40d4-8cf3-40a77004842f" points="35.11424 50.8402 81.4049 67.03035 104.55024 74.79637 127.69556 76.77077 173.98622 93.7507 197.13155 87.69584 220.27689 98.75254 243.42222 103.62274 266.56754 116.12734 289.71289 127.31566"/><polyline class="uuid-074a23bc-11f4-48f4-947a-354877d30cb7" points="35.11424 36.8877 81.4049 41.09977 104.55024 38.59885 127.69556 50.70856 173.98622 79.92983 197.13155 84.27353 220.27689 102.70135 243.42222 107.30831 266.56754 120.60267 289.71289 131.13285"/><path class="uuid-287003d1-3980-4711-a354-f33e18868cfe" d="M30.89544,155.83215v10.87988h-1.32715v-9.2002l-2.67285.73633v-1.24805l4-1.16797Z"/><path class="uuid-287003d1-3980-4711-a354-f33e18868cfe" d="M40.94427,163.89563c0,.91797-.34375,1.64844-1.03223,2.19238-.6875.54395-1.59766.81641-2.72754.81641-1.13086,0-2.04004-.27246-2.72852-.81641-.6875-.54395-1.03125-1.27441-1.03125-2.19238,0-.61816.20215-1.16992.60742-1.65527s.93848-.81836,1.60059-1v-.03223c-.58691-.18164-1.03809-.49023-1.35254-.92773s-.47168-.9707-.47168-1.60059c0-.85254.30859-1.54102.92773-2.06348.61816-.52246,1.43457-.78418,2.44824-.78418,1.0127,0,1.8291.26172,2.44824.78418.61816.52246.92773,1.21094.92773,2.06348,0,.62988-.15723,1.16309-.47168,1.60059-.31543.4375-.76562.74609-1.35254.92773v.03223c.66113.18164,1.19434.51465,1.59961,1s.6084,1.03711.6084,1.65527ZM39.61615,163.83215c0-.63965-.21875-1.1416-.65625-1.50391s-1.0293-.54395-1.77539-.54395c-.74707,0-1.33887.18164-1.77637.54395s-.65625.86426-.65625,1.50391.2168,1.13867.64844,1.49609,1.02637.53613,1.78418.53613c.75684,0,1.35156-.17871,1.78418-.53613.43164-.35742.64746-.85645.64746-1.49609ZM35.0888,158.75989c0,.6084.18555,1.08008.55957,1.41602.37305.33594.88477.50391,1.53613.50391.65039,0,1.16211-.16797,1.53613-.50391.37305-.33594.55957-.80762.55957-1.41602,0-.60742-.18359-1.07715-.55176-1.4082-.36816-.33008-.88281-.49609-1.54395-.49609-.66211,0-1.17578.16602-1.54395.49609-.36816.33105-.55176.80078-.55176,1.4082Z"/><path class="uuid-287003d1-3980-4711-a354-f33e18868cfe" d="M50.09564,163.89563c0,.91797-.34375,1.64844-1.03223,2.19238-.6875.54395-1.59766.81641-2.72754.81641-1.13086,0-2.04004-.27246-2.72852-.81641-.6875-.54395-1.03125-1.27441-1.03125-2.19238,0-.61816.20215-1.16992.60742-1.65527s.93848-.81836,1.60059-1v-.03223c-.58691-.18164-1.03809-.49023-1.35254-.92773s-.47168-.9707-.47168-1.60059c0-.85254.30859-1.54102.92773-2.06348.61816-.52246,1.43457-.78418,2.44824-.78418,1.0127,0,1.8291.26172,2.44824.78418.61816.52246.92773,1.21094.92773,2.06348,0,.62988-.15723,1.16309-.47168,1.60059-.31543.4375-.76562.74609-1.35254.92773v.03223c.66113.18164,1.19434.51465,1.59961,1s.6084,1.03711.6084,1.65527ZM48.76751,163.83215c0-.63965-.21875-1.1416-.65625-1.50391s-1.0293-.54395-1.77539-.54395c-.74707,0-1.33887.18164-1.77637.54395s-.65625.86426-.65625,1.50391.2168,1.13867.64844,1.49609,1.02637.53613,1.78418.53613c.75684,0,1.35156-.17871,1.78418-.53613.43164-.35742.64746-.85645.64746-1.49609ZM44.24017,158.75989c0,.6084.18555,1.08008.55957,1.41602.37305.33594.88477.50391,1.53613.50391.65039,0,1.16211-.16797,1.53613-.50391.37305-.33594.55957-.80762.55957-1.41602,0-.60742-.18359-1.07715-.55176-1.4082-.36816-.33008-.88281-.49609-1.54395-.49609-.66211,0-1.17578.16602-1.54395.49609-.36816.33105-.55176.80078-.55176,1.4082Z"/><path class="uuid-287003d1-3980-4711-a354-f33e18868cfe" d="M51.75872,161.36828c0-1.6748.35449-3.0166,1.06445-4.02441.70898-1.00781,1.67188-1.51172,2.8877-1.51172s2.17871.50391,2.88867,1.51172c.70898,1.00781,1.06348,2.34961,1.06348,4.02441s-.35449,3.01562-1.06348,4.02344c-.70996,1.00879-1.67285,1.5127-2.88867,1.5127s-2.17871-.50391-2.8877-1.5127c-.70996-1.00781-1.06445-2.34863-1.06445-4.02344ZM53.11908,161.36828c0,1.4082.22363,2.49316.67188,3.25586s1.08789,1.14355,1.91992,1.14355,1.47266-.38086,1.91992-1.14355c.44824-.7627.67188-1.84766.67188-3.25586s-.22363-2.49316-.67188-3.25586c-.44727-.7627-1.08789-1.14453-1.91992-1.14453s-1.47168.38184-1.91992,1.14453-.67188,1.84766-.67188,3.25586Z"/><path class="uuid-287003d1-3980-4711-a354-f33e18868cfe" d="M169.76751,155.83215v10.87988h-1.32715v-9.2002l-2.67285.73633v-1.24805l4-1.16797Z"/><path class="uuid-287003d1-3980-4711-a354-f33e18868cfe" d="M175.52728,166.90442c-.78906,0-1.45605-.18164-2-.54395-.54395-.36328-.94922-.90137-1.21582-1.61621l1.12012-.52832c.16992.50195.4375.89062.7998,1.16797s.79492.41602,1.2959.41602c.93848,0,1.67969-.43164,2.22461-1.2959.54395-.86426.81543-2.01074.81543-3.44043v-.35156h-.04785c-.19238.63965-.5498,1.14941-1.07227,1.52832s-1.13574.56738-1.83984.56738c-1.00293,0-1.80762-.31934-2.41602-.95996-.6084-.63965-.91211-1.47168-.91211-2.49609,0-1.02344.3252-1.86621.97656-2.52734.65039-.66113,1.50391-.99219,2.55957-.99219.69336,0,1.30957.14941,1.84766.44824.53906.29883.97852.73535,1.32031,1.31152.2666.44824.4668.96289.59961,1.54395.13379.58203.2002,1.22461.2002,1.92773,0,1.76074-.38672,3.17383-1.16016,4.24023-.77344,1.06738-1.80469,1.60059-3.0957,1.60059ZM175.89544,156.93567c-.69336,0-1.25879.21875-1.69629.65625s-.65527,1.01367-.65527,1.72852c0,.71387.21777,1.28809.65527,1.71973s1.00293.64746,1.69629.64746c.67188,0,1.22168-.21777,1.64844-.65527.42578-.4375.63965-1.00879.63965-1.71191,0-.7041-.21387-1.27734-.63965-1.7207-.42676-.44238-.97656-.66406-1.64844-.66406Z"/><path class="uuid-287003d1-3980-4711-a354-f33e18868cfe" d="M187.19134,166.71203h-1.2793v-3.23242h-4.83203v-1.08789l4.78418-6.36816h1.32715v6.41602h2.25684v1.04004h-2.25684v3.23242ZM185.91204,157.70422h-.06445l-3.43945,4.67188v.06348h3.50391v-4.73535Z"/><path class="uuid-287003d1-3980-4711-a354-f33e18868cfe" d="M190.71185,161.36828c0-1.6748.35449-3.0166,1.06445-4.02441.70898-1.00781,1.67188-1.51172,2.8877-1.51172s2.17871.50391,2.88867,1.51172c.70898,1.00781,1.06348,2.34961,1.06348,4.02441s-.35449,3.01562-1.06348,4.02344c-.70996,1.00879-1.67285,1.5127-2.88867,1.5127s-2.17871-.50391-2.8877-1.5127c-.70996-1.00781-1.06445-2.34863-1.06445-4.02344ZM192.0722,161.36828c0,1.4082.22363,2.49316.67188,3.25586s1.08789,1.14355,1.91992,1.14355,1.47266-.38086,1.91992-1.14355c.44824-.7627.67188-1.84766.67188-3.25586s-.22363-2.49316-.67188-3.25586c-.44727-.7627-1.08789-1.14453-1.91992-1.14453s-1.47168.38184-1.91992,1.14453-.67188,1.84766-.67188,3.25586Z"/><path class="uuid-287003d1-3980-4711-a354-f33e18868cfe" d="M262.34857,155.83215v10.87988h-1.32715v-9.2002l-2.67285.73633v-1.24805l4-1.16797Z"/><path class="uuid-287003d1-3980-4711-a354-f33e18868cfe" d="M268.10931,166.90442c-.78906,0-1.45605-.18164-2-.54395-.54395-.36328-.94922-.90137-1.21582-1.61621l1.12012-.52832c.16992.50195.4375.89062.7998,1.16797s.79492.41602,1.2959.41602c.93848,0,1.67969-.43164,2.22461-1.2959.54395-.86426.81543-2.01074.81543-3.44043v-.35156h-.04785c-.19238.63965-.5498,1.14941-1.07227,1.52832s-1.13574.56738-1.83984.56738c-1.00293,0-1.80762-.31934-2.41602-.95996-.6084-.63965-.91211-1.47168-.91211-2.49609,0-1.02344.3252-1.86621.97656-2.52734.65039-.66113,1.50391-.99219,2.55957-.99219.69336,0,1.30957.14941,1.84766.44824.53906.29883.97852.73535,1.32031,1.31152.2666.44824.4668.96289.59961,1.54395.13379.58203.2002,1.22461.2002,1.92773,0,1.76074-.38672,3.17383-1.16016,4.24023-.77344,1.06738-1.80469,1.60059-3.0957,1.60059ZM268.47747,156.93567c-.69336,0-1.25879.21875-1.69629.65625s-.65527,1.01367-.65527,1.72852c0,.71387.21777,1.28809.65527,1.71973s1.00293.64746,1.69629.64746c.67188,0,1.22168-.21777,1.64844-.65527.42578-.4375.63965-1.00879.63965-1.71191,0-.7041-.21387-1.27734-.63965-1.7207-.42676-.44238-.97656-.66406-1.64844-.66406Z"/><path class="uuid-287003d1-3980-4711-a354-f33e18868cfe" d="M281.54876,163.89563c0,.91797-.34375,1.64844-1.03223,2.19238-.6875.54395-1.59766.81641-2.72754.81641-1.13086,0-2.04004-.27246-2.72852-.81641-.6875-.54395-1.03125-1.27441-1.03125-2.19238,0-.61816.20215-1.16992.60742-1.65527s.93848-.81836,1.60059-1v-.03223c-.58691-.18164-1.03809-.49023-1.35254-.92773s-.47168-.9707-.47168-1.60059c0-.85254.30859-1.54102.92773-2.06348.61816-.52246,1.43457-.78418,2.44824-.78418,1.0127,0,1.8291.26172,2.44824.78418.61816.52246.92773,1.21094.92773,2.06348,0,.62988-.15723,1.16309-.47168,1.60059-.31543.4375-.76562.74609-1.35254.92773v.03223c.66113.18164,1.19434.51465,1.59961,1s.6084,1.03711.6084,1.65527ZM280.22064,163.83215c0-.63965-.21875-1.1416-.65625-1.50391s-1.0293-.54395-1.77539-.54395c-.74707,0-1.33887.18164-1.77637.54395s-.65625.86426-.65625,1.50391.2168,1.13867.64844,1.49609,1.02637.53613,1.78418.53613c.75684,0,1.35156-.17871,1.78418-.53613.43164-.35742.64746-.85645.64746-1.49609ZM275.69329,158.75989c0,.6084.18555,1.08008.55957,1.41602.37305.33594.88477.50391,1.53613.50391.65039,0,1.16211-.16797,1.53613-.50391.37305-.33594.55957-.80762.55957-1.41602,0-.60742-.18359-1.07715-.55176-1.4082-.36816-.33008-.88281-.49609-1.54395-.49609-.66211,0-1.17578.16602-1.54395.49609-.36816.33105-.55176.80078-.55176,1.4082Z"/><path class="uuid-287003d1-3980-4711-a354-f33e18868cfe" d="M283.21185,161.36828c0-1.6748.35449-3.0166,1.06445-4.02441.70898-1.00781,1.67188-1.51172,2.8877-1.51172s2.17871.50391,2.88867,1.51172c.70898,1.00781,1.06348,2.34961,1.06348,4.02441s-.35449,3.01562-1.06348,4.02344c-.70996,1.00879-1.67285,1.5127-2.88867,1.5127s-2.17871-.50391-2.8877-1.5127c-.70996-1.00781-1.06445-2.34863-1.06445-4.02344ZM284.5722,161.36828c0,1.4082.22363,2.49316.67188,3.25586s1.08789,1.14355,1.91992,1.14355,1.47266-.38086,1.91992-1.14355c.44824-.7627.67188-1.84766.67188-3.25586s-.22363-2.49316-.67188-3.25586c-.44727-.7627-1.08789-1.14453-1.91992-1.14453s-1.47168.38184-1.91992,1.14453-.67188,1.84766-.67188,3.25586Z"/><path class="uuid-0b6be572-c943-4bbf-89a1-8ea977fa6e52" d="M143.90619,40.5509c0,.64014-.18359,1.18164-.55176,1.62402-.36816.44287-.85059.71777-1.44824.82422v.03174c.74707.08594,1.32031.33887,1.71973.76025.40039.42139.60059.98389.60059,1.68799,0,.94922-.30957,1.68018-.92773,2.19189-.61914.51221-1.50977.76807-2.67285.76807h-3.82324v-10.68799h3.69531c1.09863,0,1.94141.23975,2.52832.72021.58691.47998.87988,1.17334.87988,2.07959ZM140.40228,38.88733h-2.27148v3.66357h2.27148c.68262,0,1.20508-.1543,1.56836-.46387.3623-.30908.54395-.76221.54395-1.35986,0-.59717-.17871-1.05322-.53613-1.36816-.35742-.31445-.88281-.47168-1.57617-.47168ZM140.57806,43.65491h-2.44727v3.68018h2.44727c.74707,0,1.31738-.15723,1.71191-.47217.39453-.31445.59277-.77051.59277-1.36768s-.19824-1.05322-.59277-1.36816c-.39453-.31445-.96484-.47217-1.71191-.47217Z"/><path class="uuid-0b6be572-c943-4bbf-89a1-8ea977fa6e52" d="M148.32122,47.52698c.12891,0,.25391-.01855.37695-.05566.12207-.0376.23633-.09326.34375-.16846l.14355,1.0083c-.14941.08545-.33594.1543-.55957.20801-.22461.05322-.44336.08008-.65625.08008-.55469,0-.97363-.1416-1.25586-.42432-.2832-.28223-.42383-.6958-.42383-1.23975v-10.04785h1.31152v9.90381c0,.25586.05859.44287.17578.56006s.29883.17578.54395.17578Z"/><path class="uuid-0b6be572-c943-4bbf-89a1-8ea977fa6e52" d="M153.6972,40.24719c.88574,0,1.5625.21045,2.03223.63184s.7041,1.03223.7041,1.83203v4.16016c0,.23486.04785.41064.14453.52783.0957.11768.24512.17627.44727.17627.08594,0,.17578-.01611.27246-.04834.0957-.03174.16992-.07422.22363-.12793l.08008.97607c-.0957.06396-.22656.11719-.3916.16016-.16602.04248-.32812.06396-.48828.06396-.29883,0-.55762-.06152-.77637-.18408s-.38672-.30127-.50391-.53613c-.04297-.08496-.08203-.17822-.12012-.27979-.03711-.10156-.06641-.21631-.08789-.34424-.14941.41602-.4375.74707-.86328.99219-.42676.24512-.91211.36768-1.45605.36768-.74707,0-1.34766-.20508-1.80078-.61572s-.67969-.95752-.67969-1.64014c0-.83203.34375-1.47168,1.03223-1.91992.6875-.44824,1.68262-.67188,2.9834-.67188.06445,0,.14648.00244.24805.00781s.26953.01367.50391.02393v-.94385c0-.49072-.13574-.86914-.40723-1.13623-.27246-.26611-.66406-.3999-1.17676-.3999-.49023,0-.86914.12305-1.13574.36816-.2666.24561-.41016.60254-.43164,1.07178l-1.28027-.22363c.08496-.7041.39258-1.26123.91992-1.67236.52832-.41016,1.19727-.61572,2.00781-.61572ZM153.21771,47.60705c.59668,0,1.07715-.19189,1.43945-.57617.36328-.38379.54395-.91162.54395-1.58398v-.67188c-.13867-.01025-.27148-.01855-.39941-.02393s-.24609-.00781-.35254-.00781c-.91699,0-1.59961.13037-2.04785.3916-.44727.26172-.67188.65381-.67188,1.17627,0,.40527.13379.72266.40039.95215s.62891.34375,1.08789.34375Z"/><path class="uuid-0b6be572-c943-4bbf-89a1-8ea977fa6e52" d="M162.40228,48.63098c-1.09961,0-1.96875-.37305-2.6084-1.12012-.63965-.74609-.95996-1.77051-.95996-3.07178,0-1.29053.32031-2.31201.95996-3.06396s1.50879-1.12793,2.6084-1.12793c.7998,0,1.46582.22412,2,.67188.5332.44824.8418,1.04004.92773,1.77588l-1.2002.22412c-.04297-.47998-.22168-.87207-.53613-1.17578-.31445-.3042-.71191-.45605-1.19141-.45605-.7041,0-1.25391.27734-1.64844.83203s-.5918,1.32764-.5918,2.31982.19727,1.76562.5918,2.31982c.39453.55469.94434.83203,1.64844.83203.49023,0,.88965-.15186,1.19922-.45605.30957-.30371.48535-.70654.52832-1.20801l1.2002.22412c-.11719.77881-.43164,1.38672-.94434,1.82422-.51172.4375-1.17285.65576-1.9834.65576Z"/><path class="uuid-0b6be572-c943-4bbf-89a1-8ea977fa6e52" d="M173.87396,40.43909l-3.34473,3.64795,3.66406,4.35205h-1.64746l-3.13672-3.74414h-.67188v3.74414h-1.31152v-11.55176h1.31152v6.76758h.7041l2.87988-3.21582h1.55273Z"/><path class="uuid-5c042244-aa48-42dd-a086-31fc9d0a1b91" d="M140.38958,105.28528l2.17578-8.97607h1.42383l2.17676,8.97607h.06348l2.17578-8.97607h1.32812l-2.78418,10.68799h-1.42383l-2.24023-8.84814h-.04785l-2.23926,8.84814h-1.4248l-2.7832-10.68799h1.35938l2.19238,8.97607h.04785Z"/><path class="uuid-5c042244-aa48-42dd-a086-31fc9d0a1b91" d="M151.62103,95.44543h1.31152v4.81592c.24512-.46924.58398-.82959,1.0166-1.08008.43164-.25049.92969-.37598,1.49609-.37598.74609,0,1.34375.23193,1.79199.6958.44727.46387.67188,1.09082.67188,1.87988v5.61621h-1.3125v-5.34473c0-.54395-.13574-.96191-.4082-1.25537-.27148-.29297-.6582-.43994-1.15918-.43994-.66211,0-1.17676.20801-1.54395.62402-.36816.41602-.55273,1.00781-.55273,1.77539v4.64062h-1.31152v-11.55176Z"/><path class="uuid-5c042244-aa48-42dd-a086-31fc9d0a1b91" d="M161.30072,95.6051c.26562,0,.49023.09082.67188.27197.18066.18164.27148.41064.27148.68799,0,.27783-.09082.50684-.27148.68799-.18164.18164-.40625.27197-.67188.27197-.26758,0-.49121-.09033-.67285-.27197-.18066-.18115-.27148-.41016-.27148-.68799,0-.27734.09082-.50635.27148-.68799.18164-.18115.40527-.27197.67285-.27197ZM160.64447,106.99719v-8h1.31152v8h-1.31152Z"/><path class="uuid-5c042244-aa48-42dd-a086-31fc9d0a1b91" d="M167.41204,106.08508c.24512,0,.46387-.0293.65625-.08789s.41016-.16797.65625-.32812l.23926,1.04004c-.23438.14941-.49805.2666-.79199.35156-.29297.08594-.57812.12793-.85547.12793-.76855,0-1.35742-.18945-1.76855-.56738-.41016-.37891-.61523-.92578-.61523-1.64062v-4.97559h-1.15234v-1.00781h1.15234v-1.6958l1.31152-.20801v1.90381h2.40039v1.00781h-2.40039v4.84766c0,.40625.09863.71191.2959.91992s.48828.3125.87207.3125Z"/><path class="uuid-5c042244-aa48-42dd-a086-31fc9d0a1b91" d="M173.89251,106.14856c.50098,0,.91113-.12207,1.23145-.36719.32031-.24609.53906-.6084.65625-1.08887l1.13574.32031c-.1709.7041-.51758,1.24316-1.04004,1.61621s-1.18359.55957-1.9834.55957c-1.12012,0-1.99512-.3623-2.62402-1.08789-.62988-.72461-.94434-1.74902-.94434-3.07129,0-1.29102.32227-2.31738.96777-3.08008s1.51172-1.14404,2.60059-1.14404c.94922,0,1.70312.30664,2.26367.91992.55957.61328.83984,1.42627.83984,2.43994,0,.20215-.01562.39941-.04785.5918s-.06934.35156-.1123.48047h-5.24805c.03223.92773.24805,1.64551.64844,2.15137.39941.50684.95215.75977,1.65625.75977ZM173.86029,99.81311c-.62988,0-1.13867.21338-1.52832.64014s-.62695,1.03418-.71191,1.82324h4.06445c.00977-.05273.01562-.1084.01562-.16797v-.24805c0-.60742-.16797-1.10059-.50391-1.47949-.33594-.37842-.78125-.56787-1.33594-.56787Z"/><path class="uuid-5c042244-aa48-42dd-a086-31fc9d0a1b91" d="M26.05365,70.85657l3.85645-9.50391h-4.65625v1.85596h-1.16797v-3.04004h7.21582v.92822l-3.8877,9.75977h-1.36035Z"/><path class="uuid-5c042244-aa48-42dd-a086-31fc9d0a1b91" d="M34.38958,70.85657l3.85645-9.50391h-4.65625v1.85596h-1.16797v-3.04004h7.21582v.92822l-3.8877,9.75977h-1.36035Z"/><path class="uuid-5c042244-aa48-42dd-a086-31fc9d0a1b91" d="M41.31829,63.00061c0-.88525.21289-1.59717.63965-2.13623.42676-.53809.99707-.80762,1.71191-.80762s1.28516.26953,1.71191.80762c.42676.53906.64062,1.25098.64062,2.13623s-.21387,1.59766-.64062,2.13574c-.42676.53906-.99707.80811-1.71191.80811s-1.28516-.26904-1.71191-.80811c-.42676-.53809-.63965-1.25049-.63965-2.13574ZM44.85443,63.00061c0-.64014-.10156-1.13623-.30469-1.48828-.20215-.35156-.49512-.52783-.87988-.52783-.38379,0-.67676.17627-.87988.52783-.20215.35205-.30371.84814-.30371,1.48828s.10156,1.13574.30371,1.48779c.20312.35205.49609.52832.87988.52832.38477,0,.67773-.17627.87988-.52832.20312-.35205.30469-.84766.30469-1.48779ZM45.19036,70.85657h-1.16797l5.69531-10.68799h1.16895l-5.69629,10.68799ZM48.88665,68.02453c0-.88525.21289-1.59717.63965-2.13574s.99707-.80811,1.71191-.80811,1.28516.26953,1.71191.80811.63965,1.25049.63965,2.13574c0,.88574-.21289,1.59766-.63965,2.13623s-.99707.80762-1.71191.80762-1.28516-.26904-1.71191-.80762-.63965-1.25049-.63965-2.13623ZM52.42181,68.02453c0-.64014-.10156-1.13574-.30371-1.48779-.20312-.35205-.49609-.52832-.87988-.52832s-.67773.17627-.87988.52832c-.20312.35205-.30371.84766-.30371,1.48779s.10059,1.13623.30371,1.48779c.20215.35205.49609.52832.87988.52832s.67676-.17627.87988-.52832c.20215-.35156.30371-.84766.30371-1.48779Z"/><path class="uuid-0b6be572-c943-4bbf-89a1-8ea977fa6e52" d="M31.54974,29.35608c0,.91748-.34375,1.64795-1.03223,2.19189-.6875.54395-1.59766.81592-2.72754.81592-1.13086,0-2.04004-.27197-2.72852-.81592-.6875-.54395-1.03125-1.27441-1.03125-2.19189,0-.61865.20215-1.17041.60742-1.65625.40527-.48486.93848-.81836,1.60059-1v-.03174c-.58691-.18115-1.03809-.49072-1.35254-.92822-.31445-.43701-.47168-.97021-.47168-1.6001,0-.85303.30859-1.54102.92773-2.06396.61816-.52246,1.43457-.78369,2.44824-.78369,1.0127,0,1.8291.26123,2.44824.78369.61816.52295.92773,1.21094.92773,2.06396,0,.62988-.15723,1.16309-.47168,1.6001-.31543.4375-.76562.74707-1.35254.92822v.03174c.66113.18164,1.19434.51514,1.59961,1,.40527.48584.6084,1.0376.6084,1.65625ZM30.22161,29.29211c0-.64014-.21875-1.1416-.65625-1.50391-.4375-.36279-1.0293-.54443-1.77539-.54443-.74707,0-1.33887.18164-1.77637.54443-.4375.3623-.65625.86377-.65625,1.50391,0,.63965.2168,1.13867.64844,1.49609s1.02637.53564,1.78418.53564c.75684,0,1.35156-.17822,1.78418-.53564.43164-.35742.64746-.85645.64746-1.49609ZM25.69427,24.21985c0,.60791.18555,1.08008.55957,1.41602.37305.33594.88477.50391,1.53613.50391.65039,0,1.16211-.16797,1.53613-.50391.37305-.33594.55957-.80811.55957-1.41602s-.18359-1.07715-.55176-1.40771-.88281-.49609-1.54395-.49609c-.66211,0-1.17578.16553-1.54395.49609s-.55176.7998-.55176,1.40771Z"/><path class="uuid-0b6be572-c943-4bbf-89a1-8ea977fa6e52" d="M34.71771,32.172l3.85645-9.50391h-4.65625v1.85596h-1.16797v-3.04004h7.21582v.92822l-3.8877,9.75977h-1.36035Z"/><path class="uuid-0b6be572-c943-4bbf-89a1-8ea977fa6e52" d="M41.64642,24.31604c0-.88525.21289-1.59717.63965-2.13623.42676-.53809.99707-.80762,1.71191-.80762s1.28516.26953,1.71191.80762c.42676.53906.64062,1.25098.64062,2.13623s-.21387,1.59766-.64062,2.13574c-.42676.53906-.99707.80811-1.71191.80811s-1.28516-.26904-1.71191-.80811c-.42676-.53809-.63965-1.25049-.63965-2.13574ZM45.18255,24.31604c0-.64014-.10156-1.13623-.30469-1.48828-.20215-.35156-.49512-.52783-.87988-.52783-.38379,0-.67676.17627-.87988.52783-.20215.35205-.30371.84814-.30371,1.48828s.10156,1.13574.30371,1.48779c.20312.35205.49609.52832.87988.52832.38477,0,.67773-.17627.87988-.52832.20312-.35205.30469-.84766.30469-1.48779ZM45.51849,32.172h-1.16797l5.69531-10.68799h1.16895l-5.69629,10.68799ZM49.21478,29.33996c0-.88525.21289-1.59717.63965-2.13574s.99707-.80811,1.71191-.80811,1.28516.26953,1.71191.80811.63965,1.25049.63965,2.13574c0,.88574-.21289,1.59766-.63965,2.13623s-.99707.80762-1.71191.80762-1.28516-.26904-1.71191-.80762-.63965-1.25049-.63965-2.13623ZM52.74994,29.33996c0-.64014-.10156-1.13574-.30371-1.48779-.20312-.35205-.49609-.52832-.87988-.52832s-.67773.17627-.87988.52832c-.20312.35205-.30371.84766-.30371,1.48779s.10059,1.13623.30371,1.48779c.20215.35205.49609.52832.87988.52832s.67676-.17627.87988-.52832c.20215-.35156.30371-.84766.30371-1.48779Z"/><path class="uuid-5c042244-aa48-42dd-a086-31fc9d0a1b91" d="M273.59759,103.17981v10.87988h-1.32715v-9.2002l-2.67285.73633v-1.24805l4-1.16797Z"/><path class="uuid-5c042244-aa48-42dd-a086-31fc9d0a1b91" d="M279.35736,114.2511c-.78906,0-1.45605-.18066-2-.54395-.54395-.3623-.94922-.90137-1.21582-1.61523l1.12012-.52832c.16992.50098.4375.89062.7998,1.16797s.79492.41602,1.2959.41602c.93848,0,1.67969-.43262,2.22461-1.2959.54395-.86426.81543-2.01074.81543-3.44043v-.35156h-.04785c-.19238.63965-.5498,1.14941-1.07227,1.52734-.52246.37891-1.13574.56836-1.83984.56836-1.00293,0-1.80762-.32031-2.41602-.95996s-.91211-1.47168-.91211-2.49609c0-1.02344.3252-1.86621.97656-2.52832.65039-.66113,1.50391-.99121,2.55957-.99121.69336,0,1.30957.14941,1.84766.44727.53906.29883.97852.73633,1.32031,1.3125.2666.44824.4668.96289.59961,1.54395.13379.58105.2002,1.22363.2002,1.92773,0,1.75977-.38672,3.17383-1.16016,4.24023s-1.80469,1.59961-3.0957,1.59961ZM279.72552,104.28332c-.69336,0-1.25879.21875-1.69629.65625s-.65527,1.01367-.65527,1.72754c0,.71484.21777,1.28809.65527,1.7207.4375.43164,1.00293.64746,1.69629.64746.67188,0,1.22168-.21875,1.64844-.65625.42578-.43652.63965-1.00781.63965-1.71191s-.21387-1.27734-.63965-1.71973c-.42676-.44238-.97656-.66406-1.64844-.66406Z"/><path class="uuid-5c042244-aa48-42dd-a086-31fc9d0a1b91" d="M285.16595,106.20325c0-.88477.21289-1.59668.63965-2.13574.42676-.53809.99707-.80762,1.71191-.80762s1.28516.26953,1.71191.80762c.42676.53906.64062,1.25098.64062,2.13574,0,.88574-.21387,1.59766-.64062,2.13574-.42676.53906-.99707.80859-1.71191.80859s-1.28516-.26953-1.71191-.80859c-.42676-.53809-.63965-1.25-.63965-2.13574ZM288.70208,106.20325c0-.63965-.10156-1.13574-.30469-1.48828-.20215-.35156-.49512-.52734-.87988-.52734-.38379,0-.67676.17578-.87988.52734-.20215.35254-.30371.84863-.30371,1.48828,0,.64062.10156,1.13574.30371,1.48828.20312.35156.49609.52832.87988.52832.38477,0,.67773-.17676.87988-.52832.20312-.35254.30469-.84766.30469-1.48828ZM289.03802,114.05969h-1.16797l5.69531-10.68848h1.16895l-5.69629,10.68848ZM292.73431,111.22766c0-.88574.21289-1.59766.63965-2.13574.42676-.53906.99707-.80859,1.71191-.80859s1.28516.26953,1.71191.80859c.42676.53809.63965,1.25.63965,2.13574s-.21289,1.59766-.63965,2.13574c-.42676.53906-.99707.80762-1.71191.80762s-1.28516-.26855-1.71191-.80762c-.42676-.53809-.63965-1.25-.63965-2.13574ZM296.26947,111.22766c0-.64062-.10156-1.13574-.30371-1.48828-.20312-.35156-.49609-.52832-.87988-.52832s-.67773.17676-.87988.52832c-.20312.35254-.30371.84766-.30371,1.48828,0,.63965.10059,1.13574.30371,1.4873.20215.35254.49609.52832.87988.52832s.67676-.17578.87988-.52832c.20215-.35156.30371-.84766.30371-1.4873Z"/><path class="uuid-0b6be572-c943-4bbf-89a1-8ea977fa6e52" d="M273.48431,135.12903v10.87988h-1.32715v-9.2002l-2.67285.73633v-1.24805l4-1.16797Z"/><path class="uuid-0b6be572-c943-4bbf-89a1-8ea977fa6e52" d="M280.30072,135.12903c.79004,0,1.45605.18066,2,.54395.54492.3623.9502.90137,1.2168,1.61523l-1.12012.52832c-.1709-.50098-.4375-.89062-.7998-1.16797-.36328-.27734-.79492-.41602-1.29688-.41602-.93848,0-1.67969.43164-2.22363,1.2959s-.81543,2.01074-.81543,3.44043v.35156h.04785c.19141-.63965.54883-1.14941,1.07129-1.52734.52246-.37891,1.13672-.56836,1.84082-.56836,1.00195,0,1.80762.32031,2.41602.95996.60742.63965.91113,1.47168.91113,2.49609,0,1.02344-.3252,1.86621-.97559,2.52832-.65039.66113-1.50391.99121-2.55957.99121-.69434,0-1.30957-.14941-1.84863-.44727-.53809-.29883-.97852-.73633-1.31934-1.3125-.26758-.44824-.4668-.96191-.60059-1.54395-.13379-.58105-.2002-1.22363-.2002-1.92773,0-1.75977.38672-3.17383,1.16016-4.24023s1.80566-1.59961,3.0957-1.59961ZM279.93353,145.0968c.69336,0,1.25781-.21875,1.69531-.65625s.65625-1.0127.65625-1.72754-.21875-1.28809-.65625-1.7207c-.4375-.43164-1.00195-.64746-1.69531-.64746-.67188,0-1.22168.21875-1.64844.65625s-.63965,1.00781-.63965,1.71191.21289,1.27734.63965,1.71973.97656.66406,1.64844.66406Z"/><path class="uuid-0b6be572-c943-4bbf-89a1-8ea977fa6e52" d="M285.05365,138.15246c0-.88477.21289-1.59668.63965-2.13574.42676-.53809.99707-.80762,1.71191-.80762s1.28516.26953,1.71191.80762c.42676.53906.64062,1.25098.64062,2.13574,0,.88574-.21387,1.59766-.64062,2.13574-.42676.53906-.99707.80859-1.71191.80859s-1.28516-.26953-1.71191-.80859c-.42676-.53809-.63965-1.25-.63965-2.13574ZM288.58978,138.15246c0-.63965-.10156-1.13574-.30469-1.48828-.20215-.35156-.49512-.52734-.87988-.52734-.38379,0-.67676.17578-.87988.52734-.20215.35254-.30371.84863-.30371,1.48828,0,.64062.10156,1.13574.30371,1.48828.20312.35156.49609.52832.87988.52832.38477,0,.67773-.17676.87988-.52832.20312-.35254.30469-.84766.30469-1.48828ZM288.92572,146.00891h-1.16797l5.69531-10.68848h1.16895l-5.69629,10.68848ZM292.62201,143.17688c0-.88574.21289-1.59766.63965-2.13574.42676-.53906.99707-.80859,1.71191-.80859s1.28516.26953,1.71191.80859c.42676.53809.63965,1.25.63965,2.13574s-.21289,1.59766-.63965,2.13574c-.42676.53906-.99707.80762-1.71191.80762s-1.28516-.26855-1.71191-.80762c-.42676-.53809-.63965-1.25-.63965-2.13574ZM296.15716,143.17688c0-.64062-.10156-1.13574-.30371-1.48828-.20312-.35156-.49609-.52832-.87988-.52832s-.67773.17676-.87988.52832c-.20312.35254-.30371.84766-.30371,1.48828,0,.63965.10059,1.13574.30371,1.4873.20215.35254.49609.52832.87988.52832s.67676-.17578.87988-.52832c.20215-.35156.30371-.84766.30371-1.4873Z"/><circle class="uuid-5c042244-aa48-42dd-a086-31fc9d0a1b91" cx="34.63816" cy="50.8402" r="2.58529"/><circle class="uuid-5c042244-aa48-42dd-a086-31fc9d0a1b91" cx="289.71289" cy="127.31566" r="2.58529"/><circle class="uuid-0b6be572-c943-4bbf-89a1-8ea977fa6e52" cx="289.71289" cy="131.13285" r="2.58529"/><circle class="uuid-0b6be572-c943-4bbf-89a1-8ea977fa6e52" cx="34.63816" cy="36.8877" r="2.58529"/></svg>