<?xml version="1.0" encoding="UTF-8"?><svg id="uuid-cd209194-eded-4516-a89c-03486a468ffd" xmlns="http://www.w3.org/2000/svg" viewBox="0 0 300 168.50749"><defs><style>.uuid-9b9120c6-360f-4cb2-95f8-b8adf7063a05{stroke:#5d395c;stroke-miterlimit:10;stroke-width:.5px;}.uuid-9b9120c6-360f-4cb2-95f8-b8adf7063a05,.uuid-1c6c8ecc-7e0b-4287-b2c6-1d1ef690bafc,.uuid-8469c91a-946c-4af8-a41a-4e325b925f4e{fill:none;}.uuid-1c6c8ecc-7e0b-4287-b2c6-1d1ef690bafc{stroke:#e03995;}.uuid-1c6c8ecc-7e0b-4287-b2c6-1d1ef690bafc,.uuid-8469c91a-946c-4af8-a41a-4e325b925f4e{stroke-linecap:round;stroke-linejoin:round;stroke-width:2px;}.uuid-c889d215-5bd3-45b8-8b1b-761621952c4e{fill:#bc82a9;}.uuid-c889d215-5bd3-45b8-8b1b-761621952c4e,.uuid-ee0863b8-6d9f-4c62-853d-e878ad43ff4f,.uuid-d427904e-99da-4b7c-af97-d80c0a1b9c24{font-family:National2-Regular, 'National 2';font-size:16px;}.uuid-8469c91a-946c-4af8-a41a-4e325b925f4e{stroke:#bc82a9;}.uuid-ee0863b8-6d9f-4c62-853d-e878ad43ff4f{fill:#e03995;}.uuid-d427904e-99da-4b7c-af97-d80c0a1b9c24{fill:#947594;}</style></defs><line class="uuid-9b9120c6-360f-4cb2-95f8-b8adf7063a05" x1="181.17424" y1="151.82936" x2="181.17424" y2="20.30545"/><line class="uuid-9b9120c6-360f-4cb2-95f8-b8adf7063a05" y1="151.82936" x2="294.57418" y2="151.82936"/><line class="uuid-9b9120c6-360f-4cb2-95f8-b8adf7063a05" y1="118.94838" x2="294.57418" y2="118.94838"/><line class="uuid-9b9120c6-360f-4cb2-95f8-b8adf7063a05" y1="86.06741" x2="294.57418" y2="86.06741"/><line class="uuid-9b9120c6-360f-4cb2-95f8-b8adf7063a05" y1="53.18643" x2="294.57418" y2="53.18643"/><line class="uuid-9b9120c6-360f-4cb2-95f8-b8adf7063a05" y1="20.30545" x2="294.57418" y2="20.30545"/><polyline class="uuid-8469c91a-946c-4af8-a41a-4e325b925f4e" points="35.11424 50.8402 81.4049 67.03035 104.55024 74.79637 127.69556 76.77077 173.98622 93.7507 197.13155 87.69584 220.27689 98.75254 243.42222 103.62274 266.56754 116.12734 289.71289 127.31566"/><polyline class="uuid-1c6c8ecc-7e0b-4287-b2c6-1d1ef690bafc" points="35.11424 36.8877 81.4049 41.09977 104.55024 38.59885 127.69556 50.70856 173.98622 79.92983 197.13155 84.27353 220.27689 102.70135 243.42222 107.30831 266.56754 120.60267 289.71289 131.13285"/><text class="uuid-d427904e-99da-4b7c-af97-d80c0a1b9c24" transform="translate(0 148.5807) scale(1.0522 1)"><tspan x="0" y="0">0</tspan></text><text class="uuid-d427904e-99da-4b7c-af97-d80c0a1b9c24" transform="translate(0 115.67347) scale(1.0522 1)"><tspan x="0" y="0">25</tspan></text><text class="uuid-d427904e-99da-4b7c-af97-d80c0a1b9c24" transform="translate(0 82.76722) scale(1.0522 1)"><tspan x="0" y="0">50</tspan></text><text class="uuid-d427904e-99da-4b7c-af97-d80c0a1b9c24" transform="translate(0 49.86) scale(1.0522 1)"><tspan x="0" y="0">75</tspan></text><text class="uuid-d427904e-99da-4b7c-af97-d80c0a1b9c24" transform="translate(0 16.95375) scale(1.0522 1)"><tspan x="0" y="0">100% retired</tspan></text><text class="uuid-d427904e-99da-4b7c-af97-d80c0a1b9c24" transform="translate(26.54388 166.71202)"><tspan x="0" y="0">1880</tspan></text><text class="uuid-d427904e-99da-4b7c-af97-d80c0a1b9c24" transform="translate(165.41595 166.71238)"><tspan x="0" y="0">1940</tspan></text><text class="uuid-d427904e-99da-4b7c-af97-d80c0a1b9c24" transform="translate(257.997 166.71202)"><tspan x="0" y="0">1980</tspan></text><text class="uuid-ee0863b8-6d9f-4c62-853d-e878ad43ff4f" transform="translate(135.31428 48.4392)"><tspan x="0" y="0">Black</tspan></text><text class="uuid-c889d215-5bd3-45b8-8b1b-761621952c4e" transform="translate(136.3094 106.99697)"><tspan x="0" y="0">White</tspan></text></svg>