<?xml version="1.0" encoding="UTF-8"?><svg id="uuid-aa153c1d-c3e1-4f1d-99a0-32c2d777586a" xmlns="http://www.w3.org/2000/svg" viewBox="0 0 300 213.11241"><defs><style>.uuid-be183524-7a2a-4a84-aeae-4eb438eb3c80{fill:#5d395c;}.uuid-be183524-7a2a-4a84-aeae-4eb438eb3c80,.uuid-0e2caded-3f18-4f07-814c-f3b42e627055,.uuid-0acd944e-e5ad-4e38-90e4-8ce1c3e7f746{stroke-width:0px;}.uuid-2434f1b1-848c-4313-8271-f4d27501a24b{fill:none;stroke:#5d395c;stroke-miterlimit:10;stroke-width:.5px;}.uuid-ec2b4392-9d55-4a18-b23a-905a2a7666f6{fill:#231f20;font-size:14px;}.uuid-ec2b4392-9d55-4a18-b23a-905a2a7666f6,.uuid-06a37983-6504-4dfe-a12d-d92ad0099c84{font-family:National2-Regular, 'National 2';}.uuid-0e2caded-3f18-4f07-814c-f3b42e627055{fill:#010101;opacity:0;}.uuid-f18c9742-f0ea-48a7-ad8d-e2c2f041f18d{opacity:.94;}.uuid-0acd944e-e5ad-4e38-90e4-8ce1c3e7f746{fill:#cf78b1;}.uuid-06a37983-6504-4dfe-a12d-d92ad0099c84{fill:#947594;font-size:16px;}</style></defs><g class="uuid-f18c9742-f0ea-48a7-ad8d-e2c2f041f18d"><polygon class="uuid-be183524-7a2a-4a84-aeae-4eb438eb3c80" points="178.32184 170.16239 178.32184 170.16239 256.14741 170.16239 256.14741 170.16239 256.14741 17.88433 256.14741 17.88433 178.32184 17.88433 178.32184 17.88433 178.32184 170.16239"/></g><g class="uuid-f18c9742-f0ea-48a7-ad8d-e2c2f041f18d"><polygon class="uuid-be183524-7a2a-4a84-aeae-4eb438eb3c80" points="57.94415 170.16239 57.94415 170.16239 135.76972 170.16239 135.76972 170.16239 135.76972 17.88433 135.76972 17.88433 57.94415 17.88433 57.94415 17.88433 57.94415 170.16239"/></g><line class="uuid-2434f1b1-848c-4313-8271-f4d27501a24b" x1="-.03624" y1="170.48163" x2="298.69953" y2="170.48163"/><line class="uuid-2434f1b1-848c-4313-8271-f4d27501a24b" x1="-.03624" y1="132.17269" x2="298.69953" y2="132.17269"/><line class="uuid-2434f1b1-848c-4313-8271-f4d27501a24b" x1="-.03624" y1="94.50223" x2="298.69953" y2="94.50223"/><line class="uuid-2434f1b1-848c-4313-8271-f4d27501a24b" x1="-.03624" y1="56.19328" x2="298.69953" y2="56.19328"/><line class="uuid-2434f1b1-848c-4313-8271-f4d27501a24b" x1="-.03624" y1="17.88433" x2="298.69953" y2="17.88433"/><path class="uuid-0e2caded-3f18-4f07-814c-f3b42e627055" d="M135.76972,175.25394v.63848h-.5599v-78.53334c0-.35263-.25068-.63848-.5599-.63848H59.06394c-.30923,0-.5599.28585-.5599.63848v78.53334h-.5599v-.63848h77.82558ZM135.76972,176.5309H57.38425v-79.17182h.5599-.5599c0-1.05788.75202-1.91545,1.67969-1.91545v.63848-.63848h75.58599v.63848-.63848c.92767,0,1.67969.85757,1.67969,1.91545h-.5599.5599v79.17182h-.5599"/><polygon class="uuid-0acd944e-e5ad-4e38-90e4-8ce1c3e7f746" points="57.94415 170.16239 57.94415 170.16239 135.76972 170.16239 135.76972 170.16239 135.76972 90.35209 135.76972 90.35209 57.94415 90.35209 57.94415 90.35209 57.94415 170.16239"/><path class="uuid-0e2caded-3f18-4f07-814c-f3b42e627055" d="M256.14741,175.25394v.63848h-.5599v-33.20109c0-.35263-.25068-.63848-.5599-.63848h-75.58599c-.30922,0-.5599.28585-.5599.63848v33.20109h-.5599v-.63848h77.82558ZM256.14741,176.5309h-78.38547v-33.83957h.5599-.5599c0-1.05788.75202-1.91545,1.67969-1.91545v.63848-.63848h75.58599v.63848-.63848c.92767,0,1.67969.85757,1.67969,1.91545h-.5599.5599v33.83957h-.5599"/><polygon class="uuid-0acd944e-e5ad-4e38-90e4-8ce1c3e7f746" points="178.32184 170.16239 178.32184 170.16239 256.14741 170.16239 256.14741 170.16239 256.14741 135.68434 256.14741 135.68434 178.32184 135.68434 178.32184 135.68434 178.32184 170.16239"/><text class="uuid-06a37983-6504-4dfe-a12d-d92ad0099c84" transform="translate(.82467 166.50176)"><tspan x="0" y="0">0</tspan></text><text class="uuid-06a37983-6504-4dfe-a12d-d92ad0099c84" transform="translate(.82467 128.42754)"><tspan x="0" y="0">25</tspan></text><text class="uuid-06a37983-6504-4dfe-a12d-d92ad0099c84" transform="translate(.82467 90.35284)"><tspan x="0" y="0">50</tspan></text><text class="uuid-06a37983-6504-4dfe-a12d-d92ad0099c84" transform="translate(.82467 52.27813)"><tspan x="0" y="0">75</tspan></text><text class="uuid-06a37983-6504-4dfe-a12d-d92ad0099c84" transform="translate(.82467 14.20293)"><tspan x="0" y="0">100%</tspan></text><text class="uuid-06a37983-6504-4dfe-a12d-d92ad0099c84" transform="translate(56.19991 187.03379)"><tspan x="0" y="0">Bachelor&apos;s</tspan><tspan x="5.40039" y="19.2002">or higher</tspan></text><text class="uuid-06a37983-6504-4dfe-a12d-d92ad0099c84" transform="translate(165.58114 187.03379)"><tspan x="0" y="0">Everyone else</tspan></text><text class="uuid-ec2b4392-9d55-4a18-b23a-905a2a7666f6" transform="translate(80.10944 116.75762)"><tspan x="0" y="0">Work </tspan><tspan x="1.50488" y="14">from </tspan><tspan x="-1.19043" y="28">home</tspan></text></svg>