<?xml version="1.0" encoding="UTF-8"?><svg id="uuid-43f8b567-d84c-4bd1-9da6-05ad5bdf4e34" xmlns="http://www.w3.org/2000/svg" viewBox="0 0 300 171.72896"><defs><style>.uuid-1d22c3c5-3614-463e-8330-9212f962ba0e{letter-spacing:.02496em;}.uuid-4f53a2cb-cab7-476e-b7ed-a4f87b83fba3,.uuid-a9de8782-46e9-4934-a0e6-6ee92fb8552e{fill:#cf78b1;}.uuid-4f53a2cb-cab7-476e-b7ed-a4f87b83fba3,.uuid-f1e8a4a7-d0cb-44d1-82b8-90be4d98376c{font-family:National2-Regular, 'National 2';font-size:16px;}.uuid-a9de8782-46e9-4934-a0e6-6ee92fb8552e{stroke-width:0px;}.uuid-f1e8a4a7-d0cb-44d1-82b8-90be4d98376c{fill:#947594;}</style></defs><polygon class="uuid-a9de8782-46e9-4934-a0e6-6ee92fb8552e" points="32.08763 154.93703 32.08763 154.93703 90.07732 154.93703 90.07732 154.93703 90.07732 117.51109 90.07732 117.51109 32.08763 117.51109 32.08763 117.51109 32.08763 154.93703"/><polygon class="uuid-a9de8782-46e9-4934-a0e6-6ee92fb8552e" points="121.77835 154.93703 121.77835 154.93703 179.76804 154.93703 179.76804 154.93703 179.76804 64.88086 179.76804 64.88086 121.77835 64.88086 121.77835 64.88086 121.77835 154.93703"/><polygon class="uuid-a9de8782-46e9-4934-a0e6-6ee92fb8552e" points="210.69588 154.93703 210.69588 154.93703 268.68557 154.93703 268.68557 154.93703 268.68557 63.12652 268.68557 63.12652 210.69588 63.12652 210.69588 63.12652 210.69588 154.93703"/><text class="uuid-f1e8a4a7-d0cb-44d1-82b8-90be4d98376c" transform="translate(39.5244 169.14122)"><tspan x="0" y="0">White</tspan></text><text class="uuid-f1e8a4a7-d0cb-44d1-82b8-90be4d98376c" transform="translate(130.68846 169.14122)"><tspan x="0" y="0">Black</tspan></text><text class="uuid-f1e8a4a7-d0cb-44d1-82b8-90be4d98376c" transform="translate(219.4824 169.14122)"><tspan x="0" y="0">Other</tspan></text><polygon class="uuid-a9de8782-46e9-4934-a0e6-6ee92fb8552e" points="32.08763 154.93703 32.08763 154.93703 90.07732 154.93703 90.07732 154.93703 90.07732 117.51109 90.07732 117.51109 32.08763 117.51109 32.08763 117.51109 32.08763 154.93703"/><polygon class="uuid-a9de8782-46e9-4934-a0e6-6ee92fb8552e" points="121.77835 154.93703 121.77835 154.93703 179.76804 154.93703 179.76804 154.93703 179.76804 64.88086 179.76804 64.88086 121.77835 64.88086 121.77835 64.88086 121.77835 154.93703"/><polygon class="uuid-a9de8782-46e9-4934-a0e6-6ee92fb8552e" points="210.69588 154.93703 210.69588 154.93703 268.68557 154.93703 268.68557 154.93703 268.68557 63.12652 268.68557 63.12652 210.69588 63.12652 210.69588 63.12652 210.69588 154.93703"/><text class="uuid-4f53a2cb-cab7-476e-b7ed-a4f87b83fba3" transform="translate(45.99182 114.39801)"><tspan x="0" y="0">2</tspan><tspan class="uuid-1d22c3c5-3614-463e-8330-9212f962ba0e" x="8.28809" y="0">7</tspan><tspan x="17.02344" y="0">%</tspan></text><text class="uuid-4f53a2cb-cab7-476e-b7ed-a4f87b83fba3" transform="translate(135.65663 62.30748)"><tspan x="0" y="0">65%</tspan></text><text class="uuid-4f53a2cb-cab7-476e-b7ed-a4f87b83fba3" transform="translate(224.15684 61.07727)"><tspan x="0" y="0">66%</tspan></text></svg>