<?xml version="1.0" encoding="UTF-8"?><svg id="uuid-1745424b-3d42-4a88-b054-2d290ad8ed3d" xmlns="http://www.w3.org/2000/svg" viewBox="0 0 300 171.72896"><defs><style>.uuid-94e998cf-c667-4de2-9f6e-95e2b4ce592d{fill:#947594;}.uuid-94e998cf-c667-4de2-9f6e-95e2b4ce592d,.uuid-3726c83b-cbc1-4bbb-9d6a-d5c3a95acfcd{stroke-width:0px;}.uuid-3726c83b-cbc1-4bbb-9d6a-d5c3a95acfcd{fill:#cf78b1;}</style></defs><polygon class="uuid-3726c83b-cbc1-4bbb-9d6a-d5c3a95acfcd" points="32.08763 154.93703 32.08763 154.93703 90.07732 154.93703 90.07732 154.93703 90.07732 117.51109 90.07732 117.51109 32.08763 117.51109 32.08763 117.51109 32.08763 154.93703"/><polygon class="uuid-3726c83b-cbc1-4bbb-9d6a-d5c3a95acfcd" points="121.77835 154.93703 121.77835 154.93703 179.76804 154.93703 179.76804 154.93703 179.76804 64.88086 179.76804 64.88086 121.77835 64.88086 121.77835 64.88086 121.77835 154.93703"/><polygon class="uuid-3726c83b-cbc1-4bbb-9d6a-d5c3a95acfcd" points="210.69588 154.93703 210.69588 154.93703 268.68557 154.93703 268.68557 154.93703 268.68557 63.12652 268.68557 63.12652 210.69588 63.12652 210.69588 63.12652 210.69588 154.93703"/><path class="uuid-94e998cf-c667-4de2-9f6e-95e2b4ce592d" d="M43.60447,167.42931l2.17578-8.97656h1.42383l2.17676,8.97656h.06348l2.17578-8.97656h1.32812l-2.78418,10.68848h-1.42383l-2.24023-8.84766h-.04785l-2.23926,8.84766h-1.4248l-2.7832-10.68848h1.35938l2.19238,8.97656h.04785Z"/><path class="uuid-94e998cf-c667-4de2-9f6e-95e2b4ce592d" d="M54.83592,157.58946h1.31152v4.81543c.24512-.46875.58398-.8291,1.0166-1.08008.43164-.25.92969-.37598,1.49609-.37598.74609,0,1.34375.23242,1.79199.69629.44727.46387.67188,1.09082.67188,1.87988v5.61621h-1.3125v-5.34375c0-.54395-.13574-.96289-.4082-1.25586-.27148-.29395-.6582-.44043-1.15918-.44043-.66211,0-1.17676.20801-1.54395.62402-.36816.41602-.55273,1.00781-.55273,1.77637v4.63965h-1.31152v-11.55176Z"/><path class="uuid-94e998cf-c667-4de2-9f6e-95e2b4ce592d" d="M64.51658,157.74962c.26562,0,.49023.09082.67188.27148.18066.18164.27148.41113.27148.68848s-.09082.50684-.27148.6875c-.18164.18164-.40625.27246-.67188.27246-.26758,0-.49121-.09082-.67285-.27246-.18066-.18066-.27148-.41016-.27148-.6875s.09082-.50684.27148-.68848c.18164-.18066.40527-.27148.67285-.27148ZM63.86033,169.14122v-8h1.31152v8h-1.31152Z"/><path class="uuid-94e998cf-c667-4de2-9f6e-95e2b4ce592d" d="M70.62791,168.22911c.24512,0,.46387-.0293.65625-.08789s.41016-.16797.65625-.32812l.23926,1.04004c-.23438.14941-.49805.2666-.79199.35254-.29297.08496-.57812.12793-.85547.12793-.76855,0-1.35742-.18945-1.76855-.56836-.41016-.37891-.61523-.9248-.61523-1.63965v-4.97656h-1.15234v-1.00781h1.15234v-1.69629l1.31152-.20801v1.9043h2.40039v1.00781h-2.40039v4.84863c0,.40527.09863.71191.2959.91992s.48828.31152.87207.31152Z"/><path class="uuid-94e998cf-c667-4de2-9f6e-95e2b4ce592d" d="M77.10838,168.29356c.50098,0,.91113-.12305,1.23145-.36816s.53906-.6084.65625-1.08789l1.13574.31934c-.1709.7041-.51758,1.24316-1.04004,1.61621s-1.18359.56055-1.9834.56055c-1.12012,0-1.99512-.36328-2.62402-1.08887-.62988-.72461-.94434-1.74902-.94434-3.07129,0-1.29102.32227-2.31738.96777-3.08008s1.51172-1.14453,2.60059-1.14453c.94922,0,1.70312.30762,2.26367.91992.55957.61426.83984,1.42676.83984,2.44043,0,.20312-.01562.40039-.04785.5918-.03223.19238-.06934.35254-.1123.48047h-5.24805c.03223.92773.24805,1.64551.64844,2.15137.39941.50684.95215.76074,1.65625.76074ZM77.07615,161.95763c-.62988,0-1.13867.21289-1.52832.63965s-.62695,1.03516-.71191,1.82422h4.06445c.00977-.05371.01562-.10938.01562-.16797v-.24805c0-.6084-.16797-1.10156-.50391-1.48047-.33594-.37793-.78125-.56738-1.33594-.56738Z"/><path class="uuid-94e998cf-c667-4de2-9f6e-95e2b4ce592d" d="M139.28026,161.25352c0,.63965-.18359,1.18164-.55176,1.62402s-.85059.7168-1.44824.82324v.03223c.74707.08594,1.32031.33887,1.71973.75977.40039.42188.60059.98438.60059,1.68848,0,.94922-.30957,1.67969-.92773,2.19238-.61914.51172-1.50977.76758-2.67285.76758h-3.82324v-10.68848h3.69531c1.09863,0,1.94141.24023,2.52832.7207.58691.47949.87988,1.17285.87988,2.08008ZM135.77635,159.58946h-2.27148v3.66406h2.27148c.68262,0,1.20508-.15527,1.56836-.46387.3623-.30957.54395-.7627.54395-1.36035s-.17871-1.05371-.53613-1.36816-.88281-.47168-1.57617-.47168ZM135.95213,164.35704h-2.44727v3.68066h2.44727c.74707,0,1.31738-.1582,1.71191-.47266s.59277-.77051.59277-1.36816c0-.59668-.19824-1.05273-.59277-1.36719-.39453-.31543-.96484-.47266-1.71191-.47266Z"/><path class="uuid-94e998cf-c667-4de2-9f6e-95e2b4ce592d" d="M143.69627,168.22911c.12891,0,.25391-.01855.37695-.05566.12207-.03711.23633-.09375.34375-.16797l.14355,1.00781c-.14941.08496-.33594.1543-.55957.20801-.22461.05273-.44336.08008-.65625.08008-.55469,0-.97363-.1416-1.25586-.42383-.2832-.2832-.42383-.69629-.42383-1.24023v-10.04785h1.31152v9.90332c0,.25684.05859.44336.17578.56055s.29883.17578.54395.17578Z"/><path class="uuid-94e998cf-c667-4de2-9f6e-95e2b4ce592d" d="M149.07225,160.94884c.88574,0,1.5625.21094,2.03223.63281.46973.4209.7041,1.03125.7041,1.83203v4.15918c0,.23535.04785.41113.14453.52832.0957.11719.24512.17578.44727.17578.08594,0,.17578-.01562.27246-.04785.0957-.03223.16992-.07422.22363-.12793l.08008.97559c-.0957.06445-.22656.11816-.3916.16016-.16602.04297-.32812.06445-.48828.06445-.29883,0-.55762-.06152-.77637-.18457-.21875-.12207-.38672-.30078-.50391-.53516-.04297-.08594-.08203-.17871-.12012-.28027-.03711-.10156-.06641-.21582-.08789-.34375-.14941.41602-.4375.74609-.86328.99121-.42676.24609-.91211.36816-1.45605.36816-.74707,0-1.34766-.20508-1.80078-.61621-.45312-.41016-.67969-.95703-.67969-1.63965,0-.83203.34375-1.47168,1.03223-1.91992.6875-.44824,1.68262-.67188,2.9834-.67188.06445,0,.14648.00293.24805.00781.10156.00586.26953.01367.50391.02441v-.94434c0-.49023-.13574-.86914-.40723-1.13574-.27246-.2666-.66406-.40039-1.17676-.40039-.49023,0-.86914.12305-1.13574.36816s-.41016.60254-.43164,1.07227l-1.28027-.22461c.08496-.7041.39258-1.26074.91992-1.67188.52832-.41016,1.19727-.61621,2.00781-.61621ZM148.59276,168.30919c.59668,0,1.07715-.19238,1.43945-.57617.36328-.38379.54395-.91211.54395-1.58398v-.67188c-.13867-.01074-.27148-.01855-.39941-.02441-.12793-.00488-.24609-.00781-.35254-.00781-.91699,0-1.59961.13086-2.04785.39258-.44727.26074-.67188.65332-.67188,1.17578,0,.40527.13379.72266.40039.95215s.62891.34375,1.08789.34375Z"/><path class="uuid-94e998cf-c667-4de2-9f6e-95e2b4ce592d" d="M157.77635,169.3336c-1.09961,0-1.96875-.37402-2.6084-1.12012-.63965-.74707-.95996-1.77051-.95996-3.07227,0-1.29004.32031-2.31152.95996-3.06445.63965-.75195,1.50879-1.12793,2.6084-1.12793.7998,0,1.46582.22461,2,.67285.5332.44727.8418,1.03906.92773,1.77539l-1.2002.22461c-.04297-.48047-.22168-.87207-.53613-1.17676-.31445-.30371-.71191-.45605-1.19141-.45605-.7041,0-1.25391.27832-1.64844.83203-.39453.55469-.5918,1.32812-.5918,2.32031s.19727,1.76562.5918,2.32031.94434.83203,1.64844.83203c.49023,0,.88965-.15234,1.19922-.45605.30957-.30469.48535-.70703.52832-1.20801l1.2002.22363c-.11719.7793-.43164,1.38672-.94434,1.82422-.51172.4375-1.17285.65625-1.9834.65625Z"/><path class="uuid-94e998cf-c667-4de2-9f6e-95e2b4ce592d" d="M169.24803,161.14122l-3.34473,3.64844,3.66406,4.35156h-1.64746l-3.13672-3.74414h-.67188v3.74414h-1.31152v-11.55176h1.31152v6.76758h.7041l2.87988-3.21582h1.55273Z"/><path class="uuid-94e998cf-c667-4de2-9f6e-95e2b4ce592d" d="M220.28221,163.79747c0-1.69629.42676-3.04297,1.28027-4.04004s1.99414-1.49609,3.42383-1.49609,2.57031.49902,3.42383,1.49609,1.28027,2.34375,1.28027,4.04004c0,1.69531-.42676,3.04297-1.28027,4.04004s-1.99414,1.49609-3.42383,1.49609-2.57031-.49902-3.42383-1.49609-1.28027-2.34473-1.28027-4.04004ZM228.24998,163.79747c0-1.35449-.29004-2.42676-.87109-3.21582-.58203-.79004-1.37891-1.18457-2.39258-1.18457s-1.81055.39453-2.3916,1.18457c-.58203.78906-.87207,1.86133-.87207,3.21582s.29004,2.42676.87207,3.21582c.58105.78906,1.37793,1.18359,2.3916,1.18359s1.81055-.39453,2.39258-1.18359c.58105-.78906.87109-1.86133.87109-3.21582Z"/><path class="uuid-94e998cf-c667-4de2-9f6e-95e2b4ce592d" d="M234.53807,168.22911c.24512,0,.46387-.0293.65625-.08789s.41016-.16797.65625-.32812l.23926,1.04004c-.23438.14941-.49805.2666-.79199.35254-.29297.08496-.57812.12793-.85547.12793-.76855,0-1.35742-.18945-1.76855-.56836-.41016-.37891-.61523-.9248-.61523-1.63965v-4.97656h-1.15234v-1.00781h1.15234v-1.69629l1.31152-.20801v1.9043h2.40039v1.00781h-2.40039v4.84863c0,.40527.09863.71191.2959.91992s.48828.31152.87207.31152Z"/><path class="uuid-94e998cf-c667-4de2-9f6e-95e2b4ce592d" d="M238.02635,157.58946h1.31152v4.81543c.24512-.46875.58398-.8291,1.0166-1.08008.43164-.25.92969-.37598,1.49609-.37598.74609,0,1.34375.23242,1.79199.69629.44727.46387.67188,1.09082.67188,1.87988v5.61621h-1.3125v-5.34375c0-.54395-.13574-.96289-.4082-1.25586-.27148-.29395-.6582-.44043-1.15918-.44043-.66211,0-1.17676.20801-1.54395.62402-.36816.41602-.55273,1.00781-.55273,1.77637v4.63965h-1.31152v-11.55176Z"/><path class="uuid-94e998cf-c667-4de2-9f6e-95e2b4ce592d" d="M250.04295,168.29356c.50098,0,.91113-.12305,1.23145-.36816s.53906-.6084.65625-1.08789l1.13574.31934c-.1709.7041-.51758,1.24316-1.04004,1.61621s-1.18359.56055-1.9834.56055c-1.12012,0-1.99512-.36328-2.62402-1.08887-.62988-.72461-.94434-1.74902-.94434-3.07129,0-1.29102.32227-2.31738.96777-3.08008s1.51172-1.14453,2.60059-1.14453c.94922,0,1.70312.30762,2.26367.91992.55957.61426.83984,1.42676.83984,2.44043,0,.20312-.01562.40039-.04785.5918-.03223.19238-.06934.35254-.1123.48047h-5.24805c.03223.92773.24805,1.64551.64844,2.15137.39941.50684.95215.76074,1.65625.76074ZM250.01072,161.95763c-.62988,0-1.13867.21289-1.52832.63965s-.62695,1.03516-.71191,1.82422h4.06445c.00977-.05371.01562-.10938.01562-.16797v-.24805c0-.6084-.16797-1.10156-.50391-1.48047-.33594-.37793-.78125-.56738-1.33594-.56738Z"/><path class="uuid-94e998cf-c667-4de2-9f6e-95e2b4ce592d" d="M255.3701,169.14122v-8h1.04004l.17578,2.04785c.14941-.67188.45801-1.21289.92773-1.62402.46973-.41016,1.00781-.61621,1.61621-.61621.07422,0,.15234.00586.23242.0166s.15723.02148.23145.03223l-.08008,1.37598c-.06348-.01074-.1543-.02148-.27148-.03223-.11816-.01074-.24023-.0166-.36816-.0166-.66113,0-1.19238.25098-1.5918.75195-.40039.50195-.60059,1.17383-.60059,2.0166v4.04785h-1.31152Z"/><polygon class="uuid-3726c83b-cbc1-4bbb-9d6a-d5c3a95acfcd" points="32.08763 154.93703 32.08763 154.93703 90.07732 154.93703 90.07732 154.93703 90.07732 117.51109 90.07732 117.51109 32.08763 117.51109 32.08763 117.51109 32.08763 154.93703"/><polygon class="uuid-3726c83b-cbc1-4bbb-9d6a-d5c3a95acfcd" points="121.77835 154.93703 121.77835 154.93703 179.76804 154.93703 179.76804 154.93703 179.76804 64.88086 179.76804 64.88086 121.77835 64.88086 121.77835 64.88086 121.77835 154.93703"/><polygon class="uuid-3726c83b-cbc1-4bbb-9d6a-d5c3a95acfcd" points="210.69588 154.93703 210.69588 154.93703 268.68557 154.93703 268.68557 154.93703 268.68557 63.12652 268.68557 63.12652 210.69588 63.12652 210.69588 63.12652 210.69588 154.93703"/><path class="uuid-3726c83b-cbc1-4bbb-9d6a-d5c3a95acfcd" d="M48.48826,113.21348h5.28027v1.18457h-7.08789v-1.04004c.10645-.08594.43652-.34375.99121-.77637.55469-.43164.98633-.77539,1.2959-1.03223.48047-.40527.88867-.77051,1.22461-1.0957s.62109-.63184.85547-.91992c.36328-.44824.62988-.8877.80078-1.32031.16992-.43164.25586-.87207.25586-1.31934,0-.72559-.1875-1.29102-.56055-1.69629s-.89551-.6084-1.56738-.6084c-.59766,0-1.08594.19238-1.46484.57617-.37793.38379-.56738.87988-.56738,1.48828,0,.21387.02637.41113.08008.5918.05273.18164.13867.37402.25586.57617l-1.13574.46387c-.14941-.23438-.26172-.49023-.33594-.76758-.0752-.27734-.1123-.59277-.1123-.94434,0-.84277.30957-1.5625.92773-2.16016.61914-.59668,1.4082-.89551,2.36816-.89551,1.04492,0,1.87695.29883,2.49609.89551.61816.59766.92773,1.41406.92773,2.44824,0,.95996-.37305,1.93848-1.12012,2.93555-.74609.99805-2.01562,2.13672-3.80762,3.41602Z"/><path class="uuid-3726c83b-cbc1-4bbb-9d6a-d5c3a95acfcd" d="M56.79197,114.39806l3.85645-9.50391h-4.65625v1.85547h-1.16797v-3.04004h7.21582v.92871l-3.8877,9.75977h-1.36035Z"/><path class="uuid-3726c83b-cbc1-4bbb-9d6a-d5c3a95acfcd" d="M63.71971,106.54161c0-.88477.21289-1.59668.63965-2.13574.42676-.53809.99707-.80762,1.71191-.80762s1.28516.26953,1.71191.80762c.42676.53906.64062,1.25098.64062,2.13574,0,.88574-.21387,1.59766-.64062,2.13574-.42676.53906-.99707.80859-1.71191.80859s-1.28516-.26953-1.71191-.80859c-.42676-.53809-.63965-1.25-.63965-2.13574ZM67.25584,106.54161c0-.63965-.10156-1.13574-.30469-1.48828-.20215-.35156-.49512-.52734-.87988-.52734-.38379,0-.67676.17578-.87988.52734-.20215.35254-.30371.84863-.30371,1.48828,0,.64062.10156,1.13574.30371,1.48828.20312.35156.49609.52832.87988.52832.38477,0,.67773-.17676.87988-.52832.20312-.35254.30469-.84766.30469-1.48828ZM67.59178,114.39806h-1.16797l5.69531-10.68848h1.16895l-5.69629,10.68848ZM71.28807,111.56602c0-.88574.21289-1.59766.63965-2.13574.42676-.53906.99707-.80859,1.71191-.80859s1.28516.26953,1.71191.80859c.42676.53809.63965,1.25.63965,2.13574s-.21289,1.59766-.63965,2.13574c-.42676.53906-.99707.80762-1.71191.80762s-1.28516-.26855-1.71191-.80762c-.42676-.53809-.63965-1.25-.63965-2.13574ZM74.82322,111.56602c0-.64062-.10156-1.13574-.30371-1.48828-.20312-.35156-.49609-.52832-.87988-.52832s-.67773.17676-.87988.52832c-.20312.35254-.30371.84766-.30371,1.48828,0,.63965.10059,1.13574.30371,1.4873.20215.35254.49609.52832.87988.52832s.67676-.17578.87988-.52832c.20215-.35156.30371-.84766.30371-1.4873Z"/><path class="uuid-3726c83b-cbc1-4bbb-9d6a-d5c3a95acfcd" d="M140.75975,51.42784c.79004,0,1.45605.18115,2,.54395.54492.36279.9502.90137,1.2168,1.61572l-1.12012.52832c-.1709-.50146-.4375-.89062-.7998-1.16797-.36328-.27734-.79492-.41602-1.29688-.41602-.93848,0-1.67969.43164-2.22363,1.2959-.54395.86377-.81543,2.01074-.81543,3.43994v.35205h.04785c.19141-.64014.54883-1.14941,1.07129-1.52783.52246-.37891,1.13672-.56836,1.84082-.56836,1.00195,0,1.80762.32031,2.41602.95996.60742.64014.91113,1.47217.91113,2.49609s-.3252,1.8667-.97559,2.52832c-.65039.66113-1.50391.9917-2.55957.9917-.69434,0-1.30957-.14941-1.84863-.44775-.53809-.29883-.97852-.73633-1.31934-1.31201-.26758-.44824-.4668-.9624-.60059-1.54395s-.2002-1.22412-.2002-1.92822c0-1.75977.38672-3.17334,1.16016-4.23975.77344-1.06689,1.80566-1.6001,3.0957-1.6001ZM140.39256,61.39561c.69336,0,1.25781-.21826,1.69531-.65576s.65625-1.01318.65625-1.72803-.21875-1.28809-.65625-1.72021-1.00195-.64795-1.69531-.64795c-.67188,0-1.22168.21875-1.64844.65625s-.63965,1.00781-.63965,1.71191.21289,1.27734.63965,1.71973c.42676.44287.97656.66406,1.64844.66406Z"/><path class="uuid-3726c83b-cbc1-4bbb-9d6a-d5c3a95acfcd" d="M147.35252,57.31554h-1.08789l.28809-5.6958h5.53613v1.16797h-4.48047l-.17578,3.45605c.25586-.23438.55762-.41846.9043-.55225.3457-.13281.70605-.19971,1.08008-.19971.93848,0,1.70605.32275,2.30371.96777.59668.64551.89551,1.46973.89551,2.47217,0,1.06689-.34082,1.92773-1.02344,2.58398-.68262.65576-1.55762.98389-2.62402.98389-.98145,0-1.81055-.26367-2.48828-.79199-.67773-.52783-1.06934-1.19727-1.17578-2.00781l1.15234-.43213c.1377.69336.42871,1.22656.87109,1.6001.44336.37354,1,.56006,1.67285.56006.72461,0,1.2959-.22119,1.71191-.66406.41602-.44238.62402-1.04785.62402-1.81592,0-.71484-.2002-1.28516-.60059-1.71191-.39941-.42676-.93555-.64014-1.60742-.64014-.35254,0-.68262.06396-.99219.19189s-.57129.3042-.78418.52783Z"/><path class="uuid-3726c83b-cbc1-4bbb-9d6a-d5c3a95acfcd" d="M154.21678,54.45177c0-.88525.21289-1.59717.63965-2.13623.42676-.53809.99707-.80762,1.71191-.80762s1.28516.26953,1.71191.80762c.42676.53906.64062,1.25098.64062,2.13623s-.21387,1.59766-.64062,2.13574c-.42676.53906-.99707.80811-1.71191.80811s-1.28516-.26904-1.71191-.80811c-.42676-.53809-.63965-1.25049-.63965-2.13574ZM157.75291,54.45177c0-.64014-.10156-1.13623-.30469-1.48828-.20215-.35156-.49512-.52783-.87988-.52783-.38379,0-.67676.17627-.87988.52783-.20215.35205-.30371.84814-.30371,1.48828s.10156,1.13574.30371,1.48779c.20312.35205.49609.52832.87988.52832.38477,0,.67773-.17627.87988-.52832.20312-.35205.30469-.84766.30469-1.48779ZM158.08885,62.30772h-1.16797l5.69531-10.68799h1.16895l-5.69629,10.68799ZM161.78514,59.47569c0-.88525.21289-1.59717.63965-2.13574s.99707-.80811,1.71191-.80811,1.28516.26953,1.71191.80811.63965,1.25049.63965,2.13574c0,.88574-.21289,1.59766-.63965,2.13623s-.99707.80762-1.71191.80762-1.28516-.26904-1.71191-.80762-.63965-1.25049-.63965-2.13623ZM165.32029,59.47569c0-.64014-.10156-1.13574-.30371-1.48779-.20312-.35205-.49609-.52832-.87988-.52832s-.67773.17627-.87988.52832c-.20312.35205-.30371.84766-.30371,1.48779s.10059,1.13623.30371,1.48779c.20215.35205.49609.52832.87988.52832s.67676-.17627.87988-.52832c.20215-.35156.30371-.84766.30371-1.48779Z"/><path class="uuid-3726c83b-cbc1-4bbb-9d6a-d5c3a95acfcd" d="M229.26072,50.19737c.79004,0,1.45605.18115,2,.54395.54492.36279.9502.90137,1.2168,1.61572l-1.12012.52832c-.1709-.50146-.4375-.89062-.7998-1.16797-.36328-.27734-.79492-.41602-1.29688-.41602-.93848,0-1.67969.43164-2.22363,1.2959-.54395.86377-.81543,2.01074-.81543,3.43994v.35205h.04785c.19141-.64014.54883-1.14941,1.07129-1.52783.52246-.37891,1.13672-.56836,1.84082-.56836,1.00195,0,1.80762.32031,2.41602.95996.60742.64014.91113,1.47217.91113,2.49609s-.3252,1.8667-.97559,2.52832c-.65039.66113-1.50391.9917-2.55957.9917-.69434,0-1.30957-.14941-1.84863-.44775-.53809-.29883-.97852-.73633-1.31934-1.31201-.26758-.44824-.4668-.9624-.60059-1.54395s-.2002-1.22412-.2002-1.92822c0-1.75977.38672-3.17334,1.16016-4.23975.77344-1.06689,1.80566-1.6001,3.0957-1.6001ZM228.89354,60.16515c.69336,0,1.25781-.21826,1.69531-.65576s.65625-1.01318.65625-1.72803-.21875-1.28809-.65625-1.72021-1.00195-.64795-1.69531-.64795c-.67188,0-1.22168.21875-1.64844.65625s-.63965,1.00781-.63965,1.71191.21289,1.27734.63965,1.71973c.42676.44287.97656.66406,1.64844.66406Z"/><path class="uuid-3726c83b-cbc1-4bbb-9d6a-d5c3a95acfcd" d="M238.41209,50.19737c.79004,0,1.45605.18115,2,.54395.54492.36279.9502.90137,1.2168,1.61572l-1.12012.52832c-.1709-.50146-.4375-.89062-.7998-1.16797-.36328-.27734-.79492-.41602-1.29688-.41602-.93848,0-1.67969.43164-2.22363,1.2959-.54395.86377-.81543,2.01074-.81543,3.43994v.35205h.04785c.19141-.64014.54883-1.14941,1.07129-1.52783.52246-.37891,1.13672-.56836,1.84082-.56836,1.00195,0,1.80762.32031,2.41602.95996.60742.64014.91113,1.47217.91113,2.49609s-.3252,1.8667-.97559,2.52832c-.65039.66113-1.50391.9917-2.55957.9917-.69434,0-1.30957-.14941-1.84863-.44775-.53809-.29883-.97852-.73633-1.31934-1.31201-.26758-.44824-.4668-.9624-.60059-1.54395s-.2002-1.22412-.2002-1.92822c0-1.75977.38672-3.17334,1.16016-4.23975.77344-1.06689,1.80566-1.6001,3.0957-1.6001ZM238.0449,60.16515c.69336,0,1.25781-.21826,1.69531-.65576s.65625-1.01318.65625-1.72803-.21875-1.28809-.65625-1.72021-1.00195-.64795-1.69531-.64795c-.67188,0-1.22168.21875-1.64844.65625s-.63965,1.00781-.63965,1.71191.21289,1.27734.63965,1.71973c.42676.44287.97656.66406,1.64844.66406Z"/><path class="uuid-3726c83b-cbc1-4bbb-9d6a-d5c3a95acfcd" d="M243.16502,53.2213c0-.88525.21289-1.59717.63965-2.13623.42676-.53809.99707-.80762,1.71191-.80762s1.28516.26953,1.71191.80762c.42676.53906.64062,1.25098.64062,2.13623s-.21387,1.59766-.64062,2.13574c-.42676.53906-.99707.80811-1.71191.80811s-1.28516-.26904-1.71191-.80811c-.42676-.53809-.63965-1.25049-.63965-2.13574ZM246.70115,53.2213c0-.64014-.10156-1.13623-.30469-1.48828-.20215-.35156-.49512-.52783-.87988-.52783-.38379,0-.67676.17627-.87988.52783-.20215.35205-.30371.84814-.30371,1.48828s.10156,1.13574.30371,1.48779c.20312.35205.49609.52832.87988.52832.38477,0,.67773-.17627.87988-.52832.20312-.35205.30469-.84766.30469-1.48779ZM247.03709,61.07725h-1.16797l5.69531-10.68799h1.16895l-5.69629,10.68799ZM250.73338,58.24522c0-.88525.21289-1.59717.63965-2.13574s.99707-.80811,1.71191-.80811,1.28516.26953,1.71191.80811.63965,1.25049.63965,2.13574c0,.88574-.21289,1.59766-.63965,2.13623s-.99707.80762-1.71191.80762-1.28516-.26904-1.71191-.80762-.63965-1.25049-.63965-2.13623ZM254.26854,58.24522c0-.64014-.10156-1.13574-.30371-1.48779-.20312-.35205-.49609-.52832-.87988-.52832s-.67773.17627-.87988.52832c-.20312.35205-.30371.84766-.30371,1.48779s.10059,1.13623.30371,1.48779c.20215.35205.49609.52832.87988.52832s.67676-.17627.87988-.52832c.20215-.35156.30371-.84766.30371-1.48779Z"/></svg>