<?xml version="1.0" encoding="UTF-8"?><svg id="uuid-c8159fe2-5ec6-427a-a3fe-8ce81e2e47c9" xmlns="http://www.w3.org/2000/svg" viewBox="0 0 300 172.22457"><defs><style>@font-face {
	font-family: "National2-Regular";
	src: url("https://pudding.cool/assets/fonts/national/National2Web-Regular.woff2") format("woff2");
	font-weight: 400;
	font-style: normal;
	font-stretch: normal;
	font-display: swap;
}

@font-face {
	font-family: "National2-Bold";
	src: url("https://pudding.cool/assets/fonts/national/National2Web-Bold.woff2") format("woff2");
	font-weight: 700;
	font-style: normal;
	font-stretch: normal;
	font-display: swap;
}.uuid-2aab4196-b3c0-487e-a258-f288f233d512{stroke:#5d395c;stroke-miterlimit:10;stroke-width:.5px;}.uuid-2aab4196-b3c0-487e-a258-f288f233d512,.uuid-c93ff179-420e-4e22-b81a-5e04874fef41{fill:none;}.uuid-c93ff179-420e-4e22-b81a-5e04874fef41{stroke:#cf78b1;stroke-linecap:round;stroke-linejoin:round;stroke-width:2px;}.uuid-28c6ded9-e5b0-4763-be53-2a2ce72d693b{fill:#947594;font-family:National2-Regular, 'National 2';font-size:16px;}</style></defs><line class="uuid-2aab4196-b3c0-487e-a258-f288f233d512" y1="155.41108" x2="284.32367" y2="155.41108"/><line class="uuid-2aab4196-b3c0-487e-a258-f288f233d512" y1="132.14033" x2="284.32367" y2="132.14033"/><line class="uuid-2aab4196-b3c0-487e-a258-f288f233d512" y1="108.86959" x2="284.32367" y2="108.86959"/><line class="uuid-2aab4196-b3c0-487e-a258-f288f233d512" y1="86.18061" x2="284.32367" y2="86.18061"/><line class="uuid-2aab4196-b3c0-487e-a258-f288f233d512" y1="62.90986" x2="284.32367" y2="62.90986"/><line class="uuid-2aab4196-b3c0-487e-a258-f288f233d512" y1="39.63911" x2="284.32367" y2="39.63911"/><line class="uuid-2aab4196-b3c0-487e-a258-f288f233d512" y1="16.36836" x2="284.32367" y2="16.36836"/><polyline class="uuid-c93ff179-420e-4e22-b81a-5e04874fef41" points="29.19516 35.11359 56.33371 54.77285 83.47226 64.02427 110.61081 53.61643 137.74936 61.71142 164.88791 84.83995 192.02645 102.18636 219.16501 114.90705 246.30356 120.68919 273.4421 124.15847 284.29753 124.15847"/><text class="uuid-28c6ded9-e5b0-4763-be53-2a2ce72d693b" transform="translate(1.00015 150.44105) scale(.95641 1)"><tspan x="0" y="0">0</tspan></text><text class="uuid-28c6ded9-e5b0-4763-be53-2a2ce72d693b" transform="translate(1.00015 127.3141) scale(.95641 1)"><tspan x="0" y="0">2</tspan></text><text class="uuid-28c6ded9-e5b0-4763-be53-2a2ce72d693b" transform="translate(1.00015 104.18519) scale(.95641 1)"><tspan x="0" y="0">4</tspan></text><text class="uuid-28c6ded9-e5b0-4763-be53-2a2ce72d693b" transform="translate(1.00015 81.05678) scale(.95641 1)"><tspan x="0" y="0">6</tspan></text><text class="uuid-28c6ded9-e5b0-4763-be53-2a2ce72d693b" transform="translate(1.00015 57.92787) scale(.95641 1)"><tspan x="0" y="0">8</tspan></text><text class="uuid-28c6ded9-e5b0-4763-be53-2a2ce72d693b" transform="translate(1.00014 34.79945) scale(.95641 1)"><tspan x="0" y="0">10</tspan></text><text class="uuid-28c6ded9-e5b0-4763-be53-2a2ce72d693b" transform="translate(1.00014 11.67055) scale(.95641 1)"><tspan x="0" y="0">12 fatalities per 100,000 workers</tspan></text><text class="uuid-28c6ded9-e5b0-4763-be53-2a2ce72d693b" transform="translate(49.01367 170.16713) scale(.95641 1)"><tspan x="0" y="0">1980</tspan></text><text class="uuid-28c6ded9-e5b0-4763-be53-2a2ce72d693b" transform="translate(266.12305 170.16713) scale(.95641 1)"><tspan x="0" y="0">2020</tspan></text></svg>