<?xml version="1.0" encoding="UTF-8"?><svg id="uuid-7a4ac7cc-66f3-4288-9ad3-4f2b2cf94dbc" xmlns="http://www.w3.org/2000/svg" viewBox="0 0 300 185.85385"><defs><style>.uuid-d0bd8338-1dbc-4584-a2f5-cb41a71b2dd7,.uuid-489924f2-07e0-4cbc-ab13-104aa43fa377,.uuid-ce585dcf-a10b-466c-ac2d-5717b05f5a6b{fill:#cf78b1;}.uuid-d0bd8338-1dbc-4584-a2f5-cb41a71b2dd7,.uuid-489924f2-07e0-4cbc-ab13-104aa43fa377,.uuid-5badf3ff-b9c7-4625-90c3-509e8ec59d0e{font-family:National2-Regular, 'National 2';}.uuid-d0bd8338-1dbc-4584-a2f5-cb41a71b2dd7,.uuid-5badf3ff-b9c7-4625-90c3-509e8ec59d0e{font-size:16px;}.uuid-489924f2-07e0-4cbc-ab13-104aa43fa377{font-size:14.21509px;}.uuid-ce585dcf-a10b-466c-ac2d-5717b05f5a6b{stroke-width:0px;}.uuid-11ee8656-34ba-4c80-b887-c9d974c868c9{stroke:#cf78b1;stroke-linecap:round;stroke-linejoin:round;stroke-width:2px;}.uuid-11ee8656-34ba-4c80-b887-c9d974c868c9,.uuid-1753f931-d6bb-4514-8afb-93205f5966d3{fill:none;}.uuid-5badf3ff-b9c7-4625-90c3-509e8ec59d0e{fill:#947594;}.uuid-1753f931-d6bb-4514-8afb-93205f5966d3{stroke:#967e96;stroke-miterlimit:10;stroke-width:.5px;}</style></defs><line class="uuid-1753f931-d6bb-4514-8afb-93205f5966d3" y1="169.04036" x2="139.04737" y2="169.04036"/><polyline class="uuid-11ee8656-34ba-4c80-b887-c9d974c868c9" points="13.5317 48.74287 26.11018 68.40214 38.68866 77.65355 51.26714 67.24571 63.84562 75.3407 76.4241 98.46924 89.00257 115.81564 101.58106 128.53633 114.15954 134.31847 126.73801 137.78775 131.76941 137.78775"/><text class="uuid-5badf3ff-b9c7-4625-90c3-509e8ec59d0e" transform="translate(1.00015 183.79639)"><tspan x="0" y="0">1970</tspan></text><text class="uuid-5badf3ff-b9c7-4625-90c3-509e8ec59d0e" transform="translate(107.48617 183.79639)"><tspan x="0" y="0">2022</tspan></text><text class="uuid-d0bd8338-1dbc-4584-a2f5-cb41a71b2dd7" transform="translate(20.82456 53.4192)"><tspan x="0" y="0">18</tspan></text><text class="uuid-d0bd8338-1dbc-4584-a2f5-cb41a71b2dd7" transform="translate(121.06745 155.14893)"><tspan x="0" y="0">3.7</tspan></text><line class="uuid-1753f931-d6bb-4514-8afb-93205f5966d3" x1="155.06055" y1="168.69766" x2="299.01746" y2="168.69766"/><polyline class="uuid-11ee8656-34ba-4c80-b887-c9d974c868c9" points="168.96197 92.41365 192.0944 110.21081 215.22682 124.44853 238.35924 141.17785 261.49166 143.66946 289.25057 143.31352"/><text class="uuid-5badf3ff-b9c7-4625-90c3-509e8ec59d0e" transform="translate(155.06094 183.79636)"><tspan x="0" y="0">1970</tspan></text><text class="uuid-5badf3ff-b9c7-4625-90c3-509e8ec59d0e" transform="translate(264.41551 183.79636)"><tspan x="0" y="0">2022</tspan></text><text class="uuid-489924f2-07e0-4cbc-ab13-104aa43fa377" transform="translate(175.90633 94.40607)"><tspan x="0" y="0">10.4</tspan></text><text class="uuid-489924f2-07e0-4cbc-ab13-104aa43fa377" transform="translate(279.86969 159.51992)"><tspan x="0" y="0">2.7</tspan></text><circle class="uuid-ce585dcf-a10b-466c-ac2d-5717b05f5a6b" cx="168.96197" cy="92.41365" r="2.58529"/><circle class="uuid-ce585dcf-a10b-466c-ac2d-5717b05f5a6b" cx="289.25057" cy="142.76203" r="2.58529"/><circle class="uuid-ce585dcf-a10b-466c-ac2d-5717b05f5a6b" cx="13.5317" cy="48.74287" r="2.58529"/><circle class="uuid-ce585dcf-a10b-466c-ac2d-5717b05f5a6b" cx="131.76941" cy="137.28879" r="2.58529"/><text class="uuid-5badf3ff-b9c7-4625-90c3-509e8ec59d0e" transform="translate(21.67969 11.55161)"><tspan x="0" y="0">Fatalities per </tspan><tspan x="-12.43213" y="18">100,000 workers</tspan></text><text class="uuid-5badf3ff-b9c7-4625-90c3-509e8ec59d0e" transform="translate(187.0636 11.55161)"><tspan x="0" y="0">Injuries per</tspan><tspan x="-2.80811" y="18">100 workers</tspan></text></svg>