<?xml version="1.0" encoding="UTF-8"?><svg id="uuid-7575dd87-995f-4908-860f-3a6fd206c245" xmlns="http://www.w3.org/2000/svg" viewBox="0 0 300 213.11241"><defs><style>@font-face {
	font-family: "National2-Regular";
	src: url("https://pudding.cool/assets/fonts/national/National2Web-Regular.woff2") format("woff2");
	font-weight: 400;
	font-style: normal;
	font-stretch: normal;
	font-display: swap;
}

@font-face {
	font-family: "National2-Bold";
	src: url("https://pudding.cool/assets/fonts/national/National2Web-Bold.woff2") format("woff2");
	font-weight: 700;
	font-style: normal;
	font-stretch: normal;
	font-display: swap;
}.uuid-13f0b1f3-df14-40f8-aa69-8b986b97abdb{fill:#fff;font-size:18px;}.uuid-13f0b1f3-df14-40f8-aa69-8b986b97abdb,.uuid-b0e5a601-4dec-4e1a-a683-3037fee30356,.uuid-02704a30-22bf-4248-bb8c-0917be0bd539{font-family:National2-Regular, 'National 2';}.uuid-9d73466f-86b9-436f-b276-4917fa045a5d{fill:#d2a3cb;}.uuid-9d73466f-86b9-436f-b276-4917fa045a5d,.uuid-3936a5e4-7eae-4137-9b8f-715d2ff3ee7f,.uuid-be9fac71-07ba-4edc-a08e-9cf46bf05b14{stroke-width:0px;}.uuid-002ee8f5-b907-4df2-bd31-3cf112b6b126{opacity:.25;}.uuid-3936a5e4-7eae-4137-9b8f-715d2ff3ee7f{fill:#010101;opacity:0;}.uuid-be9fac71-07ba-4edc-a08e-9cf46bf05b14,.uuid-b0e5a601-4dec-4e1a-a683-3037fee30356{fill:#cf78b1;}.uuid-b0e5a601-4dec-4e1a-a683-3037fee30356{font-size:14px;}.uuid-02704a30-22bf-4248-bb8c-0917be0bd539{fill:#947594;font-size:16px;}</style></defs><g class="uuid-002ee8f5-b907-4df2-bd31-3cf112b6b126"><polygon class="uuid-9d73466f-86b9-436f-b276-4917fa045a5d" points="178.32184 170.16239 178.32184 170.16239 256.14741 170.16239 256.14741 170.16239 256.14741 17.88433 256.14741 17.88433 178.32184 17.88433 178.32184 17.88433 178.32184 170.16239"/></g><g class="uuid-002ee8f5-b907-4df2-bd31-3cf112b6b126"><polygon class="uuid-9d73466f-86b9-436f-b276-4917fa045a5d" points="57.94415 170.16239 57.94415 170.16239 135.76972 170.16239 135.76972 170.16239 135.76972 17.88433 135.76972 17.88433 57.94415 17.88433 57.94415 17.88433 57.94415 170.16239"/></g><path class="uuid-3936a5e4-7eae-4137-9b8f-715d2ff3ee7f" d="M135.76972,175.25394v.63848h-.5599v-78.53334c0-.35263-.25068-.63848-.5599-.63848H59.06394c-.30923,0-.5599.28585-.5599.63848v78.53334h-.5599v-.63848h77.82558ZM135.76972,176.5309H57.38425v-79.17182h.5599-.5599c0-1.05788.75202-1.91545,1.67969-1.91545v.63848-.63848h75.58599v.63848-.63848c.92767,0,1.67969.85757,1.67969,1.91545h-.5599.5599v79.17182h-.5599"/><polygon class="uuid-be9fac71-07ba-4edc-a08e-9cf46bf05b14" points="57.94415 170.16239 57.94415 170.16239 135.76972 170.16239 135.76972 170.16239 135.76972 90.35209 135.76972 90.35209 57.94415 90.35209 57.94415 90.35209 57.94415 170.16239"/><path class="uuid-3936a5e4-7eae-4137-9b8f-715d2ff3ee7f" d="M256.14741,175.25394v.63848h-.5599v-33.20109c0-.35263-.25068-.63848-.5599-.63848h-75.58599c-.30922,0-.5599.28585-.5599.63848v33.20109h-.5599v-.63848h77.82558ZM256.14741,176.5309h-78.38547v-33.83957h.5599-.5599c0-1.05788.75202-1.91545,1.67969-1.91545v.63848-.63848h75.58599v.63848-.63848c.92767,0,1.67969.85757,1.67969,1.91545h-.5599.5599v33.83957h-.5599"/><polygon class="uuid-be9fac71-07ba-4edc-a08e-9cf46bf05b14" points="178.32184 170.16239 178.32184 170.16239 256.14741 170.16239 256.14741 170.16239 256.14741 135.68434 256.14741 135.68434 178.32184 135.68434 178.32184 135.68434 178.32184 170.16239"/><text class="uuid-02704a30-22bf-4248-bb8c-0917be0bd539" transform="translate(56.19992 187.03379)"><tspan x="0" y="0">Bachelor&apos;s</tspan><tspan x="5.40039" y="19.2002">or higher</tspan></text><text class="uuid-02704a30-22bf-4248-bb8c-0917be0bd539" transform="translate(165.58115 187.03379)"><tspan x="0" y="0">Everyone else</tspan></text><text class="uuid-b0e5a601-4dec-4e1a-a683-3037fee30356" transform="translate(15.76202 116.75762)"><tspan x="0" y="0">Work </tspan><tspan x="1.50488" y="14">from </tspan><tspan x="-1.19043" y="28">home</tspan></text><text class="uuid-13f0b1f3-df14-40f8-aa69-8b986b97abdb" transform="translate(81.8699 105.93653)"><tspan x="0" y="0">52%</tspan></text><text class="uuid-13f0b1f3-df14-40f8-aa69-8b986b97abdb" transform="translate(200.21624 149.9221)"><tspan x="0" y="0">22%</tspan></text></svg>