<?xml version="1.0" encoding="UTF-8"?><svg id="uuid-0cc5d051-6965-4137-806a-dfa5e6d627b9" xmlns="http://www.w3.org/2000/svg" viewBox="0 0 300 213.11241"><defs><style>.uuid-f2bc56c6-f72c-48a7-9902-05667772441a{fill:#947594;}.uuid-f2bc56c6-f72c-48a7-9902-05667772441a,.uuid-b4dd4b17-5138-4814-a455-f690acff3ac6,.uuid-476cc53c-87d8-417d-957c-76ec392bfd85,.uuid-84f5a656-7b9a-4e15-955f-d4ae323dc809,.uuid-b9f02e4b-2e44-457c-89f1-688d975f73d8{stroke-width:0px;}.uuid-b4dd4b17-5138-4814-a455-f690acff3ac6{fill:#d2a3cb;}.uuid-379b7cb2-6d37-471b-8c9c-8dda135bd294{opacity:.25;}.uuid-476cc53c-87d8-417d-957c-76ec392bfd85{fill:#010101;opacity:0;}.uuid-84f5a656-7b9a-4e15-955f-d4ae323dc809{fill:#cf78b1;}.uuid-b9f02e4b-2e44-457c-89f1-688d975f73d8{fill:#fff;}</style></defs><g class="uuid-379b7cb2-6d37-471b-8c9c-8dda135bd294"><polygon class="uuid-b4dd4b17-5138-4814-a455-f690acff3ac6" points="178.32184 170.16239 178.32184 170.16239 256.14741 170.16239 256.14741 170.16239 256.14741 17.88433 256.14741 17.88433 178.32184 17.88433 178.32184 17.88433 178.32184 170.16239"/></g><g class="uuid-379b7cb2-6d37-471b-8c9c-8dda135bd294"><polygon class="uuid-b4dd4b17-5138-4814-a455-f690acff3ac6" points="57.94415 170.16239 57.94415 170.16239 135.76972 170.16239 135.76972 170.16239 135.76972 17.88433 135.76972 17.88433 57.94415 17.88433 57.94415 17.88433 57.94415 170.16239"/></g><path class="uuid-476cc53c-87d8-417d-957c-76ec392bfd85" d="M135.76972,175.25394v.63848h-.5599v-78.53334c0-.35263-.25068-.63848-.5599-.63848H59.06394c-.30923,0-.5599.28585-.5599.63848v78.53334h-.5599v-.63848h77.82558ZM135.76972,176.5309H57.38425v-79.17182h.5599-.5599c0-1.05788.75202-1.91545,1.67969-1.91545v.63848-.63848h75.58599v.63848-.63848c.92767,0,1.67969.85757,1.67969,1.91545h-.5599.5599v79.17182h-.5599"/><polygon class="uuid-84f5a656-7b9a-4e15-955f-d4ae323dc809" points="57.94415 170.16239 57.94415 170.16239 135.76972 170.16239 135.76972 170.16239 135.76972 90.35209 135.76972 90.35209 57.94415 90.35209 57.94415 90.35209 57.94415 170.16239"/><path class="uuid-476cc53c-87d8-417d-957c-76ec392bfd85" d="M256.14741,175.25394v.63848h-.5599v-33.20109c0-.35263-.25068-.63848-.5599-.63848h-75.58599c-.30922,0-.5599.28585-.5599.63848v33.20109h-.5599v-.63848h77.82558ZM256.14741,176.5309h-78.38547v-33.83957h.5599-.5599c0-1.05788.75202-1.91545,1.67969-1.91545v.63848-.63848h75.58599v.63848-.63848c.92767,0,1.67969.85757,1.67969,1.91545h-.5599.5599v33.83957h-.5599"/><polygon class="uuid-84f5a656-7b9a-4e15-955f-d4ae323dc809" points="178.32184 170.16239 178.32184 170.16239 256.14741 170.16239 256.14741 170.16239 256.14741 135.68434 256.14741 135.68434 178.32184 135.68434 178.32184 135.68434 178.32184 170.16239"/><path class="uuid-f2bc56c6-f72c-48a7-9902-05667772441a" d="M64.79171,179.14605c0,.63965-.18359,1.18164-.55176,1.62402s-.85059.7168-1.44824.82324v.03223c.74707.08594,1.32031.33887,1.71973.75977.40039.42188.60059.98438.60059,1.68848,0,.94922-.30957,1.67969-.92773,2.19238-.61914.51172-1.50977.76758-2.67285.76758h-3.82324v-10.68848h3.69531c1.09863,0,1.94141.24023,2.52832.7207.58691.47949.87988,1.17285.87988,2.08008ZM61.28781,177.48199h-2.27148v3.66406h2.27148c.68262,0,1.20508-.15527,1.56836-.46387.3623-.30957.54395-.7627.54395-1.36035s-.17871-1.05371-.53613-1.36816-.88281-.47168-1.57617-.47168ZM61.46359,182.24957h-2.44727v3.68066h2.44727c.74707,0,1.31738-.1582,1.71191-.47266s.59277-.77051.59277-1.36816c0-.59668-.19824-1.05273-.59277-1.36719-.39453-.31543-.96484-.47266-1.71191-.47266Z"/><path class="uuid-f2bc56c6-f72c-48a7-9902-05667772441a" d="M69.91085,178.84136c.88574,0,1.5625.21094,2.03223.63281.46973.4209.7041,1.03125.7041,1.83203v4.15918c0,.23535.04785.41113.14453.52832.0957.11719.24512.17578.44727.17578.08594,0,.17578-.01562.27246-.04785.0957-.03223.16992-.07422.22363-.12793l.08008.97559c-.0957.06445-.22656.11816-.3916.16016-.16602.04297-.32812.06445-.48828.06445-.29883,0-.55762-.06152-.77637-.18457-.21875-.12207-.38672-.30078-.50391-.53516-.04297-.08594-.08203-.17871-.12012-.28027-.03711-.10156-.06641-.21582-.08789-.34375-.14941.41602-.4375.74609-.86328.99121-.42676.24609-.91211.36816-1.45605.36816-.74707,0-1.34766-.20508-1.80078-.61621-.45312-.41016-.67969-.95703-.67969-1.63965,0-.83203.34375-1.47168,1.03223-1.91992.6875-.44824,1.68262-.67188,2.9834-.67188.06445,0,.14648.00293.24805.00781.10156.00586.26953.01367.50391.02441v-.94434c0-.49023-.13574-.86914-.40723-1.13574-.27246-.2666-.66406-.40039-1.17676-.40039-.49023,0-.86914.12305-1.13574.36816s-.41016.60254-.43164,1.07227l-1.28027-.22461c.08496-.7041.39258-1.26074.91992-1.67188.52832-.41016,1.19727-.61621,2.00781-.61621ZM69.43136,186.20172c.59668,0,1.07715-.19238,1.43945-.57617.36328-.38379.54395-.91211.54395-1.58398v-.67188c-.13867-.01074-.27148-.01855-.39941-.02441-.12793-.00488-.24609-.00781-.35254-.00781-.91699,0-1.59961.13086-2.04785.39258-.44727.26074-.67188.65332-.67188,1.17578,0,.40527.13379.72266.40039.95215s.62891.34375,1.08789.34375Z"/><path class="uuid-f2bc56c6-f72c-48a7-9902-05667772441a" d="M78.61593,187.22613c-1.09961,0-1.96875-.37402-2.6084-1.12012-.63965-.74707-.95996-1.77051-.95996-3.07227,0-1.29004.32031-2.31152.95996-3.06445.63965-.75195,1.50879-1.12793,2.6084-1.12793.7998,0,1.46582.22461,2,.67285.5332.44727.8418,1.03906.92773,1.77539l-1.2002.22461c-.04297-.48047-.22168-.87207-.53613-1.17676-.31445-.30371-.71191-.45605-1.19141-.45605-.7041,0-1.25391.27832-1.64844.83203-.39453.55469-.5918,1.32812-.5918,2.32031s.19727,1.76562.5918,2.32031.94434.83203,1.64844.83203c.49023,0,.88965-.15234,1.19922-.45605.30957-.30469.48535-.70703.52832-1.20801l1.2002.22363c-.11719.7793-.43164,1.38672-.94434,1.82422-.51172.4375-1.17285.65625-1.9834.65625Z"/><path class="uuid-f2bc56c6-f72c-48a7-9902-05667772441a" d="M83.63937,175.48199h1.31152v4.81543c.24512-.46875.58398-.8291,1.0166-1.08008.43164-.25.92969-.37598,1.49609-.37598.74609,0,1.34375.23242,1.79199.69629.44727.46387.67188,1.09082.67188,1.87988v5.61621h-1.3125v-5.34375c0-.54395-.13574-.96289-.4082-1.25586-.27148-.29395-.6582-.44043-1.15918-.44043-.66211,0-1.17676.20801-1.54395.62402-.36816.41602-.55273,1.00781-.55273,1.77637v4.63965h-1.31152v-11.55176Z"/><path class="uuid-f2bc56c6-f72c-48a7-9902-05667772441a" d="M95.65597,186.18609c.50098,0,.91113-.12305,1.23145-.36816s.53906-.6084.65625-1.08789l1.13574.31934c-.1709.7041-.51758,1.24316-1.04004,1.61621s-1.18359.56055-1.9834.56055c-1.12012,0-1.99512-.36328-2.62402-1.08887-.62988-.72461-.94434-1.74902-.94434-3.07129,0-1.29102.32227-2.31738.96777-3.08008s1.51172-1.14453,2.60059-1.14453c.94922,0,1.70312.30762,2.26367.91992.55957.61426.83984,1.42676.83984,2.44043,0,.20312-.01562.40039-.04785.5918-.03223.19238-.06934.35254-.1123.48047h-5.24805c.03223.92773.24805,1.64551.64844,2.15137.39941.50684.95215.76074,1.65625.76074ZM95.62374,179.85015c-.62988,0-1.13867.21289-1.52832.63965s-.62695,1.03516-.71191,1.82422h4.06445c.00977-.05371.01562-.10938.01562-.16797v-.24805c0-.6084-.16797-1.10156-.50391-1.48047-.33594-.37793-.78125-.56738-1.33594-.56738Z"/><path class="uuid-f2bc56c6-f72c-48a7-9902-05667772441a" d="M102.88644,186.12164c.12891,0,.25391-.01855.37695-.05566.12207-.03711.23633-.09375.34375-.16797l.14355,1.00781c-.14941.08496-.33594.1543-.55957.20801-.22461.05273-.44336.08008-.65625.08008-.55469,0-.97363-.1416-1.25586-.42383-.2832-.2832-.42383-.69629-.42383-1.24023v-10.04785h1.31152v9.90332c0,.25684.05859.44336.17578.56055s.29883.17578.54395.17578Z"/><path class="uuid-f2bc56c6-f72c-48a7-9902-05667772441a" d="M108.66281,178.84136c1.09863,0,1.9707.37402,2.61621,1.12012.64551.74707.96777,1.77148.96777,3.07227,0,1.30176-.32227,2.3252-.96777,3.07227-.64551.74609-1.51758,1.12012-2.61621,1.12012s-1.9707-.37402-2.61621-1.12012c-.64551-.74707-.96777-1.77051-.96777-3.07227,0-1.30078.32227-2.3252.96777-3.07227.64551-.74609,1.51758-1.12012,2.61621-1.12012ZM108.66281,186.20172c.73633,0,1.2959-.26953,1.67969-.80762.38477-.53906.57617-1.3252.57617-2.36035,0-1.03418-.19141-1.82129-.57617-2.36035-.38379-.53809-.94336-.80762-1.67969-.80762s-1.2959.26953-1.67969.80762c-.38477.53906-.57617,1.32617-.57617,2.36035,0,1.03516.19141,1.82129.57617,2.36035.38379.53809.94336.80762,1.67969.80762Z"/><path class="uuid-f2bc56c6-f72c-48a7-9902-05667772441a" d="M114.48702,187.03375v-8h1.04004l.17578,2.04785c.14941-.67188.45801-1.21289.92773-1.62402.46973-.41016,1.00781-.61621,1.61621-.61621.07422,0,.15234.00586.23242.0166s.15723.02148.23145.03223l-.08008,1.37598c-.06348-.01074-.1543-.02148-.27148-.03223-.11816-.01074-.24023-.0166-.36816-.0166-.66113,0-1.19238.25098-1.5918.75195-.40039.50195-.60059,1.17383-.60059,2.0166v4.04785h-1.31152Z"/><path class="uuid-f2bc56c6-f72c-48a7-9902-05667772441a" d="M121.17452,179.56207h-.81543v-4.08008h1.4873l-.67188,4.08008Z"/><path class="uuid-f2bc56c6-f72c-48a7-9902-05667772441a" d="M126.90304,187.22613c-.85352,0-1.56543-.19727-2.13672-.59277-.57031-.39453-.91406-.93262-1.03125-1.61523l1.19922-.33594c.06445.44727.28027.81543.64844,1.10352s.80762.43164,1.32031.43164c.55371,0,.9834-.1084,1.28809-.32715.30371-.21875.45508-.53125.45508-.93652,0-.34082-.11914-.61328-.35938-.81641-.24023-.20215-.76562-.39355-1.57617-.5752-.5332-.11719-.92578-.22461-1.17578-.32031-.25098-.0957-.4668-.20215-.64844-.32031-.2666-.19141-.4668-.42578-.59961-.7041-.13379-.27637-.2002-.60254-.2002-.97559,0-.72559.25879-1.30664.77637-1.74414.5166-.4375,1.19141-.65625,2.02344-.65625.875,0,1.55469.18945,2.04004.56836s.77051.93066.85645,1.65625l-1.23242.17578c-.04297-.44824-.20508-.79199-.48828-1.03223-.28223-.24023-.67383-.35938-1.17578-.35938-.49023,0-.875.11426-1.15137.34375-.27832.22949-.41602.54688-.41602.95215,0,.33008.11719.59473.35156.79199s.75195.38086,1.55176.55176c.54395.11719.94434.22168,1.2002.31152.25586.09082.47461.2002.65625.32812.2666.19238.4668.42969.59961.71191.13379.2832.2002.62207.2002,1.0166,0,.72559-.27148,1.30176-.81641,1.72754-.54395.42676-1.26367.64062-2.15918.64062Z"/><path class="uuid-f2bc56c6-f72c-48a7-9902-05667772441a" d="M66.01632,198.04156c1.09863,0,1.9707.37402,2.61621,1.12012.64551.74707.96777,1.77148.96777,3.07227,0,1.30176-.32227,2.3252-.96777,3.07227-.64551.74609-1.51758,1.12012-2.61621,1.12012s-1.9707-.37402-2.61621-1.12012c-.64551-.74707-.96777-1.77051-.96777-3.07227,0-1.30078.32227-2.3252.96777-3.07227.64551-.74609,1.51758-1.12012,2.61621-1.12012ZM66.01632,205.40191c.73633,0,1.2959-.26953,1.67969-.80762.38477-.53906.57617-1.3252.57617-2.36035,0-1.03418-.19141-1.82129-.57617-2.36035-.38379-.53809-.94336-.80762-1.67969-.80762s-1.2959.26953-1.67969.80762c-.38477.53906-.57617,1.32617-.57617,2.36035,0,1.03516.19141,1.82129.57617,2.36035.38379.53809.94336.80762,1.67969.80762Z"/><path class="uuid-f2bc56c6-f72c-48a7-9902-05667772441a" d="M71.84054,206.23394v-8h1.04004l.17578,2.04785c.14941-.67188.45801-1.21289.92773-1.62402.46973-.41016,1.00781-.61621,1.61621-.61621.07422,0,.15234.00586.23242.0166s.15723.02148.23145.03223l-.08008,1.37598c-.06348-.01074-.1543-.02148-.27148-.03223-.11816-.01074-.24023-.0166-.36816-.0166-.66113,0-1.19238.25098-1.5918.75195-.40039.50195-.60059,1.17383-.60059,2.0166v4.04785h-1.31152Z"/><path class="uuid-f2bc56c6-f72c-48a7-9902-05667772441a" d="M81.84054,194.68218h1.31152v4.81543c.24512-.46875.58398-.8291,1.0166-1.08008.43164-.25.92969-.37598,1.49609-.37598.74609,0,1.34375.23242,1.79199.69629.44727.46387.67188,1.09082.67188,1.87988v5.61621h-1.3125v-5.34375c0-.54395-.13574-.96289-.4082-1.25586-.27148-.29395-.6582-.44043-1.15918-.44043-.66211,0-1.17676.20801-1.54395.62402-.36816.41602-.55273,1.00781-.55273,1.77637v4.63965h-1.31152v-11.55176Z"/><path class="uuid-f2bc56c6-f72c-48a7-9902-05667772441a" d="M91.52023,194.84234c.26562,0,.49023.09082.67188.27148.18066.18164.27148.41113.27148.68848s-.09082.50684-.27148.6875c-.18164.18164-.40625.27246-.67188.27246-.26758,0-.49121-.09082-.67285-.27246-.18066-.18066-.27148-.41016-.27148-.6875s.09082-.50684.27148-.68848c.18164-.18066.40527-.27148.67285-.27148ZM90.86398,206.23394v-8h1.31152v8h-1.31152Z"/><path class="uuid-f2bc56c6-f72c-48a7-9902-05667772441a" d="M101.5837,206.89019c0,.85254-.37305,1.5166-1.12012,1.99219-.74707.47363-1.74902.71191-3.00781.71191-1.08789,0-1.96289-.20605-2.62402-.61621-.66113-.41113-.99219-.97363-.99219-1.68848,0-.44727.16504-.82617.49609-1.13574.33008-.30957.77344-.50684,1.32812-.5918-.27734-.0957-.49316-.24805-.64844-.45605-.1543-.20801-.23145-.4502-.23145-.72852,0-.30859.0957-.5752.28809-.7998.19141-.22363.46387-.39453.81543-.51172-.44727-.22363-.78906-.53613-1.02344-.93555-.23535-.40039-.35254-.86719-.35254-1.40039,0-.82129.27734-1.47461.83203-1.95996s1.30176-.72852,2.24023-.72852c.45898,0,.87988.06152,1.26367.18457.38477.12305.71484.30176.99219.53613.1709-.08594.30664-.21875.4082-.40039s.18945-.49023.26367-.92773l1.21582.43164c-.06348.37402-.22363.70215-.47949.98438s-.56055.46094-.91211.53613c.11719.19141.20215.39941.25586.62402.05371.22363.08008.46387.08008.71973,0,.83203-.28027,1.49023-.83984,1.97559s-1.30957.72852-2.24805.72852c-.18164,0-.3623-.01074-.54395-.03223s-.36328-.05273-.54395-.0957c-.20312.08496-.35449.19434-.45605.32812-.10156.13281-.15234.29004-.15234.47168,0,.20312.06934.35742.20801.46387s.3418.16016.6084.16016h2.22363c.84277,0,1.49609.18945,1.95996.56836.46387.37793.69629.90918.69629,1.5918ZM95.10324,207.17828c0,.44727.21387.7998.64062,1.05566s.98633.38379,1.67969.38379c.89648,0,1.61035-.1416,2.14453-.42383.5332-.28223.7998-.6748.7998-1.17578,0-.35254-.12793-.62207-.38379-.80859-.25684-.18652-.62988-.2793-1.12012-.2793h-2.27246c-.44824,0-.80762.11133-1.08008.33594-.27148.22363-.4082.52734-.4082.91211ZM97.5837,199.00152c-.56543,0-1.00781.15234-1.32812.45605-.32031.30469-.47949.72852-.47949,1.27246s.15918.96777.47949,1.27148c.32031.30469.7627.45605,1.32812.45605.57617,0,1.02441-.15137,1.34375-.45605.32031-.30371.48047-.72754.48047-1.27148s-.16309-.96777-.48828-1.27246c-.3252-.30371-.77051-.45605-1.33594-.45605Z"/><path class="uuid-f2bc56c6-f72c-48a7-9902-05667772441a" d="M103.31222,194.68218h1.31152v4.81543c.24512-.46875.58398-.8291,1.0166-1.08008.43164-.25.92969-.37598,1.49609-.37598.74609,0,1.34375.23242,1.79199.69629.44727.46387.67188,1.09082.67188,1.87988v5.61621h-1.3125v-5.34375c0-.54395-.13574-.96289-.4082-1.25586-.27148-.29395-.6582-.44043-1.15918-.44043-.66211,0-1.17676.20801-1.54395.62402-.36816.41602-.55273,1.00781-.55273,1.77637v4.63965h-1.31152v-11.55176Z"/><path class="uuid-f2bc56c6-f72c-48a7-9902-05667772441a" d="M115.32784,205.38629c.50098,0,.91113-.12305,1.23145-.36816s.53906-.6084.65625-1.08789l1.13574.31934c-.1709.7041-.51758,1.24316-1.04004,1.61621s-1.18359.56055-1.9834.56055c-1.12012,0-1.99512-.36328-2.62402-1.08887-.62988-.72461-.94434-1.74902-.94434-3.07129,0-1.29102.32227-2.31738.96777-3.08008s1.51172-1.14453,2.60059-1.14453c.94922,0,1.70312.30762,2.26367.91992.55957.61426.83984,1.42676.83984,2.44043,0,.20312-.01562.40039-.04785.5918-.03223.19238-.06934.35254-.1123.48047h-5.24805c.03223.92773.24805,1.64551.64844,2.15137.39941.50684.95215.76074,1.65625.76074ZM115.29562,199.05035c-.62988,0-1.13867.21289-1.52832.63965s-.62695,1.03516-.71191,1.82422h4.06445c.00977-.05371.01562-.10938.01562-.16797v-.24805c0-.6084-.16797-1.10156-.50391-1.48047-.33594-.37793-.78125-.56738-1.33594-.56738Z"/><path class="uuid-f2bc56c6-f72c-48a7-9902-05667772441a" d="M120.65597,206.23394v-8h1.04004l.17578,2.04785c.14941-.67188.45801-1.21289.92773-1.62402.46973-.41016,1.00781-.61621,1.61621-.61621.07422,0,.15234.00586.23242.0166s.15723.02148.23145.03223l-.08008,1.37598c-.06348-.01074-.1543-.02148-.27148-.03223-.11816-.01074-.24023-.0166-.36816-.0166-.66113,0-1.19238.25098-1.5918.75195-.40039.50195-.60059,1.17383-.60059,2.0166v4.04785h-1.31152Z"/><path class="uuid-f2bc56c6-f72c-48a7-9902-05667772441a" d="M168.38058,185.85015h5.4082v1.18359h-6.71973v-10.68848h6.71973v1.18457h-5.4082v3.47168h4.81641v1.18457h-4.81641v3.66406Z"/><path class="uuid-f2bc56c6-f72c-48a7-9902-05667772441a" d="M176.63741,179.03375l2.22363,6.6084h.03223l2.24023-6.6084h1.31152l-2.92773,8h-1.34375l-2.92871-8h1.39258Z"/><path class="uuid-f2bc56c6-f72c-48a7-9902-05667772441a" d="M187.27706,186.18609c.50098,0,.91113-.12305,1.23145-.36816s.53906-.6084.65625-1.08789l1.13574.31934c-.1709.7041-.51758,1.24316-1.04004,1.61621s-1.18359.56055-1.9834.56055c-1.12012,0-1.99512-.36328-2.62402-1.08887-.62988-.72461-.94434-1.74902-.94434-3.07129,0-1.29102.32227-2.31738.96777-3.08008s1.51172-1.14453,2.60059-1.14453c.94922,0,1.70312.30762,2.26367.91992.55957.61426.83984,1.42676.83984,2.44043,0,.20312-.01562.40039-.04785.5918-.03223.19238-.06934.35254-.1123.48047h-5.24805c.03223.92773.24805,1.64551.64844,2.15137.39941.50684.95215.76074,1.65625.76074ZM187.24484,179.85015c-.62988,0-1.13867.21289-1.52832.63965s-.62695,1.03516-.71191,1.82422h4.06445c.00977-.05371.01562-.10938.01562-.16797v-.24805c0-.6084-.16797-1.10156-.50391-1.48047-.33594-.37793-.78125-.56738-1.33594-.56738Z"/><path class="uuid-f2bc56c6-f72c-48a7-9902-05667772441a" d="M192.60421,187.03375v-8h1.04004l.17578,2.04785c.14941-.67188.45801-1.21289.92773-1.62402.46973-.41016,1.00781-.61621,1.61621-.61621.07422,0,.15234.00586.23242.0166s.15723.02148.23145.03223l-.08008,1.37598c-.06348-.01074-.1543-.02148-.27148-.03223-.11816-.01074-.24023-.0166-.36816-.0166-.66113,0-1.19238.25098-1.5918.75195-.40039.50195-.60059,1.17383-.60059,2.0166v4.04785h-1.31152Z"/><path class="uuid-f2bc56c6-f72c-48a7-9902-05667772441a" d="M201.22824,185.7857h.03223l2.25586-6.75195h1.31152l-3.04004,8.43164c-.38379,1.05664-.78906,1.80859-1.21582,2.25684-.42676.44727-.96582.67188-1.61621.67188-.19141,0-.38379-.02734-.57617-.08008-.19141-.05371-.37305-.12793-.54395-.22461l.19238-1.08789c.21289.12793.38086.21094.50391.24805s.25293.05664.3916.05664c.39453,0,.7041-.12891.92871-.38477.22363-.25586.47461-.77344.75195-1.55176l-2.97656-8.33594h1.39258l2.20801,6.75195Z"/><path class="uuid-f2bc56c6-f72c-48a7-9902-05667772441a" d="M209.67648,178.84136c1.09863,0,1.9707.37402,2.61621,1.12012.64551.74707.96777,1.77148.96777,3.07227,0,1.30176-.32227,2.3252-.96777,3.07227-.64551.74609-1.51758,1.12012-2.61621,1.12012s-1.9707-.37402-2.61621-1.12012c-.64551-.74707-.96777-1.77051-.96777-3.07227,0-1.30078.32227-2.3252.96777-3.07227.64551-.74609,1.51758-1.12012,2.61621-1.12012ZM209.67648,186.20172c.73633,0,1.2959-.26953,1.67969-.80762.38477-.53906.57617-1.3252.57617-2.36035,0-1.03418-.19141-1.82129-.57617-2.36035-.38379-.53809-.94336-.80762-1.67969-.80762s-1.2959.26953-1.67969.80762c-.38477.53906-.57617,1.32617-.57617,2.36035,0,1.03516.19141,1.82129.57617,2.36035.38379.53809.94336.80762,1.67969.80762Z"/><path class="uuid-f2bc56c6-f72c-48a7-9902-05667772441a" d="M215.5007,179.03375h.97559l.16016,1.55176c.22363-.55469.57031-.9834,1.04004-1.28809.46973-.30371,1.01855-.45605,1.64844-.45605.74609,0,1.34375.23242,1.79199.69629.44727.46387.67188,1.09082.67188,1.87988v5.61621h-1.3125v-5.34375c0-.54395-.13574-.96289-.4082-1.25586-.27148-.29395-.6582-.44043-1.15918-.44043-.66211,0-1.17676.20801-1.54395.62402-.36816.41602-.55273,1.00781-.55273,1.77637v4.63965h-1.31152v-8Z"/><path class="uuid-f2bc56c6-f72c-48a7-9902-05667772441a" d="M227.51632,186.18609c.50098,0,.91113-.12305,1.23145-.36816s.53906-.6084.65625-1.08789l1.13574.31934c-.1709.7041-.51758,1.24316-1.04004,1.61621s-1.18359.56055-1.9834.56055c-1.12012,0-1.99512-.36328-2.62402-1.08887-.62988-.72461-.94434-1.74902-.94434-3.07129,0-1.29102.32227-2.31738.96777-3.08008s1.51172-1.14453,2.60059-1.14453c.94922,0,1.70312.30762,2.26367.91992.55957.61426.83984,1.42676.83984,2.44043,0,.20312-.01562.40039-.04785.5918-.03223.19238-.06934.35254-.1123.48047h-5.24805c.03223.92773.24805,1.64551.64844,2.15137.39941.50684.95215.76074,1.65625.76074ZM227.48409,179.85015c-.62988,0-1.13867.21289-1.52832.63965s-.62695,1.03516-.71191,1.82422h4.06445c.00977-.05371.01562-.10938.01562-.16797v-.24805c0-.6084-.16797-1.10156-.50391-1.48047-.33594-.37793-.78125-.56738-1.33594-.56738Z"/><path class="uuid-f2bc56c6-f72c-48a7-9902-05667772441a" d="M239.83663,186.18609c.50098,0,.91113-.12305,1.23145-.36816s.53906-.6084.65625-1.08789l1.13574.31934c-.1709.7041-.51758,1.24316-1.04004,1.61621s-1.18359.56055-1.9834.56055c-1.12012,0-1.99512-.36328-2.62402-1.08887-.62988-.72461-.94434-1.74902-.94434-3.07129,0-1.29102.32227-2.31738.96777-3.08008s1.51172-1.14453,2.60059-1.14453c.94922,0,1.70312.30762,2.26367.91992.55957.61426.83984,1.42676.83984,2.44043,0,.20312-.01562.40039-.04785.5918-.03223.19238-.06934.35254-.1123.48047h-5.24805c.03223.92773.24805,1.64551.64844,2.15137.39941.50684.95215.76074,1.65625.76074ZM239.80441,179.85015c-.62988,0-1.13867.21289-1.52832.63965s-.62695,1.03516-.71191,1.82422h4.06445c.00977-.05371.01562-.10938.01562-.16797v-.24805c0-.6084-.16797-1.10156-.50391-1.48047-.33594-.37793-.78125-.56738-1.33594-.56738Z"/><path class="uuid-f2bc56c6-f72c-48a7-9902-05667772441a" d="M247.0671,186.12164c.12891,0,.25391-.01855.37695-.05566.12207-.03711.23633-.09375.34375-.16797l.14355,1.00781c-.14941.08496-.33594.1543-.55957.20801-.22461.05273-.44336.08008-.65625.08008-.55469,0-.97363-.1416-1.25586-.42383-.2832-.2832-.42383-.69629-.42383-1.24023v-10.04785h1.31152v9.90332c0,.25684.05859.44336.17578.56055s.29883.17578.54395.17578Z"/><path class="uuid-f2bc56c6-f72c-48a7-9902-05667772441a" d="M252.20382,187.22613c-.85352,0-1.56543-.19727-2.13672-.59277-.57031-.39453-.91406-.93262-1.03125-1.61523l1.19922-.33594c.06445.44727.28027.81543.64844,1.10352s.80762.43164,1.32031.43164c.55371,0,.9834-.1084,1.28809-.32715.30371-.21875.45508-.53125.45508-.93652,0-.34082-.11914-.61328-.35938-.81641-.24023-.20215-.76562-.39355-1.57617-.5752-.5332-.11719-.92578-.22461-1.17578-.32031-.25098-.0957-.4668-.20215-.64844-.32031-.2666-.19141-.4668-.42578-.59961-.7041-.13379-.27637-.2002-.60254-.2002-.97559,0-.72559.25879-1.30664.77637-1.74414.5166-.4375,1.19141-.65625,2.02344-.65625.875,0,1.55469.18945,2.04004.56836s.77051.93066.85645,1.65625l-1.23242.17578c-.04297-.44824-.20508-.79199-.48828-1.03223-.28223-.24023-.67383-.35938-1.17578-.35938-.49023,0-.875.11426-1.15137.34375-.27832.22949-.41602.54688-.41602.95215,0,.33008.11719.59473.35156.79199s.75195.38086,1.55176.55176c.54395.11719.94434.22168,1.2002.31152.25586.09082.47461.2002.65625.32812.2666.19238.4668.42969.59961.71191.13379.2832.2002.62207.2002,1.0166,0,.72559-.27148,1.30176-.81641,1.72754-.54395.42676-1.26367.64062-2.15918.64062Z"/><path class="uuid-f2bc56c6-f72c-48a7-9902-05667772441a" d="M260.34835,186.18609c.50098,0,.91113-.12305,1.23145-.36816s.53906-.6084.65625-1.08789l1.13574.31934c-.1709.7041-.51758,1.24316-1.04004,1.61621s-1.18359.56055-1.9834.56055c-1.12012,0-1.99512-.36328-2.62402-1.08887-.62988-.72461-.94434-1.74902-.94434-3.07129,0-1.29102.32227-2.31738.96777-3.08008s1.51172-1.14453,2.60059-1.14453c.94922,0,1.70312.30762,2.26367.91992.55957.61426.83984,1.42676.83984,2.44043,0,.20312-.01562.40039-.04785.5918-.03223.19238-.06934.35254-.1123.48047h-5.24805c.03223.92773.24805,1.64551.64844,2.15137.39941.50684.95215.76074,1.65625.76074ZM260.31613,179.85015c-.62988,0-1.13867.21289-1.52832.63965s-.62695,1.03516-.71191,1.82422h4.06445c.00977-.05371.01562-.10938.01562-.16797v-.24805c0-.6084-.16797-1.10156-.50391-1.48047-.33594-.37793-.78125-.56738-1.33594-.56738Z"/><path class="uuid-84f5a656-7b9a-4e15-955f-d4ae323dc809" d="M19.33273,115.25933l1.90332-7.85352h1.24609l1.9043,7.85352h.05566l1.9043-7.85352h1.16211l-2.43652,9.35156h-1.24512l-1.96094-7.74219h-.04199l-1.95996,7.74219h-1.24512l-2.43652-9.35156h1.19043l1.91797,7.85352h.04199Z"/><path class="uuid-84f5a656-7b9a-4e15-955f-d4ae323dc809" d="M31.79269,109.58941c.96094,0,1.72363.32715,2.28906.98047.56445.65332.84668,1.54883.84668,2.6875s-.28223,2.03516-.84668,2.68848c-.56543.65332-1.32812.97949-2.28906.97949-.96191,0-1.72461-.32617-2.28906-.97949-.56543-.65332-.84766-1.5498-.84766-2.68848s.28223-2.03418.84766-2.6875c.56445-.65332,1.32715-.98047,2.28906-.98047ZM31.79269,116.02984c.64355,0,1.13379-.23535,1.46973-.70703s.50391-1.16016.50391-2.06543-.16797-1.59375-.50391-2.06445c-.33594-.47168-.82617-.70703-1.46973-.70703-.64453,0-1.13379.23535-1.4707.70703-.33594.4707-.50391,1.15918-.50391,2.06445s.16797,1.59375.50391,2.06543c.33691.47168.82617.70703,1.4707.70703Z"/><path class="uuid-84f5a656-7b9a-4e15-955f-d4ae323dc809" d="M36.88839,116.75738v-7h.90918l.1543,1.79199c.13086-.58789.40137-1.06152.8125-1.4209.41016-.35938.88184-.53906,1.41406-.53906.06445,0,.13281.00488.20215.01465.07031.00879.1377.01855.20312.02734l-.06934,1.2041c-.05664-.00879-.13574-.01855-.23828-.02832-.10254-.00879-.20996-.01367-.32227-.01367-.5791,0-1.04297.21973-1.39258.6582-.35059.43848-.52539,1.02637-.52539,1.76367v3.54199h-1.14746Z"/><path class="uuid-84f5a656-7b9a-4e15-955f-d4ae323dc809" d="M47.77999,109.75738l-2.92578,3.19238,3.20605,3.80762h-1.44238l-2.74414-3.27539h-.58789v3.27539h-1.14746v-10.10742h1.14746v5.92188h.61621l2.51953-2.81445h1.3584Z"/><path class="uuid-84f5a656-7b9a-4e15-955f-d4ae323dc809" d="M18.70968,130.75738v-6.11816h-1.02246v-.88184h1.02246v-.79785c0-.7373.21875-1.33496.65723-1.79199.43945-.45703,1.00879-.68555,1.70801-.68555.22461,0,.44141.02539.65137.07617.20996.05176.42188.13379.63672.24512l-.26562.9668c-.15918-.12207-.3125-.20801-.46191-.25977-.14941-.05078-.32715-.07715-.53223-.07715-.40137,0-.70898.13574-.92383.40625-.21484.27148-.32227.65332-.32227,1.14844v.76953h1.79199v.88184h-1.79199v6.11816h-1.14746Z"/><path class="uuid-84f5a656-7b9a-4e15-955f-d4ae323dc809" d="M23.03585,130.75738v-7h.90918l.1543,1.79199c.13086-.58789.40137-1.06152.8125-1.4209.41016-.35938.88184-.53906,1.41406-.53906.06445,0,.13281.00488.20215.01465.07031.00879.1377.01855.20312.02734l-.06934,1.2041c-.05664-.00879-.13574-.01855-.23828-.02832-.10254-.00879-.20996-.01367-.32227-.01367-.5791,0-1.04297.21973-1.39258.6582-.35059.43848-.52539,1.02637-.52539,1.76367v3.54199h-1.14746Z"/><path class="uuid-84f5a656-7b9a-4e15-955f-d4ae323dc809" d="M30.91769,123.58941c.96094,0,1.72363.32715,2.28906.98047.56445.65332.84668,1.54883.84668,2.6875s-.28223,2.03516-.84668,2.68848c-.56543.65332-1.32812.97949-2.28906.97949-.96191,0-1.72461-.32617-2.28906-.97949-.56543-.65332-.84766-1.5498-.84766-2.68848s.28223-2.03418.84766-2.6875c.56445-.65332,1.32715-.98047,2.28906-.98047ZM30.91769,130.02984c.64355,0,1.13379-.23535,1.46973-.70703s.50391-1.16016.50391-2.06543-.16797-1.59375-.50391-2.06445c-.33594-.47168-.82617-.70703-1.46973-.70703-.64453,0-1.13379.23535-1.4707.70703-.33594.4707-.50391,1.15918-.50391,2.06445s.16797,1.59375.50391,2.06543c.33691.47168.82617.70703,1.4707.70703Z"/><path class="uuid-84f5a656-7b9a-4e15-955f-d4ae323dc809" d="M39.17745,123.58941c.49414,0,.91895.12891,1.27344.38477.35449.25684.59766.61914.72852,1.08496.20508-.46582.49414-.82812.86719-1.08496.37402-.25586.80762-.38477,1.30273-.38477.66211,0,1.1875.19434,1.57422.58105.3877.3877.58105.92188.58105,1.60352v4.9834h-1.14746v-4.68945c0-.49512-.1123-.86328-.33594-1.10645-.22461-.24219-.56543-.36426-1.02246-.36426-.5127,0-.91895.18262-1.21777.54688-.29883.36328-.44824.87695-.44824,1.53906v4.07422h-1.14746v-4.68945c0-.48535-.11426-.85156-.34375-1.09961-.22852-.24707-.56641-.37109-1.01465-.37109-.51367,0-.91895.18457-1.21777.55371-.29883.36816-.44824.88379-.44824,1.54688v4.05957h-1.14746v-7h.85352l.13965,1.3584c.16797-.47656.44336-.84961.82617-1.12012s.83105-.40625,1.34473-.40625Z"/><path class="uuid-84f5a656-7b9a-4e15-955f-d4ae323dc809" d="M15.80441,134.64996h1.14746v4.21387c.21484-.41113.51074-.72559.88867-.94531.37891-.21875.81445-.3291,1.30957-.3291.65332,0,1.17578.20312,1.56836.60938.3916.40625.58789.9541.58789,1.64453v4.91406h-1.14844v-4.67578c0-.47559-.11914-.8418-.35742-1.09863-.2373-.25684-.57617-.38574-1.01465-.38574-.5791,0-1.0293.18262-1.35059.54688-.32227.36328-.4834.88184-.4834,1.55371v4.05957h-1.14746v-10.10742Z"/><path class="uuid-84f5a656-7b9a-4e15-955f-d4ae323dc809" d="M26.33175,137.58941c.96094,0,1.72363.32715,2.28906.98047.56445.65332.84668,1.54883.84668,2.6875s-.28223,2.03516-.84668,2.68848c-.56543.65332-1.32812.97949-2.28906.97949-.96191,0-1.72461-.32617-2.28906-.97949-.56543-.65332-.84766-1.5498-.84766-2.68848s.28223-2.03418.84766-2.6875c.56445-.65332,1.32715-.98047,2.28906-.98047ZM26.33175,144.02984c.64355,0,1.13379-.23535,1.46973-.70703s.50391-1.16016.50391-2.06543-.16797-1.59375-.50391-2.06445c-.33594-.47168-.82617-.70703-1.46973-.70703-.64453,0-1.13379.23535-1.4707.70703-.33594.4707-.50391,1.15918-.50391,2.06445s.16797,1.59375.50391,2.06543c.33691.47168.82617.70703,1.4707.70703Z"/><path class="uuid-84f5a656-7b9a-4e15-955f-d4ae323dc809" d="M34.59152,137.58941c.49414,0,.91895.12891,1.27344.38477.35449.25684.59766.61914.72852,1.08496.20508-.46582.49414-.82812.86719-1.08496.37402-.25586.80762-.38477,1.30273-.38477.66211,0,1.1875.19434,1.57422.58105.3877.3877.58105.92188.58105,1.60352v4.9834h-1.14746v-4.68945c0-.49512-.1123-.86328-.33594-1.10645-.22461-.24219-.56543-.36426-1.02246-.36426-.5127,0-.91895.18262-1.21777.54688-.29883.36328-.44824.87695-.44824,1.53906v4.07422h-1.14746v-4.68945c0-.48535-.11426-.85156-.34375-1.09961-.22852-.24707-.56641-.37109-1.01465-.37109-.51367,0-.91895.18457-1.21777.55371-.29883.36816-.44824.88379-.44824,1.54688v4.05957h-1.14746v-7h.85352l.13965,1.3584c.16797-.47656.44336-.84961.82617-1.12012s.83105-.40625,1.34473-.40625Z"/><path class="uuid-84f5a656-7b9a-4e15-955f-d4ae323dc809" d="M45.93038,144.01519c.43945,0,.79883-.10645,1.07812-.32129.28027-.21484.47168-.53223.57422-.95215l.99414.28027c-.14941.61523-.45312,1.08691-.91016,1.41406-.45703.32617-1.03613.48926-1.73633.48926-.97949,0-1.74512-.31738-2.2959-.95215-.55078-.63379-.82617-1.53027-.82617-2.6875,0-1.12891.28223-2.02734.84766-2.69531.56445-.66699,1.32324-1.00098,2.27441-1.00098.83105,0,1.49121.26855,1.98145.80566.49023.53613.73535,1.24805.73535,2.13477,0,.17676-.01465.34961-.04199.51758-.02832.16797-.06152.30859-.09863.41992h-4.5918c.02832.8125.2168,1.44043.56738,1.88281.34961.44434.83301.66504,1.44824.66504ZM45.90304,138.47125c-.55078,0-.99707.1875-1.33691.56055-.34082.37305-.54883.90527-.62305,1.5957h3.55566c.00879-.04688.01367-.0957.01367-.14648v-.21777c0-.53125-.14648-.96289-.44043-1.29492-.29395-.33105-.68359-.49707-1.16895-.49707Z"/><path class="uuid-b9f02e4b-2e44-457c-89f1-688d975f73d8" d="M84.73214,100.32037h-1.22461l.32422-6.40771h6.22852v1.31396h-5.04004l-.19824,3.88818c.28809-.26416.62695-.47119,1.0166-.62109s.79492-.2251,1.21484-.2251c1.05664,0,1.91992.36328,2.59277,1.08887.67188.72607,1.00781,1.65332,1.00781,2.78125,0,1.19971-.38477,2.16895-1.15234,2.90674-.76758.73828-1.75195,1.10693-2.95215,1.10693-1.10352,0-2.03711-.29688-2.79883-.89062-.76172-.59424-1.20312-1.34717-1.32324-2.25928l1.2959-.48584c.15625.78027.4834,1.37988.98145,1.7998.49805.42041,1.125.62988,1.88086.62988.81641,0,1.45801-.24854,1.92578-.74658.46875-.49805.70215-1.1792.70215-2.04297,0-.8042-.22461-1.44629-.6748-1.92627s-1.05273-.71973-1.80859-.71973c-.39648,0-.76855.07178-1.11621.21582-.34863.14404-.64258.3418-.88184.59375Z"/><path class="uuid-b9f02e4b-2e44-457c-89f1-688d975f73d8" d="M94.46945,104.60455h5.94043v1.33203h-7.97363v-1.16992c.11914-.09619.49121-.38721,1.11523-.87305s1.11035-.87305,1.45801-1.16113c.54004-.45557.99902-.8667,1.37695-1.23291.37793-.36572.69922-.71094.96387-1.03516.40723-.50391.70703-.99902.89941-1.48486s.28809-.98096.28809-1.48486c0-.81592-.20996-1.45215-.62988-1.9082-.41992-.45557-1.00781-.68408-1.76367-.68408-.67285,0-1.22168.21631-1.64746.64795-.42578.43213-.63867.99023-.63867,1.67432,0,.24023.0293.46191.08984.66602.05957.2041.15527.41992.28809.64795l-1.27832.52197c-.16797-.26367-.29395-.55176-.37793-.86426-.08398-.31152-.12598-.66553-.12598-1.06152,0-.94824.34766-1.75781,1.04395-2.43018.69629-.67188,1.58398-1.0083,2.66406-1.0083,1.17578,0,2.1123.33643,2.80762,1.0083.69629.67236,1.04395,1.59033,1.04395,2.75391,0,1.08008-.41992,2.18115-1.25977,3.30322s-2.26758,2.40283-4.28418,3.84277Z"/><path class="uuid-b9f02e4b-2e44-457c-89f1-688d975f73d8" d="M101.77706,97.09869c0-.99609.24023-1.79688.71973-2.40332.48047-.60547,1.12207-.90869,1.92676-.90869.80371,0,1.44531.30322,1.92578.90869.47949.60645.71973,1.40723.71973,2.40332s-.24023,1.79688-.71973,2.40283c-.48047.60596-1.12207.90918-1.92578.90918-.80469,0-1.44629-.30322-1.92676-.90918-.47949-.60596-.71973-1.40674-.71973-2.40283ZM105.7546,97.09869c0-.72021-.11328-1.27832-.3418-1.67432-.22754-.396-.55762-.59375-.98926-.59375-.43262,0-.7627.19775-.99023.59375-.22852.396-.3418.9541-.3418,1.67432,0,.71973.11328,1.27783.3418,1.67383.22754.396.55762.59424.99023.59424.43164,0,.76172-.19824.98926-.59424.22852-.396.3418-.9541.3418-1.67383ZM106.13351,105.93658h-1.31445l6.4082-12.02393h1.31348l-6.40723,12.02393ZM110.29074,102.75054c0-.99609.24023-1.79688.7207-2.40283.47949-.60596,1.12109-.90918,1.92578-.90918.80371,0,1.44531.30322,1.92578.90918.47949.60596.71973,1.40674.71973,2.40283s-.24023,1.79736-.71973,2.40283c-.48047.60645-1.12207.90918-1.92578.90918-.80469,0-1.44629-.30273-1.92578-.90918-.48047-.60547-.7207-1.40674-.7207-2.40283ZM114.26925,102.75054c0-.71973-.11426-1.27783-.3418-1.67383-.22852-.396-.55859-.59424-.99023-.59424-.43262,0-.7627.19824-.99023.59424s-.3418.9541-.3418,1.67383c0,.72021.11426,1.27783.3418,1.67383s.55762.59424.99023.59424c.43164,0,.76172-.19824.99023-.59424.22754-.396.3418-.95361.3418-1.67383Z"/><path class="uuid-b9f02e4b-2e44-457c-89f1-688d975f73d8" d="M203.02413,148.59039h5.94043v1.33203h-7.97363v-1.16992c.11914-.09668.49121-.3877,1.11523-.87305.62402-.48633,1.11035-.87305,1.45801-1.16113.54004-.45605.99902-.86719,1.37695-1.2334.37793-.36523.69922-.71094.96387-1.03516.40723-.50391.70703-.99902.89941-1.48438.19238-.48633.28809-.98145.28809-1.48535,0-.81543-.20996-1.45215-.62988-1.9082-.41992-.45508-1.00781-.68359-1.76367-.68359-.67285,0-1.22168.21582-1.64746.64746-.42578.43262-.63867.99023-.63867,1.6748,0,.24023.0293.46191.08984.66602.05957.2041.15527.41992.28809.64746l-1.27832.52246c-.16797-.26367-.29395-.55176-.37793-.86426-.08398-.31152-.12598-.66602-.12598-1.06152,0-.94824.34766-1.75781,1.04395-2.43066.69629-.67188,1.58398-1.00781,2.66406-1.00781,1.17578,0,2.1123.33594,2.80762,1.00781.69629.67285,1.04395,1.59082,1.04395,2.75391,0,1.08008-.41992,2.18164-1.25977,3.30371s-2.26758,2.40234-4.28418,3.84277Z"/><path class="uuid-b9f02e4b-2e44-457c-89f1-688d975f73d8" d="M212.34835,148.59039h5.94043v1.33203h-7.97363v-1.16992c.11914-.09668.49121-.3877,1.11523-.87305.62402-.48633,1.11035-.87305,1.45801-1.16113.54004-.45605.99902-.86719,1.37695-1.2334.37793-.36523.69922-.71094.96387-1.03516.40723-.50391.70703-.99902.89941-1.48438.19238-.48633.28809-.98145.28809-1.48535,0-.81543-.20996-1.45215-.62988-1.9082-.41992-.45508-1.00781-.68359-1.76367-.68359-.67285,0-1.22168.21582-1.64746.64746-.42578.43262-.63867.99023-.63867,1.6748,0,.24023.0293.46191.08984.66602.05957.2041.15527.41992.28809.64746l-1.27832.52246c-.16797-.26367-.29395-.55176-.37793-.86426-.08398-.31152-.12598-.66602-.12598-1.06152,0-.94824.34766-1.75781,1.04395-2.43066.69629-.67188,1.58398-1.00781,2.66406-1.00781,1.17578,0,2.1123.33594,2.80762,1.00781.69629.67285,1.04395,1.59082,1.04395,2.75391,0,1.08008-.41992,2.18164-1.25977,3.30371s-2.26758,2.40234-4.28418,3.84277Z"/><path class="uuid-b9f02e4b-2e44-457c-89f1-688d975f73d8" d="M219.65597,141.08453c0-.99609.24023-1.79688.71973-2.40332.48047-.60547,1.12207-.90918,1.92676-.90918.80371,0,1.44531.30371,1.92578.90918.47949.60645.71973,1.40723.71973,2.40332s-.24023,1.79688-.71973,2.40234c-.48047.60645-1.12207.90918-1.92578.90918-.80469,0-1.44629-.30273-1.92676-.90918-.47949-.60547-.71973-1.40625-.71973-2.40234ZM223.63351,141.08453c0-.7207-.11328-1.27832-.3418-1.6748-.22754-.39551-.55762-.59375-.98926-.59375-.43262,0-.7627.19824-.99023.59375-.22852.39648-.3418.9541-.3418,1.6748,0,.71973.11328,1.27734.3418,1.67383.22754.39551.55762.59375.99023.59375.43164,0,.76172-.19824.98926-.59375.22852-.39648.3418-.9541.3418-1.67383ZM224.01241,149.92242h-1.31445l6.4082-12.02441h1.31348l-6.40723,12.02441ZM228.16964,146.7359c0-.99609.24023-1.79688.7207-2.40234.47949-.60645,1.12109-.90918,1.92578-.90918.80371,0,1.44531.30273,1.92578.90918.47949.60547.71973,1.40625.71973,2.40234s-.24023,1.79785-.71973,2.40332c-.48047.60645-1.12207.90918-1.92578.90918-.80469,0-1.44629-.30273-1.92578-.90918-.48047-.60547-.7207-1.40723-.7207-2.40332ZM232.14816,146.7359c0-.71973-.11426-1.27734-.3418-1.67383-.22852-.39551-.55859-.59375-.99023-.59375-.43262,0-.7627.19824-.99023.59375-.22754.39648-.3418.9541-.3418,1.67383,0,.7207.11426,1.27832.3418,1.67383.22754.39648.55762.59473.99023.59473.43164,0,.76172-.19824.99023-.59473.22754-.39551.3418-.95312.3418-1.67383Z"/></svg>